<svg width="91" height="28" viewBox="0 0 91 28" fill="none" xmlns="http://www.w3.org/2000/svg">
  <!-- Centered Brand Text: translate adjusted from 4.2 to 7.5 -->
  <g transform="translate(-5, 32) scale(0.032, -0.033)" fill="#4B0082">
    <path d="M305 837 c-3 -7 -4 -147 -3 -312 l3 -300 79 -3 c90 -3 128 8 145 44 15 34 15 504 0 537 -6 14 -22 30 -36 36 -34 16 -182 15 -188 -2z m143 -304 l2 -223 -30 0 -30 0 0 226 0 225 28 -3 27 -3 3 -222z"/>
    <path d="M597 843 c-4 -3 -7 -145 -7 -315 l0 -308 45 0 45 0 0 131 0 130 28 -3 27 -3 5 -125 5 -125 48 -3 47 -3 0 114 c0 111 -12 177 -32 177 -5 0 -2 10 6 22 12 17 16 50 16 144 0 108 -2 124 -21 148 -19 25 -25 26 -113 26 -51 0 -96 -3 -99 -7z m143 -177 c0 -76 -3 -95 -16 -100 -41 -16 -44 -10 -44 94 l0 100 30 0 30 0 0 -94z"/>
    <path d="M885 837 c-3 -7 -4 -147 -3 -312 l3 -300 93 -3 92 -3 0 46 0 45 -50 0 -50 0 0 95 0 95 50 0 50 0 0 40 0 40 -50 0 -50 0 0 90 0 90 50 0 50 0 0 45 0 45 -90 0 c-64 0 -92 -4 -95 -13z"/>
    <path d="M1155 840 c-6 -10 -54 -520 -55 -582 l0 -38 44 0 45 0 5 53 c4 28 7 79 9 112 2 56 4 60 28 63 25 3 26 1 32 -65 4 -37 7 -89 7 -115 l0 -48 51 0 51 0 -5 42 c-3 24 -16 160 -28 303 -12 143 -27 266 -32 273 -11 15 -143 17 -152 2z m89 -126 c3 -26 6 -75 6 -110 0 -59 -2 -64 -21 -64 -20 0 -21 4 -15 53 3 28 6 78 6 110 0 69 15 75 24 11z"/>
    <path d="M1407 843 c-4 -3 -7 -145 -7 -315 l0 -308 45 0 45 0 0 270 0 270 25 0 25 0 0 -270 0 -270 40 0 40 0 0 271 0 270 28 -3 27 -3 3 -267 2 -268 40 0 40 0 0 289 c0 277 -1 289 -21 315 l-20 26 -153 0 c-84 0 -156 -3 -159 -7z"/>
    <path d="M1930 830 c-19 -19 -20 -33 -20 -295 0 -333 -7 -315 128 -315 55 0 92 4 100 12 8 8 12 58 12 160 l0 148 -45 0 -45 0 0 -115 0 -115 -30 0 -30 0 0 225 0 225 50 0 50 0 0 45 0 45 -75 0 c-62 0 -79 -4 -95 -20z"/>
    <path d="M2236 842 c-5 -9 -56 -551 -56 -598 0 -22 4 -24 44 -24 52 0 56 6 56 100 0 101 8 130 35 130 21 0 24 -6 29 -62 4 -35 7 -85 9 -113 l2 -50 48 -3 c26 -2 47 1 47 5 0 60 -55 601 -62 611 -12 14 -144 17 -152 4z m95 -210 c4 -88 3 -92 -17 -92 -20 0 -21 4 -17 98 3 53 7 104 10 112 10 29 21 -23 24 -118z"/>
    <path d="M2440 805 c0 -45 0 -45 35 -45 l35 0 0 -270 0 -270 45 0 45 0 0 270 0 270 35 0 c35 0 35 0 35 45 l0 45 -115 0 -115 0 0 -45z"/>
    <path d="M2705 837 c-3 -7 -4 -147 -3 -312 l3 -300 93 -3 92 -3 0 46 0 45 -50 0 -50 0 0 95 0 95 50 0 50 0 0 40 0 40 -50 0 -50 0 0 90 0 90 50 0 50 0 0 45 0 45 -90 0 c-64 0 -92 -4 -95 -13z"/>
  </g>
  
  <!-- Decorative elements remain the same -->
  <path d="M26.6277 9.93982L27.7581 8.50986L27.5001 9.42912H28.2719L27.2443 10.7569L27.347 9.93982H26.6277Z" fill="#D4AF37"/>
  <path d="M0.91374 17.152H2.33511H5.58397C5.88855 17.152 6.42015 17.0463 6.19313 16.1504C6.0916 15.7497 5.58397 15.2489 4.97481 15.2489C4.67023 14.7481 4.26412 14.2473 3.45191 14.2473C2.80214 14.2473 2.43664 14.7147 2.33511 14.9484C1.68534 14.6279 1.38753 15.0152 1.31985 15.2489C0.406107 15.2489 0 15.7497 0 16.4509C0 17.0118 0.60916 17.152 0.91374 17.152Z" fill="#D4AF37"/>
  <circle cx="87.2531" cy="13.62" r="0.986524" fill="#D4AF37"/>
  <path d="M81.0519 17.8394C81.28 17.7163 81.5989 17.4585 81.7327 16.9465C81.8671 16.9396 81.8671 16.9396 81.8671 16.9396" fill="#D4AF37"/>
  <path d="M87.5821 10.7975L87.4451 11.784" stroke="#D4AF37" stroke-width="0.554889" stroke-linecap="round"/>
</svg>
