<svg width="1443" height="548" viewBox="0 0 1443 548" fill="none" xmlns="http://www.w3.org/2000/svg">
<g clip-path="url(#clip0_32_2148)">
<g style="mix-blend-mode:multiply" opacity="0.3">
<path d="M1466 215.644H1437.36V250.554H1417.43V145.954H1411.8V94.82H1413.34V89.93H1394.32V62.6628H1387.74L1385.82 0L1384.21 62.6628H1378.06V89.93H1359.77V94.82H1361.1V145.954H1354.42V231.998H1303.89V286.273H1223.12V179.698H1223.89V175.391H1161.02V179.698H1162.24V225.845H1138.43V230.185H1103.91V253.792H1053.35V271.247H1022.76V188.83H902.468V251.623H865.473V235.819H867.501V232.225H800.399V235.819H803.546V271.247H750.851V406.159H741.584V320.082H742.214V316.617H691.441V320.082H692.455V357.324H673.189V360.854H645.32V379.928H604.513V394.015H585.596V548H1466V215.644Z" fill="#06AEBD" fill-opacity="0.6"/>
<path d="M651.789 369.079H648.991V371.961H651.789V369.079Z" fill="white"/>
<path d="M657.978 368.852H654.516V372.415H657.978V368.852Z" fill="white"/>
<path d="M651.159 397.512H648.362V400.427H651.159V397.512Z" fill="white"/>
<path d="M657.313 397.318H653.852V400.848H657.313V397.318Z" fill="white"/>
<path d="M614.758 395.537H611.297V399.067H614.758V395.537Z" fill="white"/>
<path d="M619.514 395.537H616.682V398.419H619.514V395.537Z" fill="white"/>
<path d="M615.598 402.564H612.59V405.64H615.598V402.564Z" fill="white"/>
<path d="M696.721 323.806H693.924V326.689H696.721V323.806Z" fill="white"/>
<path d="M702.911 323.58H699.449V327.142H702.911V323.58Z" fill="white"/>
<path d="M698.47 330.477H695.463V333.554H698.47V330.477Z" fill="white"/>
<path d="M703.26 330.283H700.253V333.36H703.26V330.283Z" fill="white"/>
<path d="M678.853 394.954H675.426V399.293H678.853V394.954Z" fill="white"/>
<path d="M686.546 395.44H683.923V398.516H686.546V395.44Z" fill="white"/>
<path d="M705.323 428.504H701.302V432.519H705.323V428.504Z" fill="white"/>
<path d="M686.406 401.884H682.35V406.029H686.406V401.884Z" fill="white"/>
<path d="M647.767 431.548H644.725V434.689H647.767V431.548Z" fill="white"/>
<path d="M654.516 431.321H650.74V435.175H654.516V431.321Z" fill="white"/>
<path d="M649.656 438.834H646.404V442.202H649.656V438.834Z" fill="white"/>
<path d="M654.831 438.607H651.579V441.943H654.831V438.607Z" fill="white"/>
<path d="M592.729 435.725H589.722V438.802H592.729V435.725Z" fill="white"/>
<path d="M600.212 426.269H597.205V429.345H600.212V426.269Z" fill="white"/>
<path d="M601.436 416.068H597.554V420.051H601.436V416.068Z" fill="white"/>
<path d="M588.848 482.649H585.631V485.985H588.848V482.649Z" fill="white"/>
<path d="M593.778 483.265H591.295V485.823H593.778V483.265Z" fill="white"/>
<path d="M597.764 483.103H595.282V485.661H597.764V483.103Z" fill="white"/>
<path d="M615.947 417.169H612.975V420.246H615.947V417.169Z" fill="white"/>
<path d="M620.738 416.975H617.766V420.051H620.738V416.975Z" fill="white"/>
<path d="M617.521 476.043H614.514V479.119H617.521V476.043Z" fill="white"/>
<path d="M622.276 475.849H619.269V478.925H622.276V475.849Z" fill="white"/>
<path d="M651.544 472.74H649.131V475.816H651.544V472.74Z" fill="white"/>
<path d="M655.355 472.513H652.943V475.59H655.355V472.513Z" fill="white"/>
<path d="M683.923 460.272H681.511V463.349H683.923V460.272Z" fill="white"/>
<path d="M687.735 460.078H685.322V463.154H687.735V460.078Z" fill="white"/>
<path d="M721.198 418.885H717.877V423.128H721.198V418.885Z" fill="white"/>
<path d="M726.478 418.626H723.157V422.869H726.478V418.626Z" fill="white"/>
<path d="M697.211 473.938H694.484V477.436H697.211V473.938Z" fill="white"/>
<path d="M702.351 473.809H698.994V478.796H702.351V473.809Z" fill="white"/>
<path d="M752.879 459.203H749.557V463.446H752.879V459.203Z" fill="white"/>
<path d="M742.319 467.591H739.346V471.671H742.319V467.591Z" fill="white"/>
<path d="M591.75 408.296H588.743V411.372H591.75V408.296Z" fill="white"/>
<path d="M596.54 408.102H593.533V411.178H596.54V408.102Z" fill="white"/>
<path d="M590.596 457.714H587.589V460.79H590.596V457.714Z" fill="white"/>
<path d="M595.317 457.519H592.344V460.596H595.317V457.519Z" fill="white"/>
<path d="M697.77 370.31H693.749V374.39H697.77V370.31Z" fill="white"/>
<path d="M704.1 370.051H700.113V374.163H704.1V370.051Z" fill="white"/>
<path d="M693.085 378.147H689.623V381.709H693.085V378.147Z" fill="white"/>
<path d="M697.84 378.147H695.043V381.029H697.84V378.147Z" fill="white"/>
<path d="M704.03 377.952H700.568V381.482H704.03V377.952Z" fill="white"/>
<path d="M693.959 385.206H690.952V388.283H693.959V385.206Z" fill="white"/>
<path d="M699.589 384.85H696.582V387.926H699.589V384.85Z" fill="white"/>
<path d="M704.344 384.656H701.337V387.732H704.344V384.656Z" fill="white"/>
<path d="M694.169 391.294H690.287V395.278H694.169V391.294Z" fill="white"/>
<path d="M692.875 412.83H688.994V416.813H692.875V412.83Z" fill="white"/>
<path d="M697.491 441.263H693.609V445.246H697.491V441.263Z" fill="white"/>
<path d="M678.154 472.675H674.272V476.658H678.154V472.675Z" fill="white"/>
<path d="M685.392 482.455H681.511V486.438H685.392V482.455Z" fill="white"/>
<path d="M700.113 392.039H697.106V395.116H700.113V392.039Z" fill="white"/>
<path d="M678.678 420.828H675.671V423.905H678.678V420.828Z" fill="white"/>
<path d="M685.007 426.755H682V429.831H685.007V426.755Z" fill="white"/>
<path d="M704.869 391.845H701.897V394.921H704.869V391.845Z" fill="white"/>
<path d="M693.539 402.953H690.078V406.515H693.539V402.953Z" fill="white"/>
<path d="M680.811 378.179H677.979V381.061H680.811V378.179Z" fill="white"/>
<path d="M686.966 377.952H683.504V381.482H686.966V377.952Z" fill="white"/>
<path d="M681.371 371.346H678.573V374.228H681.371V371.346Z" fill="white"/>
<path d="M687.525 371.119H684.063V374.681H687.525V371.119Z" fill="white"/>
<path d="M693.959 363.93H690.497V367.492H693.959V363.93Z" fill="white"/>
<path d="M698.715 363.93H695.917V366.812H698.715V363.93Z" fill="white"/>
<path d="M704.904 363.703H701.442V367.266H704.904V363.703Z" fill="white"/>
<path d="M676.895 363.93H673.433V367.492H676.895V363.93Z" fill="white"/>
<path d="M681.651 363.93H678.853V366.812H681.651V363.93Z" fill="white"/>
<path d="M687.84 363.736H684.378V367.298H687.84V363.736Z" fill="white"/>
<path d="M698.365 398.354H695.393V401.431H698.365V398.354Z" fill="white"/>
<path d="M690.462 432.972H687.49V436.049H690.462V432.972Z" fill="white"/>
<path d="M697.98 423.516H694.973V426.593H697.98V423.516Z" fill="white"/>
<path d="M700.008 456.095H697.001V459.171H700.008V456.095Z" fill="white"/>
<path d="M704.065 398.03H701.057V401.107H704.065V398.03Z" fill="white"/>
<path d="M687.315 384.656H684.308V387.732H687.315V384.656Z" fill="white"/>
<path d="M686.406 389.578H683.399V392.655H686.406V389.578Z" fill="white"/>
<path d="M699.204 413.348H695.323V417.331H699.204V413.348Z" fill="white"/>
<path d="M704.589 405.219H701.582V408.296H704.589V405.219Z" fill="white"/>
<path d="M704.239 419.209H701.267V422.286H704.239V419.209Z" fill="white"/>
<path d="M678.119 432.713H674.657V436.276H678.119V432.713Z" fill="white"/>
<path d="M678.434 439.449H675.426V442.526H678.434V439.449Z" fill="white"/>
<path d="M678.049 445.991H675.077V449.067H678.049V445.991Z" fill="white"/>
<path d="M777.74 285.917H773.439V290.321H777.74V285.917Z" fill="white"/>
<path d="M783.65 285.917H780.153V289.479H783.65V285.917Z" fill="white"/>
<path d="M791.273 285.658H786.972V290.062H791.273V285.658Z" fill="white"/>
<path d="M778.79 294.629H775.048V298.417H778.79V294.629Z" fill="white"/>
<path d="M845.472 245.891H841.206V250.295H845.472V245.891Z" fill="white"/>
<path d="M851.381 245.891H847.885V249.453H851.381V245.891Z" fill="white"/>
<path d="M845.402 252.562H841.696V256.351H845.402V252.562Z" fill="white"/>
<path d="M785.748 294.24H782.042V298.029H785.748V294.24Z" fill="white"/>
<path d="M791.657 293.981H787.951V297.77H791.657V293.981Z" fill="white"/>
<path d="M939.604 198.546H935.303V202.95H939.604V198.546Z" fill="white"/>
<path d="M945.478 198.546H942.016V202.14H945.478V198.546Z" fill="white"/>
<path d="M953.136 198.286H948.835V202.691H953.136V198.286Z" fill="white"/>
<path d="M1111.96 240.386H1108.46V243.948H1111.96V240.386Z" fill="white"/>
<path d="M1119.55 240.126H1115.28V244.531H1119.55V240.126Z" fill="white"/>
<path d="M1111.15 275.619H1107.66V279.214H1111.15V275.619Z" fill="white"/>
<path d="M1118.78 275.328H1114.47V279.732H1118.78V275.328Z" fill="white"/>
<path d="M940.653 207.257H936.946V211.078H940.653V207.257Z" fill="white"/>
<path d="M1066.05 273.126H1061.74V277.53H1066.05V273.126Z" fill="white"/>
<path d="M1071.92 273.126H1068.42V276.688H1071.92V273.126Z" fill="white"/>
<path d="M1067.06 281.837H1063.35V285.658H1067.06V281.837Z" fill="white"/>
<path d="M947.646 206.868H943.94V210.657H947.646V206.868Z" fill="white"/>
<path d="M915.721 328.891H912.015V332.68H915.721V328.891Z" fill="white"/>
<path d="M922.715 328.47H919.008V332.291H922.715V328.47Z" fill="white"/>
<path d="M953.521 206.609H949.814V210.398H953.521V206.609Z" fill="white"/>
<path d="M1389.14 231.318H1384.84V235.722H1389.14V231.318Z" fill="white"/>
<path d="M1398.55 230.476H1394.04V235.107H1398.55V230.476Z" fill="white"/>
<path d="M1404.7 229.828H1400.44V234.233H1404.7V229.828Z" fill="white"/>
<path d="M1424.53 373.321H1420.23V377.726H1424.53V373.321Z" fill="white"/>
<path d="M1431.77 371.929H1427.26V376.592H1431.77V371.929Z" fill="white"/>
<path d="M1438.03 373.062H1433.76V377.466H1438.03V373.062Z" fill="white"/>
<path d="M1362.71 215.741H1358.44V220.146H1362.71V215.741Z" fill="white"/>
<path d="M1369.98 214.317H1365.47V218.947H1369.98V214.317Z" fill="white"/>
<path d="M1376.2 215.45H1371.94V219.854H1376.2V215.45Z" fill="white"/>
<path d="M1361.27 287.796H1357.78V291.423H1361.27V287.796Z" fill="white"/>
<path d="M1367.22 286.63H1363.51V290.451H1367.22V286.63Z" fill="white"/>
<path d="M1372.36 287.569H1368.86V291.196H1372.36V287.569Z" fill="white"/>
<path d="M1324.17 325.199H1319.91V329.603H1324.17V325.199Z" fill="white"/>
<path d="M1331.45 323.774H1326.9V328.405H1331.45V323.774Z" fill="white"/>
<path d="M1337.71 324.907H1333.4V329.312H1337.71V324.907Z" fill="white"/>
<path d="M1393.27 239.22H1388.51V244.077H1393.27V239.22Z" fill="white"/>
<path d="M1366.48 261.565H1362.5V265.645H1366.48V261.565Z" fill="white"/>
<path d="M1405.47 236.953H1400.72V241.81H1405.47V236.953Z" fill="white"/>
<path d="M1393.27 161.79H1388.51V166.647H1393.27V161.79Z" fill="white"/>
<path d="M1400.44 161.79H1396.45V165.87H1400.44V161.79Z" fill="white"/>
<path d="M1387.25 205.055H1382.5V209.912H1387.25V205.055Z" fill="white"/>
<path d="M1377.18 173.545H1372.43V178.403H1377.18V173.545Z" fill="white"/>
<path d="M1384.35 173.513H1380.37V177.593H1384.35V173.513Z" fill="white"/>
<path d="M1389.28 197.445H1394L1394.04 192.587L1389.28 192.555V197.445Z" fill="white"/>
<path d="M1167.59 184.264H1164.09V187.827H1167.59V184.264Z" fill="white"/>
<path d="M1175.21 184.005H1170.91V188.409H1175.21V184.005Z" fill="white"/>
<path d="M1169.72 192.587H1166.02V196.376H1169.72V192.587Z" fill="white"/>
<path d="M1175.6 192.36H1171.89V196.182H1175.6V192.36Z" fill="white"/>
<path d="M1145.46 272.413H1141.19V277.757H1145.46V272.413Z" fill="white"/>
<path d="M1154.93 273.028H1151.68V276.85H1154.93V273.028Z" fill="white"/>
<path d="M1178.25 313.994H1173.25V318.949H1178.25V313.994Z" fill="white"/>
<path d="M1154.79 281.027H1149.76V286.176H1154.79V281.027Z" fill="white"/>
<path d="M1106.96 317.751H1103.15V321.637H1106.96V317.751Z" fill="white"/>
<path d="M1115.24 317.427H1110.59V322.22H1115.24V317.427Z" fill="white"/>
<path d="M1109.26 326.753H1105.24V330.898H1109.26V326.753Z" fill="white"/>
<path d="M1115.66 326.494H1111.64V330.639H1115.66V326.494Z" fill="white"/>
<path d="M840.542 306.546H836.835V310.367H840.542V306.546Z" fill="white"/>
<path d="M847.535 306.125H843.829V309.914H847.535V306.125Z" fill="white"/>
<path d="M853.445 305.898H849.738V309.719H853.445V305.898Z" fill="white"/>
<path d="M867.711 319.014H864.005V322.835H867.711V319.014Z" fill="white"/>
<path d="M874.705 318.593H870.998V322.414H874.705V318.593Z" fill="white"/>
<path d="M880.614 318.366H876.907V322.155H880.614V318.366Z" fill="white"/>
<path d="M779.069 302.174H774.244V307.129H779.069V302.174Z" fill="white"/>
<path d="M786.377 303.113H782.671V306.934H786.377V303.113Z" fill="white"/>
<path d="M759.837 338.768H756.131V342.589H759.837V338.768Z" fill="white"/>
<path d="M767.705 346.119H763.999V349.908H767.705V346.119Z" fill="white"/>
<path d="M792.322 302.886H788.615V306.675H792.322V302.886Z" fill="white"/>
<path d="M756.62 285.917H752.319V290.321H756.62V285.917Z" fill="white"/>
<path d="M762.495 285.917H758.998V289.512H762.495V285.917Z" fill="white"/>
<path d="M770.118 285.658H765.852V290.062H770.118V285.658Z" fill="white"/>
<path d="M832.814 245.697H828.513V250.101H832.814V245.697Z" fill="white"/>
<path d="M838.688 245.697H835.192V249.259H838.688V245.697Z" fill="white"/>
<path d="M1396.9 98.9004H1392.64V103.305H1396.9V98.9004Z" fill="white"/>
<path d="M1405.3 99.2566H1401.83V102.851H1405.3V99.2566Z" fill="white"/>
<path d="M825.226 245.437H820.925V249.842H825.226V245.437Z" fill="white"/>
<path d="M784.279 310.95H780.573V314.739H784.279V310.95Z" fill="white"/>
<path d="M774.489 353.826H770.782V357.648H774.489V353.826Z" fill="white"/>
<path d="M783.79 342.071H780.083V345.86H783.79V342.071Z" fill="white"/>
<path d="M786.272 382.421H782.566V386.243H786.272V382.421Z" fill="white"/>
<path d="M791.273 310.529H787.566V314.35H791.273V310.529Z" fill="white"/>
<path d="M940.093 214.381H935.792V218.753H940.093V214.381Z" fill="white"/>
<path d="M946.003 214.381H942.506V217.944H946.003V214.381Z" fill="white"/>
<path d="M953.626 214.122H949.36V218.526H953.626V214.122Z" fill="white"/>
<path d="M941.107 223.093H937.401V226.914H941.107V223.093Z" fill="white"/>
<path d="M948.136 222.672H944.429V226.493H948.136V222.672Z" fill="white"/>
<path d="M954.01 222.445H950.304V226.234H954.01V222.445Z" fill="white"/>
<path d="M918.099 244.142H914.392V247.931H918.099V244.142Z" fill="white"/>
<path d="M941.387 230.638H936.596V235.56H941.387V230.638Z" fill="white"/>
<path d="M948.765 231.577H945.059V235.366H948.765V231.577Z" fill="white"/>
<path d="M954.675 231.318H950.968V235.139H954.675V231.318Z" fill="white"/>
<path d="M946.667 239.414H942.961V243.203H946.667V239.414Z" fill="white"/>
<path d="M953.661 238.993H949.954V242.782H953.661V238.993Z" fill="white"/>
<path d="M917.959 197.801H913.168V202.755H917.959V197.801Z" fill="white"/>
<path d="M925.337 198.707H921.631V202.529H925.337V198.707Z" fill="white"/>
<path d="M931.247 198.481H927.54V202.27H931.247V198.481Z" fill="white"/>
<path d="M922.784 206.577H919.987V210.366H922.784V206.577Z" fill="white"/>
<path d="M917.679 212.6H914.882V216.389H917.679V212.6Z" fill="white"/>
<path d="M925.932 216.324H923.169V220.146H925.932V216.324Z" fill="white"/>
<path d="M931.561 223.19H928.799V227.011H931.561V223.19Z" fill="white"/>
<path d="M953.8 246.862H951.038V250.651H953.8V246.862Z" fill="white"/>
<path d="M953.556 260.075H950.758V263.896H953.556V260.075Z" fill="white"/>
<path d="M930.232 206.156H926.526V209.977H930.232V206.156Z" fill="white"/>
<path d="M770.537 293.981H766.831V297.77H770.537V293.981Z" fill="white"/>
<path d="M763.404 301.332H759.698V305.121H763.404V301.332Z" fill="white"/>
<path d="M785.293 329.474H780.503V334.396H785.293V329.474Z" fill="white"/>
<path d="M867.117 291.39H863.41V295.179H867.117V291.39Z" fill="white"/>
<path d="M873.935 299.065H870.229V302.886H873.935V299.065Z" fill="white"/>
<path d="M883.202 287.342H879.495V291.163H883.202V287.342Z" fill="white"/>
<path d="M884.74 274.745H879.915V279.7H884.74V274.745Z" fill="white"/>
<path d="M1031.95 315.225H1028.25V319.046H1031.95V315.225Z" fill="white"/>
<path d="M1038.74 322.932H1035.03V326.721H1038.74V322.932Z" fill="white"/>
<path d="M1048.04 311.177H1044.3V314.966H1048.04V311.177Z" fill="white"/>
<path d="M1049.54 298.579H1044.75V303.502H1049.54V298.579Z" fill="white"/>
<path d="M916.7 271.085H912.994V274.874H916.7V271.085Z" fill="white"/>
<path d="M918.169 258.488H913.378V263.443H918.169V258.488Z" fill="white"/>
<path d="M791.937 319.402H788.231V323.223H791.937V319.402Z" fill="white"/>
<path d="M845.577 273.482H841.87V277.303H845.577V273.482Z" fill="white"/>
<path d="M840.332 282.582H836.625V286.371H840.332V282.582Z" fill="white"/>
<path d="M851.032 276.72H847.325V280.542H851.032V276.72Z" fill="white"/>
<path d="M851.312 286.306H847.605V290.127H851.312V286.306Z" fill="white"/>
<path d="M834.947 258.002H831.24V261.824H834.947V258.002Z" fill="white"/>
<path d="M846.241 282.355H842.535V286.176H846.241V282.355Z" fill="white"/>
<path d="M845.192 289.998H841.486V293.819H845.192V289.998Z" fill="white"/>
<path d="M845.857 298.903H842.15V302.724H845.857V298.903Z" fill="white"/>
<path d="M769.838 311.986H766.131V315.775H769.838V311.986Z" fill="white"/>
<path d="M918.728 235.949H913.938V240.871H918.728V235.949Z" fill="white"/>
<path d="M926.106 236.888H922.4V240.709H926.106V236.888Z" fill="white"/>
<path d="M931.981 236.661H928.274V240.45H931.981V236.661Z" fill="white"/>
<path d="M937.156 253.177H932.331V258.1H937.156V253.177Z" fill="white"/>
<path d="M942.471 275.49H938.764V279.279H942.471V275.49Z" fill="white"/>
<path d="M930.722 287.601H927.015V291.39H930.722V287.601Z" fill="white"/>
<path d="M923.449 295.309H919.742V299.13H923.449V295.309Z" fill="white"/>
<path d="M914.637 321.993H910.931V325.814H914.637V321.993Z" fill="white"/>
<path d="M913.833 311.533H910.126V315.354H913.833V311.533Z" fill="white"/>
<path d="M927.715 265.515H924.008V269.304H927.715V265.515Z" fill="white"/>
<path d="M932.4 300.36H927.61V305.283H932.4V300.36Z" fill="white"/>
<path d="M939.744 301.267H936.037V305.056H939.744V301.267Z" fill="white"/>
<path d="M945.653 301.041H941.947V304.829H945.653V301.041Z" fill="white"/>
<path d="M1033.91 381.029H1029.92V385.141H1033.91V381.029Z" fill="white"/>
<path d="M1040.06 381.774H1036.99V384.947H1040.06V381.774Z" fill="white"/>
<path d="M1044.99 381.579H1041.92V384.753H1044.99V381.579Z" fill="white"/>
<path d="M1067.55 299.94H1063.84V303.761H1067.55V299.94Z" fill="white"/>
<path d="M1073.46 299.713H1069.75V303.502H1073.46V299.713Z" fill="white"/>
<path d="M1307.32 308.748H1303.05V313.152H1307.32V308.748Z" fill="white"/>
<path d="M1317.25 289.512H1313.79V293.107H1317.25V289.512Z" fill="white"/>
<path d="M1308.37 317.492H1304.66V321.28H1308.37V317.492Z" fill="white"/>
<path d="M1308.86 335.562H1305.15V339.351H1308.86V335.562Z" fill="white"/>
<path d="M1342.95 391.035H1339.24V394.857H1342.95V391.035Z" fill="white"/>
<path d="M1069.44 372.868H1065.73V376.689H1069.44V372.868Z" fill="white"/>
<path d="M1075.35 372.641H1071.64V376.43H1075.35V372.641Z" fill="white"/>
<path d="M1111.61 368.723H1108.6V372.544H1111.61V368.723Z" fill="white"/>
<path d="M1116.33 368.496H1113.32V372.317H1116.33V368.496Z" fill="white"/>
<path d="M1151.64 353.341H1148.67V357.129H1151.64V353.341Z" fill="white"/>
<path d="M1156.4 353.081H1153.43V356.87H1156.4V353.081Z" fill="white"/>
<path d="M1375.16 296.442H1372.18V300.231H1375.16V296.442Z" fill="white"/>
<path d="M1379.91 296.183H1376.94V300.004H1379.91V296.183Z" fill="white"/>
<path d="M1228.68 283.003H1225.67V286.792H1228.68V283.003Z" fill="white"/>
<path d="M1233.43 282.776H1230.43V286.565H1233.43V282.776Z" fill="white"/>
<path d="M1197.87 302.044H1193.75V307.323H1197.87V302.044Z" fill="white"/>
<path d="M1204.41 301.721H1200.32V306.967H1204.41V301.721Z" fill="white"/>
<path d="M1168.18 370.277H1164.79V374.584H1168.18V370.277Z" fill="white"/>
<path d="M1174.51 370.115H1170.35V376.268H1174.51V370.115Z" fill="white"/>
<path d="M1313.75 361.501H1309.63V366.747H1313.75V361.501Z" fill="white"/>
<path d="M1308.82 369.727H1305.19V374.779H1308.82V369.727Z" fill="white"/>
<path d="M1237.1 351.98H1232.98V357.227H1237.1V351.98Z" fill="white"/>
<path d="M1223.99 362.376H1220.36V367.46H1223.99V362.376Z" fill="white"/>
<path d="M1030.2 288.022H1025.38V292.945H1030.2V288.022Z" fill="white"/>
<path d="M1037.55 288.929H1033.84V292.718H1037.55V288.929Z" fill="white"/>
<path d="M1043.46 288.702H1039.75V292.524H1043.46V288.702Z" fill="white"/>
<path d="M1028.7 349.228H1023.91V354.15H1028.7V349.228Z" fill="white"/>
<path d="M1036.08 350.135H1032.37V353.956H1036.08V350.135Z" fill="white"/>
<path d="M1041.99 349.908H1038.28V353.697H1041.99V349.908Z" fill="white"/>
<path d="M1168.81 241.875H1163.85V246.959H1168.81V241.875Z" fill="white"/>
<path d="M1176.68 241.551H1171.75V246.636H1176.68V241.551Z" fill="white"/>
<path d="M759.173 353.47H754.872V357.874H759.173V353.47Z" fill="white"/>
<path d="M759.558 361.793H755.851V365.614H759.558V361.793Z" fill="white"/>
<path d="M759.138 369.953H755.431V373.775H759.138V369.953Z" fill="white"/>
<path d="M1377.71 152.755H1372.64V158.066H1377.71V152.755Z" fill="white"/>
<path d="M1369.81 152.755H1365.68V157.062H1369.81V152.755Z" fill="white"/>
<path d="M1361.73 152.431H1356.69V157.742H1361.73V152.431Z" fill="white"/>
<path d="M1375.82 163.247H1371.45V167.846H1375.82V163.247Z" fill="white"/>
<path d="M1367.57 162.761H1363.2V167.36H1367.57V162.761Z" fill="white"/>
<path d="M1360.61 162.47H1356.24V167.036H1360.61V162.47Z" fill="white"/>
<path d="M1379.14 193.137H1373.48V199.096H1379.14V193.137Z" fill="white"/>
<path d="M1366.8 173.448H1362.43V178.047H1366.8V173.448Z" fill="white"/>
<path d="M1398.09 216.421H1393.72V221.02H1398.09V216.421Z" fill="white"/>
<path d="M1388.79 225.262H1384.42V229.828H1388.79V225.262Z" fill="white"/>
<path d="M1359.8 173.157H1355.43V177.723H1359.8V173.157Z" fill="white"/>
<path d="M1402.6 152.755H1397.53V158.066H1402.6V152.755Z" fill="white"/>
<path d="M1394.7 152.755H1390.58V157.062H1394.7V152.755Z" fill="white"/>
<path d="M1386.66 152.431H1381.59V157.742H1386.66V152.431Z" fill="white"/>
<path d="M1369.28 182.904H1364.91V187.47H1369.28V182.904Z" fill="white"/>
<path d="M1380.82 234.524H1376.45V239.09H1380.82V234.524Z" fill="white"/>
<path d="M1369.88 220.405H1365.5V224.971H1369.88V220.405Z" fill="white"/>
<path d="M1366.94 268.98H1362.57V273.579H1366.94V268.98Z" fill="white"/>
<path d="M1361.03 182.418H1356.66V186.985H1361.03V182.418Z" fill="white"/>
<path d="M1385.47 162.47H1381.1V167.036H1385.47V162.47Z" fill="white"/>
<path d="M1400.96 171.052H1396.59V175.618H1400.96V171.052Z" fill="white"/>
<path d="M1369.39 205.249H1363.72V211.175H1369.39V205.249Z" fill="white"/>
<path d="M1360.26 193.073H1355.89V197.671H1360.26V193.073Z" fill="white"/>
<path d="M1386.31 184.167H1381.94V188.733H1386.31V184.167Z" fill="white"/>
<path d="M1369.95 226.784H1364.87V232.095H1369.95V226.784Z" fill="white"/>
<path d="M1399.88 245.988H1395.51V250.554H1399.88V245.988Z" fill="white"/>
<path d="M1398.93 253.954H1394.56V258.521H1398.93V253.954Z" fill="white"/>
<path d="M1163.08 251.623H1158.78V256.027H1163.08V251.623Z" fill="white"/>
<path d="M1168.95 251.623H1165.46V255.217H1168.95V251.623Z" fill="white"/>
<path d="M1176.58 251.364H1172.31V255.768H1176.58V251.364Z" fill="white"/>
<path d="M1164.09 260.334H1160.39V264.123H1164.09V260.334Z" fill="white"/>
<path d="M1171.09 259.913H1167.38V263.702H1171.09V259.913Z" fill="white"/>
<path d="M1177 259.686H1173.29V263.508H1177V259.686Z" fill="white"/>
<path d="M1164.37 267.879H1159.58V272.802H1164.37V267.879Z" fill="white"/>
<path d="M1162.76 294.564H1157.97V299.486H1162.76V294.564Z" fill="white"/>
<path d="M1168.5 329.765H1163.71V334.687H1168.5V329.765Z" fill="white"/>
<path d="M1144.55 368.658H1139.76V373.58H1144.55V368.658Z" fill="white"/>
<path d="M1153.46 380.77H1148.67V385.692H1153.46V380.77Z" fill="white"/>
<path d="M1171.75 268.819H1168.01V272.607H1171.75V268.819Z" fill="white"/>
<path d="M1145.18 304.473H1141.47V308.295H1145.18V304.473Z" fill="white"/>
<path d="M1153.04 311.824H1149.34V315.646H1153.04V311.824Z" fill="white"/>
<path d="M1177.63 268.559H1173.92V272.381H1177.63V268.559Z" fill="white"/>
<path d="M1163.57 282.355H1159.3V286.759H1163.57V282.355Z" fill="white"/>
<path d="M1147.83 251.623H1144.34V255.217H1147.83V251.623Z" fill="white"/>
<path d="M1155.49 251.364H1151.19V255.768H1155.49V251.364Z" fill="white"/>
<path d="M1148.57 243.171H1145.07V246.733H1148.57V243.171Z" fill="white"/>
<path d="M1156.16 242.911H1151.89V247.316H1156.16V242.911Z" fill="white"/>
<path d="M1164.13 234.006H1159.86V238.41H1164.13V234.006Z" fill="white"/>
<path d="M1170 234.006H1166.54V237.601H1170V234.006Z" fill="white"/>
<path d="M1177.66 233.747H1173.39V238.151H1177.66V233.747Z" fill="white"/>
<path d="M1143.01 234.006H1138.71V238.41H1143.01V234.006Z" fill="white"/>
<path d="M1148.92 234.006H1145.42V237.601H1148.92V234.006Z" fill="white"/>
<path d="M1156.54 233.747H1152.24V238.151H1156.54V233.747Z" fill="white"/>
<path d="M1169.62 276.655H1165.91V280.444H1169.62V276.655Z" fill="white"/>
<path d="M1159.83 319.532H1156.12V323.321H1159.83V319.532Z" fill="white"/>
<path d="M1169.09 307.776H1165.39V311.565H1169.09V307.776Z" fill="white"/>
<path d="M1171.61 348.127H1167.9V351.948H1171.61V348.127Z" fill="white"/>
<path d="M1176.61 276.234H1172.9V280.023H1176.61V276.234Z" fill="white"/>
<path d="M1155.88 259.686H1152.17V263.508H1155.88V259.686Z" fill="white"/>
<path d="M1154.72 265.774H1151.02V269.596H1154.72V265.774Z" fill="white"/>
<path d="M1170.6 295.179H1165.81V300.101H1170.6V295.179Z" fill="white"/>
<path d="M1177.28 285.108H1173.57V288.929H1177.28V285.108Z" fill="white"/>
<path d="M1176.89 302.465H1173.18V306.254H1176.89V302.465Z" fill="white"/>
<path d="M1144.51 319.176H1140.21V323.58H1144.51V319.176Z" fill="white"/>
<path d="M1144.9 327.498H1141.19V331.319H1144.9V327.498Z" fill="white"/>
<path d="M1144.48 335.659H1140.77V339.48H1144.48V335.659Z" fill="white"/>
<path d="M808.791 363.38H805.085V367.168H808.791V363.38Z" fill="white"/>
<path d="M816.659 370.698H812.952V374.52H816.659V370.698Z" fill="white"/>
<path d="M823.408 378.406H819.701V382.194H823.408V378.406Z" fill="white"/>
<path d="M832.709 366.683H829.002V370.472H832.709V366.683Z" fill="white"/>
<path d="M834.213 354.085H829.422V359.008H834.213V354.085Z" fill="white"/>
<path d="M840.577 273.514H836.311V277.918H840.577V273.514Z" fill="white"/>
<path d="M851.591 253.728H847.29V258.132H851.591V253.728Z" fill="white"/>
<path d="M851.941 260.334H847.64V264.738H851.941V260.334Z" fill="white"/>
<path d="M851.941 267.297H847.64V271.701H851.941V267.297Z" fill="white"/>
<path d="M832.289 251.558H828.023V255.962H832.289V251.558Z" fill="white"/>
<path d="M826.939 258.877H822.638V263.281H826.939V258.877Z" fill="white"/>
<path d="M1406.49 106.899H1402.18V111.303H1406.49V106.899Z" fill="white"/>
<path d="M843.793 360.789H840.087V364.61H843.793V360.789Z" fill="white"/>
<path d="M808.092 394.533H804.385V398.322H808.092V394.533Z" fill="white"/>
<path d="M1395.86 121.666H1391.55V126.07H1395.86V121.666Z" fill="white"/>
<path d="M1401.77 121.666H1398.27V125.261H1401.77V121.666Z" fill="white"/>
<path d="M1409.39 121.407H1405.09V125.811H1409.39V121.407Z" fill="white"/>
<path d="M818.757 275.198H815.051V279.02H818.757V275.198Z" fill="white"/>
<path d="M825.785 274.777H822.079V278.599H825.785V274.777Z" fill="white"/>
<path d="M813.127 282.064H808.826V286.468H813.127V282.064Z" fill="white"/>
<path d="M818.338 288.994H814.841V292.588H818.338V288.994Z" fill="white"/>
<path d="M825.226 282.161H820.925V286.565H825.226V282.161Z" fill="white"/>
<path d="M823.792 289.156H820.086V292.945H823.792V289.156Z" fill="white"/>
<path d="M829.877 295.114H826.17V298.903H829.877V295.114Z" fill="white"/>
<path d="M822.359 312.893H818.093V317.297H822.359V312.893Z" fill="white"/>
<path d="M828.688 318.334H825.191V321.928H828.688V318.334Z" fill="white"/>
<path d="M835.926 312.602H831.625V317.006H835.926V312.602Z" fill="white"/>
<path d="M850.962 315.678H847.255V319.467H850.962V315.678Z" fill="white"/>
<path d="M840.052 319.532H836.345V323.353H840.052V319.532Z" fill="white"/>
<path d="M827.394 326.818H823.093V331.222H827.394V326.818Z" fill="white"/>
<path d="M832.639 333.748H829.142V337.31H832.639V333.748Z" fill="white"/>
<path d="M840.926 326.559H836.625V330.963H840.926V326.559Z" fill="white"/>
<path d="M821.659 341.358H817.953V345.18H821.659V341.358Z" fill="white"/>
<path d="M844.143 339.869H840.437V343.658H844.143V339.869Z" fill="white"/>
<path d="M840.577 258.618H836.87V262.439H840.577V258.618Z" fill="white"/>
<path d="M808.512 333.554H803.721V338.476H808.512V333.554Z" fill="white"/>
<path d="M815.855 334.493H812.148V338.314H815.855V334.493Z" fill="white"/>
<path d="M821.764 334.234H818.093V338.055H821.764V334.234Z" fill="white"/>
<path d="M873.271 357.291H868.48V362.214H873.271V357.291Z" fill="white"/>
<path d="M880.649 358.23H876.942V362.019H880.649V358.23Z" fill="white"/>
<path d="M886.558 357.971H882.852V361.793H886.558V357.971Z" fill="white"/>
<path d="M885.02 260.431H880.229V265.354H885.02V260.431Z" fill="white"/>
<path d="M892.363 261.37H888.656V265.159H892.363V261.37Z" fill="white"/>
<path d="M898.307 261.111H894.601V264.933H898.307V261.111Z" fill="white"/>
<path d="M1427.36 275.101H1422.89V279.7H1427.36V275.101Z" fill="white"/>
<path d="M1430.12 285.788H1425.37V290.678H1430.12V285.788Z" fill="white"/>
<path d="M1446.35 226.525H1441.63V231.383H1446.35V226.525Z" fill="white"/>
<path d="M1430.96 297.187H1426.21V302.077H1430.96V297.187Z" fill="white"/>
<path d="M579.477 394.015V379.928H538.67V360.854H510.801V357.324H491.534V320.082H492.548V316.617H441.811V320.082H442.405V406.126H433.139V271.215H380.478V235.787H383.59V232.192H316.488V235.787H318.516V251.59H281.521V188.798H161.234V271.215H130.637V253.76H80.0749V230.152H45.5623V225.813H21.7146C21.7146 225.813 1.60849 225.813 0 225.813V547.968H598.708V393.982H579.477V394.015Z" fill="#06AEBD" fill-opacity="0.6"/>
<path d="M534.963 369.079H532.166V371.961H534.963V369.079Z" fill="white"/>
<path d="M529.473 368.852H526.012V372.415H529.473V368.852Z" fill="white"/>
<path d="M535.628 397.512H532.83V400.427H535.628V397.512Z" fill="white"/>
<path d="M530.103 397.318H526.641V400.848H530.103V397.318Z" fill="white"/>
<path d="M572.693 395.537H569.231V399.067H572.693V395.537Z" fill="white"/>
<path d="M567.308 395.537H564.475V398.419H567.308V395.537Z" fill="white"/>
<path d="M571.399 402.564H568.392V405.64H571.399V402.564Z" fill="white"/>
<path d="M490.03 323.806H487.233V326.689H490.03V323.806Z" fill="white"/>
<path d="M484.541 323.58H481.079V327.142H484.541V323.58Z" fill="white"/>
<path d="M488.527 330.477H485.52V333.554H488.527V330.477Z" fill="white"/>
<path d="M483.736 330.283H480.764V333.36H483.736V330.283Z" fill="white"/>
<path d="M508.528 394.954H505.101V399.293H508.528V394.954Z" fill="white"/>
<path d="M500.066 395.44H497.443V398.516H500.066V395.44Z" fill="white"/>
<path d="M482.652 428.504H478.631V432.519H482.652V428.504Z" fill="white"/>
<path d="M501.604 401.884H497.548V406.029H501.604V401.884Z" fill="white"/>
<path d="M539.229 431.548H536.187V434.689H539.229V431.548Z" fill="white"/>
<path d="M533.25 431.321H529.473V435.175H533.25V431.321Z" fill="white"/>
<path d="M537.586 438.834H534.334V442.202H537.586V438.834Z" fill="white"/>
<path d="M532.376 438.607H529.124V441.943H532.376V438.607Z" fill="white"/>
<path d="M594.268 435.725H591.26V438.802H594.268V435.725Z" fill="white"/>
<path d="M586.785 426.269H583.777V429.345H586.785V426.269Z" fill="white"/>
<path d="M586.435 416.068H582.554V420.051H586.435V416.068Z" fill="white"/>
<path d="M598.359 482.649H595.142V485.985H598.359V482.649Z" fill="white"/>
<path d="M592.694 483.265H590.211V485.823H592.694V483.265Z" fill="white"/>
<path d="M588.708 483.103H586.225V485.661H588.708V483.103Z" fill="white"/>
<path d="M570.979 417.169H568.007V420.246H570.979V417.169Z" fill="white"/>
<path d="M566.224 416.975H563.252V420.051H566.224V416.975Z" fill="white"/>
<path d="M569.476 476.043H566.469V479.119H569.476V476.043Z" fill="white"/>
<path d="M564.685 475.849H561.713V478.925H564.685V475.849Z" fill="white"/>
<path d="M534.858 472.74H532.446V475.816H534.858V472.74Z" fill="white"/>
<path d="M531.047 472.513H528.634V475.59H531.047V472.513Z" fill="white"/>
<path d="M502.514 460.272H500.101V463.349H502.514V460.272Z" fill="white"/>
<path d="M498.667 460.078H496.255V463.154H498.667V460.078Z" fill="white"/>
<path d="M466.113 418.885H462.791V423.128H466.113V418.885Z" fill="white"/>
<path d="M460.833 418.626H457.511V422.869H460.833V418.626Z" fill="white"/>
<path d="M489.471 473.938H486.743V477.436H489.471V473.938Z" fill="white"/>
<path d="M484.995 473.809H481.638V478.796H484.995V473.809Z" fill="white"/>
<path d="M434.432 459.203H431.111V463.446H434.432V459.203Z" fill="white"/>
<path d="M444.643 467.591H441.671V471.671H444.643V467.591Z" fill="white"/>
<path d="M595.212 408.296H592.24V411.372H595.212V408.296Z" fill="white"/>
<path d="M590.456 408.102H587.449V411.178H590.456V408.102Z" fill="white"/>
<path d="M596.436 457.714H593.428V460.79H596.436V457.714Z" fill="white"/>
<path d="M591.645 457.519H588.638V460.596H591.645V457.519Z" fill="white"/>
<path d="M490.205 370.31H486.219V374.39H490.205V370.31Z" fill="white"/>
<path d="M483.841 370.051H479.855V374.163H483.841V370.051Z" fill="white"/>
<path d="M494.331 378.147H490.87V381.709H494.331V378.147Z" fill="white"/>
<path d="M488.911 378.147H486.114V381.029H488.911V378.147Z" fill="white"/>
<path d="M483.421 377.952H479.96V381.482H483.421V377.952Z" fill="white"/>
<path d="M493.072 385.206H490.065V388.283H493.072V385.206Z" fill="white"/>
<path d="M487.408 384.85H484.401V387.926H487.408V384.85Z" fill="white"/>
<path d="M482.652 384.656H479.645V387.732H482.652V384.656Z" fill="white"/>
<path d="M493.702 391.294H489.821V395.278H493.702V391.294Z" fill="white"/>
<path d="M494.996 412.83H491.114V416.813H494.996V412.83Z" fill="white"/>
<path d="M490.38 441.263H486.499V445.246H490.38V441.263Z" fill="white"/>
<path d="M509.717 472.675H505.836V476.658H509.717V472.675Z" fill="white"/>
<path d="M502.479 482.455H498.597V486.438H502.479V482.455Z" fill="white"/>
<path d="M486.883 392.039H483.876V395.116H486.883V392.039Z" fill="white"/>
<path d="M508.318 420.828H505.311V423.905H508.318V420.828Z" fill="white"/>
<path d="M501.989 426.755H498.982V429.831H501.989V426.755Z" fill="white"/>
<path d="M482.128 391.845H479.121V394.921H482.128V391.845Z" fill="white"/>
<path d="M493.912 402.953H490.45V406.515H493.912V402.953Z" fill="white"/>
<path d="M505.975 378.179H503.178V381.061H505.975V378.179Z" fill="white"/>
<path d="M500.45 377.952H496.989V381.482H500.45V377.952Z" fill="white"/>
<path d="M505.451 371.346H502.619V374.228H505.451V371.346Z" fill="white"/>
<path d="M499.891 371.119H496.429V374.681H499.891V371.119Z" fill="white"/>
<path d="M493.457 363.93H489.995V367.492H493.457V363.93Z" fill="white"/>
<path d="M488.072 363.93H485.275V366.812H488.072V363.93Z" fill="white"/>
<path d="M482.547 363.703H479.086V367.266H482.547V363.703Z" fill="white"/>
<path d="M510.521 363.93H507.059V367.492H510.521V363.93Z" fill="white"/>
<path d="M505.101 363.93H502.304V366.812H505.101V363.93Z" fill="white"/>
<path d="M499.611 363.736H496.15V367.298H499.611V363.736Z" fill="white"/>
<path d="M488.597 398.354H485.589V401.431H488.597V398.354Z" fill="white"/>
<path d="M496.499 432.972H493.492V436.049H496.499V432.972Z" fill="white"/>
<path d="M489.016 423.516H486.009V426.593H489.016V423.516Z" fill="white"/>
<path d="M486.953 456.095H483.981V459.171H486.953V456.095Z" fill="white"/>
<path d="M482.897 398.03H479.925V401.107H482.897V398.03Z" fill="white"/>
<path d="M499.681 384.656H496.674V387.732H499.681V384.656Z" fill="white"/>
<path d="M500.59 389.578H497.583V392.655H500.59V389.578Z" fill="white"/>
<path d="M488.667 413.348H484.785V417.331H488.667V413.348Z" fill="white"/>
<path d="M482.407 405.219H479.4V408.296H482.407V405.219Z" fill="white"/>
<path d="M482.687 419.209H479.715V422.286H482.687V419.209Z" fill="white"/>
<path d="M509.332 432.713H505.87V436.276H509.332V432.713Z" fill="white"/>
<path d="M508.563 439.449H505.556V442.526H508.563V439.449Z" fill="white"/>
<path d="M508.913 445.991H505.905V449.067H508.913V445.991Z" fill="white"/>
<path d="M410.515 285.917H406.249V290.321H410.515V285.917Z" fill="white"/>
<path d="M403.836 285.917H400.339V289.479H403.836V285.917Z" fill="white"/>
<path d="M397.018 285.658H392.717V290.062H397.018V285.658Z" fill="white"/>
<path d="M408.941 294.629H405.235V298.417H408.941V294.629Z" fill="white"/>
<path d="M342.818 245.891H338.517V250.295H342.818V245.891Z" fill="white"/>
<path d="M336.07 245.891H332.608V249.453H336.07V245.891Z" fill="white"/>
<path d="M342.294 252.562H338.587V256.351H342.294V252.562Z" fill="white"/>
<path d="M401.948 294.24H398.241V298.029H401.948V294.24Z" fill="white"/>
<path d="M396.038 293.981H392.332V297.77H396.038V293.981Z" fill="white"/>
<path d="M248.687 198.546H244.386V202.95H248.687V198.546Z" fill="white"/>
<path d="M241.973 198.546H238.476V202.14H241.973V198.546Z" fill="white"/>
<path d="M235.154 198.286H230.853V202.691H235.154V198.286Z" fill="white"/>
<path d="M75.5291 240.386H72.0323V243.948H75.5291V240.386Z" fill="white"/>
<path d="M68.6755 240.126H64.4095V244.531H68.6755V240.126Z" fill="white"/>
<path d="M76.3683 275.619H72.8716V279.214H76.3683V275.619Z" fill="white"/>
<path d="M69.5147 275.328H65.2137V279.732H69.5147V275.328Z" fill="white"/>
<path d="M247.043 207.257H243.337V211.078H247.043V207.257Z" fill="white"/>
<path d="M122.245 273.126H117.944V277.53H122.245V273.126Z" fill="white"/>
<path d="M115.532 273.126H112.07V276.688H115.532V273.126Z" fill="white"/>
<path d="M120.637 281.837H116.93V285.658H120.637V281.837Z" fill="white"/>
<path d="M240.05 206.868H236.343V210.657H240.05V206.868Z" fill="white"/>
<path d="M271.975 328.891H268.268V332.68H271.975V328.891Z" fill="white"/>
<path d="M264.981 328.47H261.275V332.291H264.981V328.47Z" fill="white"/>
<path d="M234.14 206.609H230.434V210.398H234.14V206.609Z" fill="white"/>
<path d="M42.7998 272.413H38.5338V277.757H42.7998V272.413Z" fill="white"/>
<path d="M32.2747 273.028H29.0227V276.85H32.2747V273.028Z" fill="white"/>
<path d="M10.7349 313.994H5.76953V318.949H10.7349V313.994Z" fill="white"/>
<path d="M34.1979 281.027H29.1626V286.176H34.1979V281.027Z" fill="white"/>
<path d="M80.8092 317.751H77.0327V321.637H80.8092V317.751Z" fill="white"/>
<path d="M73.3961 317.427H68.7455V322.22H73.3961V317.427Z" fill="white"/>
<path d="M78.7461 326.753H74.7249V330.898H78.7461V326.753Z" fill="white"/>
<path d="M72.3121 326.494H68.2909V330.639H72.3121V326.494Z" fill="white"/>
<path d="M347.119 306.546H343.413V310.367H347.119V306.546Z" fill="white"/>
<path d="M340.126 306.125H336.419V309.914H340.126V306.125Z" fill="white"/>
<path d="M334.251 305.898H330.545V309.719H334.251V305.898Z" fill="white"/>
<path d="M319.985 319.014H316.278V322.835H319.985V319.014Z" fill="white"/>
<path d="M312.991 318.593H309.285V322.414H312.991V318.593Z" fill="white"/>
<path d="M307.082 318.366H303.375V322.155H307.082V318.366Z" fill="white"/>
<path d="M409.746 302.174H404.92V307.129H409.746V302.174Z" fill="white"/>
<path d="M401.284 303.113H397.577V306.934H401.284V303.113Z" fill="white"/>
<path d="M427.859 338.768H424.152V342.589H427.859V338.768Z" fill="white"/>
<path d="M419.956 346.119H416.25V349.908H419.956V346.119Z" fill="white"/>
<path d="M395.374 302.886H391.668V306.675H395.374V302.886Z" fill="white"/>
<path d="M431.635 285.917H427.369V290.321H431.635V285.917Z" fill="white"/>
<path d="M424.991 285.917H421.495V289.512H424.991V285.917Z" fill="white"/>
<path d="M418.138 285.658H413.837V290.062H418.138V285.658Z" fill="white"/>
<path d="M355.476 245.697H351.21V250.101H355.476V245.697Z" fill="white"/>
<path d="M348.798 245.697H345.301V249.259H348.798V245.697Z" fill="white"/>
<path d="M363.099 245.437H358.798V249.842H363.099V245.437Z" fill="white"/>
<path d="M403.417 310.95H399.71V314.739H403.417V310.95Z" fill="white"/>
<path d="M413.207 353.826H409.501V357.648H413.207V353.826Z" fill="white"/>
<path d="M403.906 342.071H400.2V345.86H403.906V342.071Z" fill="white"/>
<path d="M401.423 382.421H397.717V386.243H401.423V382.421Z" fill="white"/>
<path d="M396.423 310.529H392.717V314.35H396.423V310.529Z" fill="white"/>
<path d="M248.197 214.381H243.896V218.753H248.197V214.381Z" fill="white"/>
<path d="M241.483 214.381H237.987V217.944H241.483V214.381Z" fill="white"/>
<path d="M234.665 214.122H230.364V218.526H234.665V214.122Z" fill="white"/>
<path d="M246.554 223.093H242.847V226.914H246.554V223.093Z" fill="white"/>
<path d="M239.56 222.672H235.854V226.493H239.56V222.672Z" fill="white"/>
<path d="M233.651 222.445H229.944V226.234H233.651V222.445Z" fill="white"/>
<path d="M269.597 244.142H265.891V247.931H269.597V244.142Z" fill="white"/>
<path d="M247.358 230.638H242.567V235.56H247.358V230.638Z" fill="white"/>
<path d="M238.931 231.577H235.224V235.366H238.931V231.577Z" fill="white"/>
<path d="M233.021 231.318H229.315V235.139H233.021V231.318Z" fill="white"/>
<path d="M241.029 239.414H237.322V243.203H241.029V239.414Z" fill="white"/>
<path d="M234.035 238.993H230.329V242.782H234.035V238.993Z" fill="white"/>
<path d="M270.786 197.801H265.995V202.755H270.786V197.801Z" fill="white"/>
<path d="M262.359 198.707H258.652V202.529H262.359V198.707Z" fill="white"/>
<path d="M256.449 198.481H252.743V202.27H256.449V198.481Z" fill="white"/>
<path d="M264.037 206.577H261.24V210.366H264.037V206.577Z" fill="white"/>
<path d="M269.073 212.6H266.31V216.389H269.073V212.6Z" fill="white"/>
<path d="M260.82 216.324H258.023V220.146H260.82V216.324Z" fill="white"/>
<path d="M255.156 223.19H252.393V227.011H255.156V223.19Z" fill="white"/>
<path d="M232.951 246.862H230.154V250.651H232.951V246.862Z" fill="white"/>
<path d="M233.231 260.075H230.434V263.896H233.231V260.075Z" fill="white"/>
<path d="M257.463 206.156H253.757V209.977H257.463V206.156Z" fill="white"/>
<path d="M417.159 293.981H413.452V297.77H417.159V293.981Z" fill="white"/>
<path d="M424.292 301.332H420.585V305.121H424.292V301.332Z" fill="white"/>
<path d="M403.487 329.474H398.696V334.396H403.487V329.474Z" fill="white"/>
<path d="M320.579 291.39H316.873V295.179H320.579V291.39Z" fill="white"/>
<path d="M313.761 299.065H310.054V302.886H313.761V299.065Z" fill="white"/>
<path d="M304.494 287.342H300.788V291.163H304.494V287.342Z" fill="white"/>
<path d="M304.075 274.745H299.284V279.7H304.075V274.745Z" fill="white"/>
<path d="M155.744 315.225H152.037V319.046H155.744V315.225Z" fill="white"/>
<path d="M148.96 322.932H145.254V326.721H148.96V322.932Z" fill="white"/>
<path d="M139.659 311.177H135.952V314.966H139.659V311.177Z" fill="white"/>
<path d="M139.239 298.579H134.449V303.502H139.239V298.579Z" fill="white"/>
<path d="M270.996 271.085H267.289V274.874H270.996V271.085Z" fill="white"/>
<path d="M270.576 258.488H265.786V263.443H270.576V258.488Z" fill="white"/>
<path d="M395.759 319.402H392.052V323.223H395.759V319.402Z" fill="white"/>
<path d="M342.119 273.482H338.412V277.303H342.119V273.482Z" fill="white"/>
<path d="M347.364 282.582H343.658V286.371H347.364V282.582Z" fill="white"/>
<path d="M336.629 276.72H332.923V280.542H336.629V276.72Z" fill="white"/>
<path d="M336.384 286.306H332.678V290.127H336.384V286.306Z" fill="white"/>
<path d="M352.749 258.002H349.042V261.824H352.749V258.002Z" fill="white"/>
<path d="M341.455 282.355H337.748V286.176H341.455V282.355Z" fill="white"/>
<path d="M342.469 289.998H338.762V293.819H342.469V289.998Z" fill="white"/>
<path d="M341.839 298.903H338.133V302.724H341.839V298.903Z" fill="white"/>
<path d="M417.823 311.986H414.117V315.775H417.823V311.986Z" fill="white"/>
<path d="M270.052 235.949H265.261V240.871H270.052V235.949Z" fill="white"/>
<path d="M261.625 236.888H257.918V240.709H261.625V236.888Z" fill="white"/>
<path d="M255.68 236.661H251.974V240.45H255.68V236.661Z" fill="white"/>
<path d="M251.624 253.177H246.833V258.1H251.624V253.177Z" fill="white"/>
<path d="M245.225 275.49H241.518V279.279H245.225V275.49Z" fill="white"/>
<path d="M256.974 287.601H253.267V291.39H256.974V287.601Z" fill="white"/>
<path d="M264.212 295.309H260.506V299.13H264.212V295.309Z" fill="white"/>
<path d="M273.059 321.993H269.352V325.814H273.059V321.993Z" fill="white"/>
<path d="M273.863 311.533H270.157V315.354H273.863V311.533Z" fill="white"/>
<path d="M259.981 265.515H256.275V269.304H259.981V265.515Z" fill="white"/>
<path d="M256.38 300.36H251.589V305.283H256.38V300.36Z" fill="white"/>
<path d="M247.952 301.267H244.246V305.056H247.952V301.267Z" fill="white"/>
<path d="M242.043 301.041H238.336V304.829H242.043V301.041Z" fill="white"/>
<path d="M154.03 381.029H150.044V385.141H154.03V381.029Z" fill="white"/>
<path d="M147.002 381.774H143.925V384.947H147.002V381.774Z" fill="white"/>
<path d="M142.072 381.579H138.995V384.753H142.072V381.579Z" fill="white"/>
<path d="M120.147 299.939H116.441V303.761H120.147V299.939Z" fill="white"/>
<path d="M114.238 299.713H110.531V303.502H114.238V299.713Z" fill="white"/>
<path d="M118.259 372.868H114.552V376.689H118.259V372.868Z" fill="white"/>
<path d="M112.35 372.641H108.643V376.43H112.35V372.641Z" fill="white"/>
<path d="M75.3892 368.723H72.417V372.544H75.3892V368.723Z" fill="white"/>
<path d="M70.6687 368.496H67.6615V372.317H70.6687V368.496Z" fill="white"/>
<path d="M35.3169 353.341H32.3097V357.129H35.3169V353.341Z" fill="white"/>
<path d="M30.5263 353.081H27.5541V356.87H30.5263V353.081Z" fill="white"/>
<path d="M19.197 370.277H15.8052V374.584H19.197V370.277Z" fill="white"/>
<path d="M13.6372 370.115H9.47607V376.268H13.6372V370.115Z" fill="white"/>
<path d="M158.576 288.022H153.786V292.945H158.576V288.022Z" fill="white"/>
<path d="M150.149 288.929H146.443V292.718H150.149V288.929Z" fill="white"/>
<path d="M144.24 288.702H140.533V292.524H144.24V288.702Z" fill="white"/>
<path d="M160.045 349.228H155.254V354.15H160.045V349.228Z" fill="white"/>
<path d="M151.583 350.135H147.876V353.956H151.583V350.135Z" fill="white"/>
<path d="M145.708 349.908H142.002V353.697H145.708V349.908Z" fill="white"/>
<path d="M20.141 241.875H15.1757V246.959H20.141V241.875Z" fill="white"/>
<path d="M12.2384 241.551H7.27307V246.636H12.2384V241.551Z" fill="white"/>
<path d="M429.118 353.47H424.817V357.874H429.118V353.47Z" fill="white"/>
<path d="M428.138 361.793H424.432V365.614H428.138V361.793Z" fill="white"/>
<path d="M428.558 369.953H424.851V373.775H428.558V369.953Z" fill="white"/>
<path d="M25.1763 251.623H20.9103V256.027H25.1763V251.623Z" fill="white"/>
<path d="M18.5326 251.623H15.0359V255.217H18.5326V251.623Z" fill="white"/>
<path d="M11.679 251.364H7.41296V255.768H11.679V251.364Z" fill="white"/>
<path d="M23.6028 260.334H19.8962V264.123H23.6028V260.334Z" fill="white"/>
<path d="M16.6094 259.913H12.9028V263.702H16.6094V259.913Z" fill="white"/>
<path d="M10.6999 259.686H6.99341V263.508H10.6999V259.686Z" fill="white"/>
<path d="M24.4071 267.879H19.6166V272.802H24.4071V267.879Z" fill="white"/>
<path d="M25.9806 294.564H21.1901V299.486H25.9806V294.564Z" fill="white"/>
<path d="M20.2809 329.765H15.4904V334.687H20.2809V329.765Z" fill="white"/>
<path d="M44.2334 368.658H39.408V373.58H44.2334V368.658Z" fill="white"/>
<path d="M35.2818 380.77H30.4913V385.692H35.2818V380.77Z" fill="white"/>
<path d="M15.945 268.819H12.2385V272.607H15.945V268.819Z" fill="white"/>
<path d="M42.5201 304.473H38.8136V308.295H42.5201V304.473Z" fill="white"/>
<path d="M34.6524 311.824H30.9459V315.646H34.6524V311.824Z" fill="white"/>
<path d="M10.0355 268.56H6.32898V272.381H10.0355V268.56Z" fill="white"/>
<path d="M24.6519 282.355H20.3859V286.759H24.6519V282.355Z" fill="white"/>
<path d="M39.6527 251.623H36.156V255.217H39.6527V251.623Z" fill="white"/>
<path d="M32.8342 251.364H28.5332V255.768H32.8342V251.364Z" fill="white"/>
<path d="M38.9185 243.171H35.4218V246.733H38.9185V243.171Z" fill="white"/>
<path d="M32.0998 242.911H27.7988V247.316H32.0998V242.911Z" fill="white"/>
<path d="M24.1623 234.006H19.8613V238.41H24.1623V234.006Z" fill="white"/>
<path d="M17.4137 234.006H13.9519V237.601H17.4137V234.006Z" fill="white"/>
<path d="M10.6299 233.747H6.32898V238.151H10.6299V233.747Z" fill="white"/>
<path d="M45.2474 234.006H40.9814V238.41H45.2474V234.006Z" fill="white"/>
<path d="M38.5687 234.006H35.072V237.601H38.5687V234.006Z" fill="white"/>
<path d="M31.7502 233.747H27.4492V238.151H31.7502V233.747Z" fill="white"/>
<path d="M18.078 276.655H14.3715V280.444H18.078V276.655Z" fill="white"/>
<path d="M27.8688 319.532H24.1622V323.321H27.8688V319.532Z" fill="white"/>
<path d="M18.5675 307.776H14.861V311.565H18.5675V307.776Z" fill="white"/>
<path d="M16.0848 348.127H12.3783V351.948H16.0848V348.127Z" fill="white"/>
<path d="M11.0846 276.234H7.37805V280.023H11.0846V276.234Z" fill="white"/>
<path d="M31.8201 259.686H28.1135V263.508H31.8201V259.686Z" fill="white"/>
<path d="M32.974 265.774H29.2675V269.596H32.974V265.774Z" fill="white"/>
<path d="M18.1479 295.179H13.3574V300.101H18.1479V295.179Z" fill="white"/>
<path d="M10.4201 285.108H6.71362V288.929H10.4201V285.108Z" fill="white"/>
<path d="M10.8048 302.465H7.09827V306.254H10.8048V302.465Z" fill="white"/>
<path d="M43.7789 319.176H39.4779V323.58H43.7789V319.176Z" fill="white"/>
<path d="M42.7998 327.498H39.0933V331.319H42.7998V327.498Z" fill="white"/>
<path d="M43.2195 335.659H39.5129V339.48H43.2195V335.659Z" fill="white"/>
<path d="M378.905 363.38H375.198V367.168H378.905V363.38Z" fill="white"/>
<path d="M371.037 370.698H367.33V374.52H371.037V370.698Z" fill="white"/>
<path d="M364.253 378.406H360.547V382.195H364.253V378.406Z" fill="white"/>
<path d="M354.952 366.683H351.245V370.472H354.952V366.683Z" fill="white"/>
<path d="M354.532 354.085H349.742V359.008H354.532V354.085Z" fill="white"/>
<path d="M347.679 273.514H343.378V277.918H347.679V273.514Z" fill="white"/>
<path d="M336.699 253.728H332.398V258.132H336.699V253.728Z" fill="white"/>
<path d="M336.314 260.334H332.048V264.738H336.314V260.334Z" fill="white"/>
<path d="M336.314 267.297H332.048V271.701H336.314V267.297Z" fill="white"/>
<path d="M355.966 251.558H351.7V255.962H355.966V251.558Z" fill="white"/>
<path d="M361.351 258.877H357.05V263.281H361.351V258.877Z" fill="white"/>
<path d="M343.902 360.789H340.196V364.61H343.902V360.789Z" fill="white"/>
<path d="M379.604 394.533H375.897V398.322H379.604V394.533Z" fill="white"/>
<path d="M368.939 275.198H365.232V279.02H368.939V275.198Z" fill="white"/>
<path d="M361.91 274.777H358.204V278.598H361.91V274.777Z" fill="white"/>
<path d="M375.163 282.064H370.897V286.468H375.163V282.064Z" fill="white"/>
<path d="M369.149 288.994H365.652V292.588H369.149V288.994Z" fill="white"/>
<path d="M363.099 282.161H358.798V286.565H363.099V282.161Z" fill="white"/>
<path d="M363.904 289.156H360.197V292.945H363.904V289.156Z" fill="white"/>
<path d="M357.819 295.114H354.113V298.903H357.819V295.114Z" fill="white"/>
<path d="M365.897 312.893H361.596V317.297H365.897V312.893Z" fill="white"/>
<path d="M358.798 318.334H355.302V321.928H358.798V318.334Z" fill="white"/>
<path d="M352.329 312.602H348.063V317.006H352.329V312.602Z" fill="white"/>
<path d="M336.734 315.678H333.028V319.467H336.734V315.678Z" fill="white"/>
<path d="M347.644 319.532H343.937V323.353H347.644V319.532Z" fill="white"/>
<path d="M360.896 326.818H356.595V331.222H360.896V326.818Z" fill="white"/>
<path d="M354.882 333.748H351.385V337.31H354.882V333.748Z" fill="white"/>
<path d="M347.364 326.559H343.063V330.963H347.364V326.559Z" fill="white"/>
<path d="M366.037 341.358H362.33V345.18H366.037V341.358Z" fill="white"/>
<path d="M343.553 339.869H339.846V343.658H343.553V339.869Z" fill="white"/>
<path d="M347.119 258.618H343.413V262.439H347.119V258.618Z" fill="white"/>
<path d="M380.233 333.554H375.443V338.476H380.233V333.554Z" fill="white"/>
<path d="M371.806 334.493H368.1V338.314H371.806V334.493Z" fill="white"/>
<path d="M365.897 334.234H362.19V338.055H365.897V334.234Z" fill="white"/>
<path d="M315.474 357.291H310.683V362.214H315.474V357.291Z" fill="white"/>
<path d="M307.047 358.23H303.34V362.019H307.047V358.23Z" fill="white"/>
<path d="M301.137 357.971H297.431V361.793H301.137V357.971Z" fill="white"/>
<path d="M303.76 260.431H298.969V265.354H303.76V260.431Z" fill="white"/>
<path d="M295.298 261.37H291.591V265.159H295.298V261.37Z" fill="white"/>
<path d="M289.423 261.111H285.717V264.933H289.423V261.111Z" fill="white"/>
</g>
</g>
<defs>
<clipPath id="clip0_32_2148">
<rect width="1466" height="548" fill="white"/>
</clipPath>
</defs>
</svg>
