<svg width="868" height="340" viewBox="0 0 868 340" fill="none" xmlns="http://www.w3.org/2000/svg">
<path d="M-379 320.828L-374.502 323.543C-374.502 323.543 -374.208 323.059 -373.655 322.158C-373.116 321.292 -372.319 319.997 -371.311 318.381C-371.046 317.962 -370.757 317.507 -370.464 317.038L-367.54 318.884L-353.69 327.637C-353.984 328.099 -354.251 328.533 -354.516 328.932C-356.419 332.03 -357.517 333.802 -357.517 333.802L-355.517 335.005V335.019L-353.019 336.509C-353.019 336.509 -351.948 334.774 -350.053 331.738C-348.13 328.633 -345.283 324.211 -341.813 318.929C-339.232 314.977 -336.294 310.555 -333.083 305.861V338.979H-330.727H-326.753V296.646C-323.123 291.413 -319.29 286.026 -315.422 280.674C-305.537 266.963 -295.284 253.502 -287.406 243.589C-283.483 238.622 -280.138 234.502 -277.83 231.654C-277.627 231.43 -277.452 231.22 -277.269 230.997V270.537C-283.495 278.933 -289.944 287.964 -296.197 297.108C-306.361 311.884 -316.027 326.981 -324.001 340H-320.273H-315.656C-308.2 327.959 -299.47 314.416 -290.356 301.124C-286.033 294.819 -281.633 288.594 -277.268 282.557V338.979H-274.889H-270.945V273.917C-264.383 265.095 -258.145 256.98 -252.646 250.146C-247.273 243.388 -242.628 237.861 -239.384 234.005C-236.075 230.178 -234.221 228.002 -234.221 228.002C-234.221 228.002 -233.759 227.456 -232.864 226.435C-231.983 225.434 -230.661 223.931 -229.003 222.049C-227.352 220.152 -225.275 217.914 -222.918 215.311C-222.456 214.787 -221.953 214.255 -221.45 213.716V338.977H-219.065H-215.12V206.957C-215.036 206.865 -214.959 206.788 -214.882 206.711C-202.997 194.189 -186.476 178.111 -168.485 163.904C-167.52 163.141 -166.576 162.406 -165.638 161.672V338.977H-163.26H-159.286V156.88C-153.228 152.388 -147.108 148.163 -141.12 144.371C-132.061 138.635 -123.283 133.878 -115.54 130.232C-113.636 129.295 -111.749 128.489 -109.973 127.714C-109.924 127.699 -109.867 127.678 -109.819 127.651V338.977H-107.441H-103.503V125.027C-102.398 124.608 -101.349 124.201 -100.376 123.809C-98.9562 123.313 -97.649 122.866 -96.4868 122.452C-95.3265 122.052 -94.2701 121.667 -93.3676 121.368C-92.4436 121.109 -91.6394 120.865 -91.0234 120.668C-89.7288 120.29 -89.0716 120.081 -89.0716 120.081C-89.0716 120.081 -88.3714 119.893 -87.1341 119.486C-85.8394 119.156 -83.9377 118.682 -81.5382 118.066C-76.7463 116.961 -69.8076 115.428 -61.386 114.743C-60.3294 114.597 -59.2532 114.59 -58.1609 114.541C-57.0829 114.493 -55.9708 114.45 -54.8444 114.38C-54.5794 114.38 -54.2786 114.373 -54.0046 114.358V338.977H-51.6196H-47.6817V114.498C-47.1427 114.505 -46.5912 114.52 -46.0379 114.539C-45.429 114.602 -44.8345 114.665 -44.2114 114.735C-42.9865 114.84 -41.7348 114.98 -40.4831 115.098C-39.8599 115.161 -39.2244 115.204 -38.5744 115.315C-37.944 115.413 -37.3227 115.517 -36.6709 115.623C-35.4049 115.832 -34.1174 116.049 -32.8174 116.266C-22.4296 118.162 -11.5744 121.59 -1.07379 125.991C-0.0942688 126.383 0.870972 126.795 1.81467 127.209V338.976H4.17828H8.13757V130.056C15.3988 133.436 22.4218 137.129 28.9954 140.865C38.3607 146.175 46.8737 151.555 54.1009 156.249C55.3257 157.039 56.4789 157.809 57.6195 158.572V338.976H59.9976H63.9641V162.811C66.8524 164.778 69.3719 166.506 71.4276 167.939C75.5551 170.82 77.933 172.464 77.933 172.464C77.933 172.464 80.2842 174.144 84.3957 177.081C88.5017 179.999 94.3627 184.231 101.366 189.353C105.087 192.075 109.145 195.048 113.446 198.224V338.976H115.824H119.783V202.891C130.065 210.44 141.384 218.738 152.856 226.908C158.326 230.784 163.823 234.611 169.258 238.311V338.976H171.636H175.595V242.586C177.408 243.804 179.239 245.02 181.016 246.189C185.562 249.205 190.017 252.017 194.263 254.696C195.327 255.368 196.48 255.984 197.565 256.62C198.111 256.928 198.663 257.25 199.195 257.557C199.761 257.85 200.3 258.096 200.853 258.382C201.965 258.921 203.043 259.473 204.105 259.971C205.224 260.412 206.288 260.859 207.364 261.278C208.406 261.74 209.477 262.082 210.498 262.419C211.547 262.756 212.568 263.105 213.554 263.399C214.563 263.658 215.555 263.909 216.5 264.147C216.969 264.266 217.465 264.386 217.913 264.504C218.375 264.61 218.837 264.665 219.292 264.756C221.138 265.093 222.837 265.464 224.419 265.589C224.635 265.625 224.866 265.637 225.083 265.673V338.977H227.454H231.406V266.164C231.707 266.186 232.056 266.193 232.33 266.212C233.35 266.22 234.238 266.205 234.946 266.205C236.359 266.191 237.114 266.184 237.114 266.184C237.114 266.184 237.302 266.191 237.653 266.148C238.031 266.134 238.59 266.092 239.297 266.049C239.997 266.001 240.857 265.951 241.872 265.888C242.9 265.804 244.062 265.636 245.355 265.482C250.595 264.851 257.967 263.418 266.444 260.696C267.493 260.395 268.557 259.989 269.655 259.605C270.76 259.228 271.865 258.864 272.984 258.438C275.215 257.583 277.53 256.717 279.86 255.715C280.202 255.583 280.56 255.422 280.895 255.275V338.974H283.251H287.218V252.461C289.555 251.383 291.911 250.244 294.275 249.048C299.221 246.6 304.165 243.858 309.181 241.03C314.168 238.168 319.198 235.173 324.129 232.103C328.368 229.453 332.572 226.766 336.72 224.073V338.974H339.076H343.043V219.916C355.773 211.493 367.58 203.314 377.275 196.787C383.29 192.702 388.515 189.217 392.524 186.559V338.974H394.902H398.855V182.397C400.443 181.355 401.324 180.782 401.324 180.782C401.324 180.782 403.75 179.222 407.984 176.507C412.251 173.799 418.35 169.986 425.765 165.593C432.347 161.724 439.985 157.42 448.337 153.181V338.972H450.715H454.681V150.047C456.094 149.354 457.507 148.689 458.982 148.011C461.48 146.891 463.991 145.702 466.607 144.624C471.769 142.4 477.113 140.399 482.485 138.531C487.857 136.704 493.342 135.125 498.762 133.774C500.12 133.473 501.463 133.187 502.806 132.886C503.261 132.773 503.694 132.676 504.142 132.599V338.972H506.527H510.486V131.416C510.604 131.408 510.724 131.38 510.842 131.367C512.2 131.172 513.493 130.975 514.809 130.821C516.137 130.59 517.446 130.492 518.712 130.359C520.034 130.246 521.3 130.08 522.566 130.017C525.112 129.899 527.596 129.68 530.001 129.702C531.211 129.702 532.393 129.687 533.568 129.687C534.75 129.716 535.905 129.764 537.038 129.8C539.305 129.87 541.508 130.122 543.628 130.289C545.727 130.429 547.734 130.723 549.657 130.975C550.622 131.115 551.546 131.254 552.442 131.367C553.351 131.507 554.24 131.682 555.08 131.829C556.772 132.144 558.36 132.41 559.836 132.703C559.871 132.718 559.912 132.739 559.99 132.752V338.972H562.333H566.3V134.186C567.559 134.516 568.63 134.817 569.434 135.026C570.7 135.368 571.385 135.544 571.385 135.544C571.385 135.544 572.071 135.712 573.359 136.104C574.632 136.496 576.492 137.077 578.849 137.811C580.052 138.16 581.347 138.671 582.78 139.147C584.171 139.658 585.725 140.155 587.326 140.791C588.948 141.427 590.655 142.099 592.474 142.806C594.272 143.533 596.154 144.373 598.119 145.199C603.553 147.599 609.534 150.473 615.787 153.804V338.974H618.138H622.126V157.291C622.798 157.684 623.518 158.076 624.211 158.459C633.501 163.818 643.167 170.038 652.498 176.691C659.081 181.344 665.481 186.219 671.609 191.081V338.976H673.986H677.917V196.209C686.738 203.471 694.746 210.53 701.42 216.694C707.771 222.543 712.941 227.538 716.556 231.07C718.34 232.847 719.753 234.226 720.711 235.177C721.662 236.142 722.172 236.653 722.172 236.653C722.172 236.653 722.682 237.149 723.628 238.114C724.53 239.016 725.825 240.317 727.419 241.956V338.976H729.797H733.742V248.518C736.252 251.141 739.085 254.114 742.129 257.431C753.797 270.023 768.884 287.235 783.238 305.08V338.976H785.602H789.568V313.007C796.877 322.269 803.893 331.477 810.175 339.996H815.064H818.994C810.39 328.208 800.178 314.798 789.566 301.63V270.765C793.477 275.271 797.513 279.972 801.514 284.701C812.453 297.615 823.043 310.831 830.781 320.835C834.649 325.852 837.825 330.055 840.014 332.979C842.153 335.875 843.35 337.52 843.35 337.52L845.706 335.827L847.637 334.455C847.637 334.455 846.65 333.148 844.943 330.811L860.864 318.987C862.691 321.478 863.711 322.884 863.711 322.884L868 319.827C868 319.827 866.672 318 864.356 314.853C862.055 311.782 858.753 307.417 854.746 302.261C846.786 291.934 835.908 278.391 824.696 265.127C813.497 251.849 801.983 238.85 793.164 229.252C788.742 224.438 785.05 220.493 782.42 217.717C779.811 214.953 778.292 213.372 778.292 213.372C778.292 213.372 776.824 211.812 774.172 209.056C771.514 206.328 767.722 202.416 763.105 197.799C754.684 189.314 743.463 178.421 731.643 167.661V42.1611V18.0047V11.2331H732.63V7.29459C732.966 7.24623 733.21 6.97943 733.21 6.63019C733.21 6.27379 732.916 5.97301 732.545 5.97301H732.406C732.454 5.94435 732.483 5.91038 732.524 5.89605C732.565 5.85486 732.629 5.78312 732.678 5.74192C732.719 5.69357 732.776 5.65779 732.825 5.60944C732.86 5.56825 732.895 5.53949 732.916 5.51084C732.971 5.43383 733.034 5.36393 733.092 5.27975C733.128 5.2314 733.176 5.19562 733.183 5.14727C733.212 5.11861 733.231 5.09897 733.231 5.07031C733.287 4.97897 733.349 4.88773 733.385 4.80534C733.407 4.75699 733.434 4.70668 733.469 4.644C733.491 4.61534 733.498 4.56706 733.498 4.5384C733.546 4.4399 733.568 4.36288 733.604 4.259C733.618 4.22318 733.64 4.18201 733.64 4.14619C733.64 4.16052 733.64 4.1605 733.64 4.17483V4.1604C733.647 4.08339 733.688 4.01354 733.702 3.93653C733.702 3.92937 733.702 3.90075 733.702 3.88822V3.90265C733.724 3.71459 733.744 3.51763 733.744 3.32242C733.744 1.49026 732.268 0 730.414 0C729.344 0 728.4 0.531932 727.813 1.31458C727.813 1.31458 727.813 1.29311 727.813 1.28594C727.791 1.32713 727.771 1.34151 727.743 1.37733C727.714 1.45434 727.637 1.50986 727.596 1.6012C727.555 1.69254 727.519 1.78921 727.456 1.87338V1.84474C727.442 1.8734 727.442 1.89321 727.442 1.9147C727.421 1.98455 727.358 2.03992 727.336 2.11693C727.308 2.21543 727.274 2.33362 727.238 2.45361C727.202 2.4948 727.202 2.55212 727.202 2.59331C727.202 2.62913 727.181 2.67042 727.181 2.69191C727.132 2.89429 727.111 3.11109 727.111 3.32242C727.111 4.40058 727.635 5.36587 728.447 5.97301H728.321C727.951 5.97301 727.635 6.27379 727.635 6.63019C727.635 6.97943 727.888 7.24623 728.23 7.29459V11.2331H728.901V17.4315C725.669 17.0393 719.753 17.1862 712.506 21.189C701.937 27.0168 700.188 27.8065 698.6 27.8065V31.5712C695.976 32.6422 692.038 33.6416 686.163 33.9568C672.964 34.6642 668.752 40.6102 668.752 40.6102C675.677 42.7432 681.342 47.8027 681.342 47.8027C676.774 53.6376 672.907 63.2856 672.907 63.2856C678.531 60.1227 697.41 57.4021 703.334 54.3163H703.355C703.391 54.2751 703.433 54.2681 703.469 54.2252C703.685 54.1069 703.867 54.0084 704.041 53.9027C704.097 53.8543 704.174 53.8042 704.237 53.7343C704.439 53.609 704.6 53.4693 704.747 53.3225C704.942 53.1058 705.096 52.9105 705.257 52.6723C705.312 52.5953 705.356 52.504 705.411 52.427C705.503 52.2873 705.599 52.1405 705.649 52.0151C705.712 51.8897 705.748 51.7983 705.789 51.6926C705.844 51.5529 705.888 51.4473 705.936 51.3363C705.984 51.2037 706.02 51.0712 706.034 50.9368C706.041 50.8383 706.063 50.7489 706.104 50.6719C706.133 50.5035 706.14 50.3566 706.181 50.2097C706.181 50.1327 706.203 50.0773 706.203 50.0003C706.203 49.8534 706.203 49.6993 706.203 49.5667C707.791 48.7339 709.63 47.6147 711.7 46.1103C711.7 46.1103 720.5 38.47 728.9 40.9613V165.181C728.712 165.027 728.536 164.88 728.375 164.711C715.414 153 701.878 141.8 691.483 133.699C686.299 129.641 681.88 126.318 678.773 124.058C677.206 122.91 675.988 121.995 675.15 121.408C674.318 120.806 673.863 120.484 673.863 120.484C673.863 120.484 672.058 119.196 668.917 116.957C667.314 115.859 665.398 114.523 663.16 112.99C660.936 111.479 658.382 109.808 655.634 107.959C644.478 100.711 629.151 91.4843 612.86 83.7599C604.717 79.8842 596.332 76.3649 588.273 73.4474C580.215 70.5299 572.422 68.2984 565.687 66.6185C565.449 66.5701 565.233 66.5003 564.995 66.4501L566.59 66.7367L579.979 66.9248C580.973 68.4435 582.559 69.5755 584.484 69.905C587.199 70.4011 589.808 69.2118 591.283 67.0931L598.299 67.1917L598.572 65.6174L598.844 64.12L600.201 64.3852L603.265 47.1258L527.993 33.7705L525.734 46.5598L524.922 51.03L526.28 51.2538L526.027 52.7368L525.741 54.3111L529.602 55.6615C530.112 58.3838 532.232 60.6421 535.121 61.1669C537.234 61.5161 539.268 60.8874 540.779 59.5926L553.643 64.1183C551.958 63.8389 550.404 63.5793 549.061 63.4056C547.005 63.119 545.417 62.9023 544.332 62.7554C543.22 62.6085 542.625 62.5602 542.625 62.5602C542.625 62.5602 540.269 62.365 536.148 61.9996C534.057 61.8814 531.503 61.7615 528.579 61.6988C525.648 61.7346 522.353 61.6844 518.772 61.9513C516.526 62.0695 514.162 62.2664 511.72 62.5243C513.847 61.6002 515.28 59.6912 515.693 57.508L522.136 54.6819L521.73 53.129L521.366 51.6874L522.716 51.3505L518.358 34.3776L458.37 49.7261L458.132 48.7895L504.059 37.0355L504.304 37.972L518.358 34.3776L516.909 28.6394V28.6464L514.719 20.0338L514.44 18.9986C514.782 18.9216 514.979 18.5652 514.902 18.2214L514.846 18.0262C514.769 17.6841 514.413 17.4655 514.076 17.5426L499.996 21.1603C499.66 21.2373 499.443 21.6008 499.541 21.9375L499.582 22.14C499.681 22.4892 500.03 22.6933 500.367 22.6019L500.626 23.5888L454.685 35.3359L454.42 34.3562C454.776 34.2649 454.993 33.9227 454.903 33.5788L454.833 33.3694C454.756 33.0273 454.414 32.8086 454.056 32.9L440.003 36.4963C439.654 36.5877 439.437 36.9512 439.534 37.2808L439.589 37.4904C439.666 37.8325 440.022 38.0365 440.366 37.9524L440.631 38.9803L444.304 53.3152L448.627 70.2883L449.97 69.9586L450.725 72.9531L454.824 72.5895C456.189 74.5632 458.56 75.7094 461.022 75.4784C454.02 78.249 447.269 81.2506 441.086 84.2577C442.415 82.8518 443.108 80.9551 442.968 79.0531L448.487 74.6815L447.703 73.2898L446.983 71.9824L448.193 71.3038L439.709 55.9892L436.821 50.8116L432.52 43.0603L431.988 42.1165C432.317 41.9481 432.421 41.5629 432.247 41.2566L432.134 41.0686C431.959 40.7606 431.574 40.6423 431.275 40.8089L418.593 47.8671C418.278 48.0427 418.153 48.4332 418.328 48.7412L418.441 48.9238C418.595 49.239 418.987 49.3501 419.308 49.1889L419.804 50.07L378.34 73.0803L377.837 72.1993C378.145 72.0381 378.256 71.6459 378.083 71.3324L377.984 71.1569C377.83 70.8273 377.438 70.7306 377.125 70.8971L364.414 77.9427C364.121 78.1182 363.981 78.5231 364.176 78.8168L364.275 79.0048C364.429 79.32 364.841 79.4238 365.156 79.2501L372.836 93.1231L385.546 86.0504L385.077 85.2249L426.528 62.1948L426.997 63.042L372.836 93.1231L379.145 104.479L381.342 108.439L382.552 107.761L383.279 109.062H383.286L384.056 110.468L387.924 109.084C390.037 110.861 393.094 111.274 395.647 109.861C397.515 108.833 398.67 107.042 399.034 105.112L409.667 101.299C406.372 103.272 404.49 104.411 404.49 104.411C404.49 104.411 402.622 105.559 399.342 107.574C396.083 109.589 391.466 112.528 385.974 116.081C374.999 123.183 360.702 132.907 346.579 142.534C340.389 146.739 334.239 150.887 328.364 154.777C329.784 153.58 330.603 151.915 330.742 150.16L344.851 143.521L354.197 137.098L363.863 127.828C365.632 128.213 367.557 127.92 369.143 126.807C371.423 125.262 372.424 122.575 371.998 120.043L377.062 115.166L376.181 113.852L375.334 112.614L376.474 111.83L366.542 97.3963L303.545 140.743L310.91 151.426C310.91 151.426 310.903 151.426 310.903 151.44L313.478 155.162L314.597 154.377L315.451 155.603L316.383 156.931L320.077 155.182C322.084 156.573 324.715 156.797 326.953 155.699C319.923 160.345 313.34 164.577 307.732 168.019C302.401 171.329 297.939 173.895 294.826 175.708C291.693 177.47 289.909 178.464 289.909 178.464C289.909 178.464 288.147 179.395 285.11 181.025V42.163V18.0065V11.2348H286.097V7.29655C286.434 7.2482 286.663 6.98118 286.663 6.63194C286.663 6.27554 286.39 5.97476 285.998 5.97476H285.88C285.909 5.9461 285.936 5.93362 285.979 5.8978C286.034 5.85661 286.097 5.79914 286.154 5.73646C286.217 5.6881 286.272 5.64511 286.315 5.59676C286.337 5.5681 286.351 5.54839 286.371 5.54123C286.433 5.44989 286.489 5.3659 286.566 5.28172C286.629 5.21904 286.664 5.14917 286.713 5.08649C286.761 4.98082 286.826 4.89111 286.881 4.78545C286.922 4.69411 286.958 4.61719 286.98 4.52048C287.001 4.44346 287.042 4.36657 287.057 4.28239C287.092 4.23404 287.098 4.18372 287.119 4.14969C287.119 4.16402 287.098 4.164 287.098 4.17833C287.119 4.08699 287.153 4.003 287.153 3.91882C287.153 3.9045 287.175 3.88997 287.175 3.88997H287.153C287.194 3.71445 287.216 3.51938 287.216 3.32417C287.216 1.49201 285.719 0.00196761 283.887 0.00196761C282.845 0.00196761 281.873 0.533899 281.264 1.31655C281.264 1.31655 281.264 1.29486 281.264 1.28769C281.257 1.32888 281.257 1.34337 281.223 1.36487C281.187 1.4562 281.11 1.52599 281.076 1.61016C281.006 1.69434 280.97 1.79275 280.929 1.87513V1.84649C280.929 1.87515 280.929 1.87516 280.908 1.90202C280.893 1.97187 280.845 2.04177 280.809 2.13311C280.773 2.23878 280.754 2.33547 280.703 2.46979C280.703 2.49844 280.675 2.55409 280.675 2.59528C280.66 2.6311 280.66 2.67217 280.633 2.69366C280.592 2.91036 280.578 3.11283 280.578 3.32417C280.578 4.40233 281.11 5.36762 281.921 5.97476H281.774C281.418 5.97476 281.11 6.27554 281.11 6.63194C281.11 6.98118 281.362 7.2482 281.697 7.29655V11.2348H282.383V17.4332C279.124 17.041 273.227 17.1879 265.98 21.1907C255.412 27.0185 253.662 27.8085 252.054 27.8085V31.5729C249.438 32.6565 245.493 33.6433 239.637 33.9585C226.417 34.666 222.214 40.6119 222.214 40.6119C229.139 42.7449 234.804 47.8044 234.804 47.8044C230.251 53.6394 226.361 63.2873 226.361 63.2873C232.006 60.1245 250.865 57.4041 256.789 54.3183H256.81C256.846 54.2825 256.866 54.2698 256.866 54.2698C257.138 54.1372 257.335 54.0245 257.516 53.892C257.571 53.8562 257.634 53.8077 257.698 53.7665C257.894 53.6125 258.083 53.4728 258.223 53.326C258.418 53.1092 258.594 52.9142 258.733 52.676C258.789 52.599 258.818 52.529 258.88 52.4591C258.957 52.3051 259.056 52.1654 259.125 52.0114C259.181 51.9129 259.203 51.8163 259.244 51.7178C259.299 51.5852 259.362 51.4581 259.398 51.3328C259.46 51.2146 259.482 51.0873 259.496 50.9906C259.518 50.8724 259.559 50.7596 259.588 50.6539C259.595 50.5142 259.616 50.3816 259.636 50.2473C259.636 50.1631 259.657 50.079 259.665 49.9948C259.665 49.8479 259.693 49.701 259.693 49.5685C261.289 48.7357 263.113 47.6164 265.157 46.112C265.157 46.112 273.977 38.4718 282.385 40.963V182.442C279.511 183.903 275.942 185.689 271.836 187.485C266.394 189.907 260.008 192.452 253.181 194.466C246.36 196.53 239.12 197.853 232.118 198.209C225.124 198.412 218.402 197.649 212.491 195.663C211.721 195.432 211.001 195.179 210.274 194.95C209.566 194.642 208.847 194.355 208.141 194.076C206.735 193.587 205.419 192.824 204.105 192.215C203.433 191.914 202.846 191.536 202.216 191.187C201.585 190.824 200.991 190.48 200.389 190.138L199.934 189.873L199.417 189.543C199.053 189.319 198.704 189.095 198.367 188.886C197.682 188.445 196.989 188.012 196.346 187.598C191.022 184.288 186.68 181.351 183.587 179.356C180.531 177.293 178.803 176.123 178.803 176.123C178.803 176.123 171.801 171.458 161.435 164.119C151.047 156.822 137.296 146.782 123.501 136.638C109.714 126.446 95.7666 116.259 85.1192 108.745C82.4815 106.849 79.9923 105.149 77.831 103.638C75.6481 102.106 73.7661 100.797 72.1868 99.7406C68.9904 97.5789 67.2068 96.3467 67.2068 96.3467C67.2068 96.3467 65.3607 95.136 62.1769 93.0245C58.9948 90.8968 54.3569 87.9113 48.7395 84.4046C47.3338 83.5449 45.8511 82.6351 44.3398 81.7109C43.5626 81.2345 42.7874 80.7671 42.0103 80.2835C41.1919 79.8143 40.3878 79.3397 39.5408 78.8633C37.897 77.898 36.2047 76.904 34.4982 75.8975C32.7361 74.8892 30.924 73.9185 29.0778 72.9102C25.4553 70.8327 21.5301 68.8877 17.5853 66.8371C15.5779 65.8646 13.5347 64.9135 11.5131 63.941C10.4924 63.4789 9.46985 62.947 8.42764 62.485L5.28674 61.1275L2.13162 59.7627L0.571991 59.0841L-1.05762 58.4678C-3.19748 57.6278 -5.33203 56.8166 -7.44327 55.991C-11.8018 54.5295 -16.0189 53.0036 -20.3202 51.8699C-24.5032 50.5751 -28.7775 49.7423 -32.7636 48.8271C-34.7853 48.4904 -36.7711 48.1698 -38.6961 47.8475C-39.6613 47.7006 -40.5995 47.5108 -41.5432 47.4069C-42.4673 47.3156 -43.4109 47.2188 -44.3062 47.1203C-46.1255 46.9448 -47.8733 46.764 -49.5172 46.5956C-51.1897 46.5473 -52.7834 46.497 -54.2805 46.4415C-55.7846 46.4128 -57.1832 46.3358 -58.4778 46.3501C-59.7725 46.4128 -60.9757 46.463 -62.0734 46.497C-64.2348 46.5955 -65.9413 46.6367 -67.0605 46.7423C-68.1797 46.8749 -68.7743 46.9251 -68.7743 46.9251C-68.7743 46.9251 -69.3617 46.995 -70.4594 47.1079C-71.5571 47.2404 -73.2009 47.3603 -75.2727 47.6809C-77.2944 48.0176 -79.8121 48.3454 -82.6307 48.8702C-84.0364 49.1496 -85.519 49.4575 -87.1002 49.7799C-87.8845 49.9482 -88.7082 50.1166 -89.5265 50.2832C-90.3305 50.4855 -91.1632 50.6952 -92.0174 50.9137C-105.713 54.1661 -123.152 60.5616 -139.275 68.9361C-147.348 73.084 -155.182 77.6115 -162.302 82.0817C-169.388 86.6003 -175.879 90.9809 -181.292 94.9193C-186.712 98.8236 -191.134 102.196 -194.176 104.582C-195.714 105.778 -196.925 106.702 -197.716 107.374C-198.527 108.009 -198.948 108.375 -198.948 108.375C-198.948 108.375 -200.669 109.759 -203.697 112.195C-205.18 113.432 -206.985 114.944 -209.048 116.665C-211.111 118.394 -213.378 120.394 -215.902 122.556C-216.314 122.941 -216.783 123.345 -217.238 123.759V42.1648V18.0082V11.2366H-216.225V7.2983C-215.924 7.24995 -215.652 6.98314 -215.652 6.63391C-215.652 6.27751 -215.96 5.97651 -216.316 5.97651H-216.456C-216.42 5.94785 -216.393 5.91388 -216.357 5.89955C-216.295 5.85836 -216.259 5.80094 -216.196 5.74542C-216.141 5.69707 -216.078 5.66129 -216.042 5.61294C-216.006 5.57174 -215.958 5.54311 -215.958 5.50013C-215.902 5.45177 -215.859 5.36758 -215.797 5.3049C-215.748 5.24938 -215.727 5.19934 -215.664 5.15099C-215.65 5.12233 -215.65 5.08826 -215.628 5.0596C-215.58 4.98259 -215.53 4.89132 -215.482 4.8143C-215.446 4.76595 -215.433 4.70853 -215.412 4.66018C-215.39 4.61898 -215.349 4.56883 -215.349 4.52048C-215.313 4.44346 -215.294 4.35209 -215.272 4.26075C-215.265 4.22493 -215.251 4.18376 -215.236 4.14794C-215.236 4.16227 -215.251 4.16225 -215.251 4.17658C-215.215 4.09957 -215.202 4.0083 -215.174 3.93129C-215.174 3.91696 -215.166 3.90265 -215.166 3.90265L-215.174 3.88822C-215.132 3.7127 -215.118 3.51763 -215.118 3.32242C-215.118 1.49026 -216.608 0 -218.435 0C-219.525 0 -220.47 0.531932 -221.072 1.31458C-221.072 1.31458 -221.072 1.29311 -221.072 1.28594C-221.086 1.3343 -221.108 1.34151 -221.121 1.37733C-221.183 1.45434 -221.226 1.52424 -221.289 1.60841C-221.325 1.69259 -221.387 1.76948 -221.402 1.84649C-221.423 1.84649 -221.423 1.84649 -221.423 1.84649C-221.423 1.87515 -221.423 1.87513 -221.445 1.87513C-221.466 1.96647 -221.5 2.04352 -221.543 2.13486C-221.584 2.25306 -221.599 2.35871 -221.642 2.47154C-221.642 2.50736 -221.67 2.55569 -221.683 2.58435C-221.683 2.62554 -221.697 2.67588 -221.697 2.69738C-221.738 2.91408 -221.781 3.11633 -221.781 3.32767C-221.781 4.40583 -221.228 5.37112 -220.445 5.97826H-220.578C-220.934 5.97826 -221.221 6.27925 -221.221 6.63566C-221.221 6.98489 -220.975 7.2517 -220.66 7.30005V11.2383H-219.967V17.437C-223.214 17.0447 -229.123 17.1916 -236.37 21.1944C-246.932 27.0222 -248.688 27.812 -250.284 27.812V31.5766C-252.914 32.6476 -256.823 33.6468 -262.713 33.962C-275.912 34.6695 -280.116 40.6156 -280.116 40.6156C-273.206 42.7487 -267.526 47.8081 -267.526 47.8081C-272.108 53.6431 -275.976 63.291 -275.976 63.291C-270.339 60.1282 -251.466 57.4076 -245.528 54.3218C-245.506 54.3003 -245.486 54.2735 -245.45 54.2735C-245.234 54.1409 -245.039 54.028 -244.842 53.8955C-244.772 53.8596 -244.702 53.8114 -244.646 53.7702C-244.437 53.6162 -244.261 53.4765 -244.136 53.3297C-243.941 53.113 -243.751 52.8962 -243.611 52.6795C-243.563 52.6437 -243.556 52.5954 -243.542 52.547C-243.409 52.3643 -243.296 52.1905 -243.212 52.0007C-243.191 51.9308 -243.15 51.8681 -243.121 51.8054C-243.065 51.6514 -243.015 51.483 -242.945 51.3218C-242.91 51.2233 -242.883 51.1267 -242.854 51.0496C-242.833 50.9243 -242.777 50.7631 -242.755 50.6305C-242.734 50.5177 -242.734 50.4211 -242.7 50.3011C-242.7 50.1883 -242.679 50.0844 -242.679 49.9716C-242.657 49.8319 -242.657 49.7065 -242.657 49.5722C-241.062 48.7394 -239.222 47.6199 -237.16 46.1155C-237.16 46.1155 -228.353 38.4753 -219.966 40.9665V126.177C-229.22 134.46 -240.306 144.941 -250.903 155.846C-257.024 162.093 -263.039 168.46 -268.558 174.519C-274.076 180.549 -279.141 186.278 -283.415 191.218C-287.696 196.157 -291.235 200.326 -293.67 203.244C-296.125 206.169 -297.504 207.84 -297.504 207.84C-297.504 207.84 -298.895 209.52 -301.302 212.464C-303.709 215.415 -307.151 219.635 -311.187 224.777C-319.286 234.991 -329.856 248.815 -340.02 262.919C-350.198 276.994 -360.012 291.336 -367.174 302.272C-370.777 307.729 -373.701 312.331 -375.743 315.605C-376.778 317.242 -377.575 318.53 -378.114 319.411C-378.699 320.325 -379 320.828 -379 320.828ZM-342.69 310.732L-356.323 301.645L-359.211 299.728C-356.679 295.937 -353.945 291.879 -351.021 287.632L-334.673 298.862C-337.535 303.017 -340.235 307.003 -342.69 310.732ZM-239.586 223.338C-239.586 223.338 -241.482 225.548 -244.811 229.419C-248.085 233.309 -252.771 238.884 -258.22 245.699C-262.109 250.583 -266.425 256.122 -270.95 262.082V223.338C-270.774 223.136 -270.594 222.927 -270.432 222.708C-268.04 219.889 -264.661 215.852 -260.521 211.088C-256.386 206.317 -251.505 200.783 -246.181 194.977C-240.857 189.142 -235.1 183.035 -229.225 177.039C-226.645 174.4 -224.041 171.784 -221.453 169.225V203.316C-222.447 204.351 -223.432 205.372 -224.315 206.351C-225.672 207.82 -226.946 209.213 -228.162 210.487C-230.518 213.144 -232.645 215.412 -234.311 217.335C-235.996 219.232 -237.339 220.742 -238.234 221.757C-239.117 222.794 -239.586 223.338 -239.586 223.338ZM201.057 250.421C200.049 249.848 199.05 249.324 198.008 248.659C193.825 246.009 189.425 243.245 184.907 240.25C181.865 238.243 178.716 236.165 175.59 234.031V210.356C177.01 211.28 178.541 212.238 180.158 213.259C180.844 213.692 181.571 214.147 182.298 214.609C182.64 214.833 183.005 215.071 183.376 215.295L183.936 215.637L184.615 216.03C185.51 216.554 186.434 217.093 187.364 217.633C188.3 218.164 189.231 218.716 190.259 219.2C192.267 220.158 194.281 221.243 196.491 222.081C197.574 222.515 198.701 222.97 199.8 223.417C200.96 223.802 202.094 224.187 203.276 224.573C210.109 226.833 217.566 228.077 225.079 228.448V258.517C223.688 258.391 222.239 258.076 220.68 257.804C220.268 257.712 219.854 257.657 219.435 257.566C219.009 257.46 218.581 257.349 218.147 257.25C217.3 257.019 216.419 256.803 215.497 256.564C214.609 256.319 213.685 255.977 212.763 255.669C211.839 255.389 210.859 255.074 209.916 254.648C208.972 254.277 207.992 253.871 206.999 253.48C206.026 253.033 205.061 252.522 204.053 252.039C203.564 251.8 203.039 251.562 202.549 251.297C202.056 251.016 201.553 250.728 201.057 250.421ZM232.505 259.109C232.149 259.088 231.778 259.074 231.4 259.061V228.545C232.05 228.538 232.681 228.538 233.316 228.509C243.445 228.033 253.146 226.152 261.729 223.577C268.863 221.456 275.285 218.986 280.888 216.622V247.545C279.607 248.111 278.363 248.643 277.111 249.153C274.887 250.14 272.656 250.952 270.514 251.777C269.443 252.189 268.394 252.526 267.332 252.897C266.312 253.26 265.276 253.645 264.268 253.939C256.203 256.52 249.32 257.843 244.465 258.438C243.269 258.577 242.186 258.746 241.24 258.801C240.316 258.864 239.491 258.919 238.848 258.97C238.198 259.011 237.707 259.04 237.372 259.061C237.057 259.09 236.862 259.075 236.862 259.075C236.862 259.075 236.176 259.075 234.883 259.097C234.233 259.095 233.429 259.131 232.505 259.109ZM721.516 225.991C717.887 222.431 712.647 217.385 706.219 211.468C698.356 204.191 688.654 195.679 677.91 187.052V161.649C686.954 168.861 697.649 177.844 708.079 187.276C714.78 193.291 721.362 199.449 727.413 205.248V231.847C727.295 231.722 727.197 231.645 727.197 231.645C727.197 231.645 726.665 231.12 725.721 230.148C724.742 229.195 723.329 227.789 721.516 225.991ZM834.931 317.624C834.785 317.448 834.645 317.282 834.513 317.092L850.195 304.947C850.321 305.108 850.475 305.297 850.622 305.494C854.001 309.865 856.875 313.659 859.064 316.569L843.172 328.463C841.059 325.62 838.275 321.918 834.931 317.624ZM812.89 290.129L828.18 277.486C831.35 281.321 834.441 285.12 837.399 288.786L821.955 301.231C819.054 297.644 816.017 293.915 812.89 290.129ZM823.817 303.527L836.583 293.292L839.283 291.109C842.53 295.167 845.55 299.007 848.342 302.567L832.702 314.769C829.979 311.293 826.985 307.508 823.817 303.527ZM805.517 281.308C804.266 279.833 803.027 278.362 801.782 276.879L814.226 266.266L816.871 264.006C818.144 265.51 819.417 267.008 820.683 268.519C822.544 270.736 824.411 272.961 826.257 275.18L823.586 277.39L810.995 287.849C809.198 285.687 807.364 283.49 805.517 281.308ZM675.652 128.271C676.051 128.572 676.484 128.887 676.939 129.207L665.124 145.15C664.691 144.835 664.277 144.534 663.899 144.248C662.41 143.157 661.249 142.296 660.424 141.737C659.639 141.157 659.22 140.849 659.22 140.849C659.22 140.849 657.87 139.89 655.485 138.191L664.922 124.8L666.908 121.981C669.385 123.75 670.776 124.751 670.776 124.751C670.776 124.751 671.231 125.052 672.078 125.668C672.916 126.256 674.119 127.151 675.652 128.271ZM543.714 67.9724C544.77 68.1193 546.316 68.3145 548.316 68.5885C548.805 68.6583 549.38 68.7355 549.924 68.834L546.882 88.436C546.371 88.3447 545.881 88.2892 545.426 88.2193C543.698 87.9955 542.328 87.793 541.411 87.6802C540.48 87.5405 539.97 87.5119 539.97 87.5119C539.97 87.5119 538.396 87.3722 535.625 87.1269L537.101 67.3421C540.283 67.6143 542.081 67.7826 542.081 67.7826C542.081 67.7826 542.643 67.813 543.714 67.9724ZM528.508 66.9517C530.493 67 532.291 67.0698 533.921 67.1397L532.878 86.9585C531.5 86.8887 529.99 86.8331 528.284 86.783C525.863 86.8313 523.157 86.7829 520.17 86.9996C519.975 87.0068 519.763 87.0355 519.561 87.0355L518.541 70.6787L518.345 67.2365C518.576 67.2222 518.834 67.1952 519.087 67.188C522.505 66.9516 525.689 66.9875 528.508 66.9517ZM-194.455 111.475C-193.651 110.811 -192.477 109.901 -190.958 108.719C-190.546 108.418 -190.133 108.088 -189.706 107.746L-187.579 110.488L-177.542 123.424C-177.968 123.761 -178.368 124.067 -178.746 124.382C-180.194 125.488 -181.333 126.383 -182.103 126.992C-182.866 127.615 -183.278 127.936 -183.278 127.936C-183.278 127.936 -184.565 128.985 -186.838 130.832L-199.387 115.469C-197.009 113.531 -195.673 112.46 -195.673 112.46C-195.673 112.46 -195.259 112.111 -194.455 111.475ZM-286.702 203.093C-284.674 200.686 -282.226 197.832 -279.456 194.635C-278.721 193.788 -277.944 192.906 -277.155 192.004L-274.567 194.291L-262.235 205.065C-262.997 205.939 -263.76 206.815 -264.487 207.634C-267.181 210.768 -269.544 213.56 -271.559 215.917L-286.702 203.093ZM788.513 261.615C785.163 257.831 781.931 254.234 778.944 250.925L793.669 237.598C796.704 240.963 799.977 244.622 803.378 248.469L788.513 261.615ZM754.344 201.337L742.774 212.949C739.669 209.829 736.213 206.45 732.561 202.923L743.936 191.135L746.35 188.651C750.092 192.255 753.597 195.716 756.779 198.879L754.344 201.337ZM720.055 191.081L728.898 181.539V199.4C726.035 196.678 723.069 193.879 720.055 191.081ZM744.194 186.568L731.638 199.666V178.573L733.52 176.523C737.192 179.922 740.766 183.301 744.194 186.568ZM705.093 177.587C701.441 174.39 697.811 171.277 694.271 168.29L704.84 155.753L707.057 153.122C710.715 156.186 714.443 159.383 718.179 162.679L705.093 177.587ZM704.765 151.175L692.055 166.406C688.18 163.18 684.473 160.166 681.01 157.395L693.39 141.885C696.964 144.74 700.784 147.86 704.765 151.175ZM647.735 113.259L638.914 127.033C635.248 124.703 631.198 122.219 626.911 119.667L636.969 102.583C641.516 105.262 645.769 107.879 649.61 110.341L647.735 113.259ZM634.339 101.035L632.589 104.044L624.399 118.218C620.468 115.931 616.362 113.649 612.102 111.432L621.308 93.8375C625.813 96.2016 630.192 98.6427 634.339 101.035ZM600.905 87.863L594.344 102.903C589.985 101 585.684 99.2588 581.479 97.6774L588.341 79.0748C592.931 80.7887 597.581 82.6782 602.282 84.727L600.905 87.863ZM585.424 78.0055L578.808 96.6995C574.213 95.0769 569.792 93.6979 565.686 92.557L570.988 73.4439C575.561 74.7244 580.416 76.2217 585.424 78.0055ZM516.813 87.2325C512.685 87.5817 508.208 88.1691 503.474 89.0449L500.487 72.9334L499.857 69.527C505.229 68.5259 510.377 67.8615 515.14 67.4711L515.434 70.8989L516.813 87.2325ZM416.33 103.464C416.96 103.1 417.617 102.715 418.316 102.323C420.631 101.001 423.212 99.4826 426.121 97.9155C427.135 97.3621 428.172 96.8034 429.214 96.2231L438.644 113.692C437.623 114.238 436.622 114.77 435.678 115.3C432.922 116.798 430.446 118.259 428.207 119.506C427.55 119.898 426.92 120.276 426.325 120.618L416.33 103.464ZM431.909 94.7813C435.993 92.6196 440.47 90.3523 445.207 88.1011L453.734 105.996C449.279 108.13 445.074 110.264 441.199 112.313L431.909 94.7813ZM447.996 86.7847C452.396 84.7484 457.012 82.7337 461.756 80.8388L463.043 84.05L469.116 99.2587C464.757 101.008 460.47 102.882 456.35 104.793L447.996 86.7847ZM464.637 79.6978C466.534 78.9779 468.435 78.2633 470.351 77.5702C473.198 76.5565 476.065 75.6325 478.934 74.7585L484.79 93.6961C482.195 94.493 479.606 95.3401 477.011 96.2715C475.261 96.8947 473.514 97.552 471.786 98.2308L464.637 79.6978ZM481.943 73.8361C486.595 72.4642 491.274 71.2607 495.849 70.3097C496.121 70.2614 496.436 70.1844 496.744 70.1217L497.43 73.5012L500.725 89.5571C500.46 89.6269 500.193 89.6628 499.914 89.7254C495.892 90.5797 491.709 91.6491 487.504 92.8885L481.943 73.8361ZM411.112 129.804C408.118 131.679 404.187 134.163 399.633 137.129C399.458 137.241 399.263 137.367 399.068 137.492L390.136 123.759L388.261 120.849C388.436 120.724 388.653 120.603 388.827 120.478C393.486 117.462 397.501 114.91 400.599 112.985L411.112 129.804ZM359.105 140.354C363.197 137.569 367.218 134.842 371.122 132.232L373.045 135.087L382.201 148.695C378.34 151.275 374.331 153.991 370.268 156.783L359.105 140.354ZM373.606 130.559C377.907 127.678 381.986 124.956 385.741 122.486L387.638 125.389L396.606 139.093C392.919 141.508 388.889 144.18 384.658 147.02L373.606 130.559ZM353.355 168.254C349.249 171.024 345.179 173.732 341.232 176.335L332.195 162.679L330.291 159.797C334.159 157.229 338.188 154.549 342.239 151.807L353.355 168.254ZM317.681 172.079L315.835 169.155C319.584 166.784 323.633 164.174 327.838 161.404L338.736 177.999C334.413 180.818 330.293 183.497 326.418 185.94L317.681 172.079ZM278.517 211.921C274.216 213.741 269.417 215.616 264.191 217.308L259.127 201.756L258.071 198.439C262.617 196.956 266.877 195.29 270.781 193.653L278.517 211.921ZM223.181 223.066C217.614 222.66 212.115 221.716 206.947 220.197L211.465 204.49L212.444 201.125C216.298 202.28 220.404 202.965 224.615 203.28L223.181 223.066ZM143.95 182.497C140.292 179.895 136.304 177.033 132.123 174.005L141.726 160.734L143.734 157.949C147.876 160.943 151.828 163.748 155.422 166.316L143.95 182.497ZM141.356 156.199L139.312 158.998V159.005L129.709 172.255C125.904 169.499 121.986 166.63 117.978 163.699L129.73 147.699C133.695 150.616 137.606 153.478 141.356 156.199ZM111.222 138.388L111.229 138.416L101.527 151.603C97.568 148.693 93.6571 145.831 89.8877 143.082L101.576 127.033C105.388 129.832 109.277 132.7 113.278 135.617L111.222 138.388ZM99.1616 125.29L97.1257 128.09L87.4935 141.327C83.3875 138.347 79.4768 135.52 75.8184 132.918L87.3737 116.764C91.0697 119.407 95.0287 122.276 99.1616 125.29ZM-89.419 76.1231C-93.448 77.1941 -97.8479 78.5714 -102.443 80.2083L-109.102 61.5143C-104.017 59.7018 -99.1067 58.1849 -94.5458 56.9599L-89.419 76.1231ZM-126.017 68.3432C-121.345 66.2227 -116.63 64.2993 -112.034 62.5853L-110.83 65.8323C-110.83 65.8323 -110.83 65.8179 -110.809 65.8179L-105.095 81.1738C-109.242 82.7265 -113.545 84.4833 -117.825 86.4212L-126.017 68.3432ZM-143.286 80.9302L-135.327 95.2793C-139.454 97.5879 -143.517 99.959 -147.373 102.345L-156.011 88.436L-157.843 85.497C-153.737 82.9431 -149.4 80.4107 -144.952 77.941L-143.286 80.9302ZM-172.826 95.3491C-169.035 92.7182 -164.873 89.9547 -160.445 87.1214L-158.584 90.0462L-149.826 103.878C-153.968 106.55 -157.92 109.166 -161.521 111.651L-172.826 95.3491ZM-219.973 149.784V160.418C-221.602 162.014 -223.268 163.622 -224.926 165.267L-238.873 151.156C-235.299 147.622 -231.759 144.201 -228.305 140.949L-225.941 143.467H-225.927L-219.973 149.784ZM-217.244 152.68L-214.669 155.38C-215.535 156.185 -216.397 156.989 -217.244 157.807V152.68ZM-250.862 168.317L-239.013 179.628C-242.371 183.14 -245.63 186.631 -248.77 190.044L-263.39 176.627C-260.186 173.129 -256.814 169.54 -253.358 165.922L-250.86 168.336V168.317H-250.862ZM-275.196 189.745C-272.173 186.339 -268.907 182.673 -265.409 178.853L-262.863 181.19L-250.762 192.229C-254.155 195.937 -257.359 199.512 -260.303 202.857L-275.196 189.745ZM-248.79 166.148L-251.294 163.748C-249.909 162.335 -248.545 160.915 -247.139 159.494C-245.139 157.417 -243.074 155.346 -241.011 153.281L-227.028 167.337C-228.987 169.33 -231.002 171.345 -232.973 173.381C-234.309 174.753 -235.645 176.116 -236.981 177.502L-248.79 166.148ZM-226.086 138.877C-224.002 136.925 -221.959 135.035 -219.973 133.239V145.434L-226.086 138.877ZM-217.244 130.762C-216.558 130.153 -215.886 129.558 -215.222 128.964L-202.057 143.809C-205.316 146.719 -208.863 149.916 -212.549 153.38L-217.242 148.356L-217.244 130.762ZM-212.432 126.501C-209.934 124.381 -207.69 122.373 -205.676 120.652C-204.22 119.456 -202.884 118.365 -201.738 117.392L-189.098 132.678C-190.195 133.602 -191.461 134.645 -192.84 135.812C-194.799 137.464 -196.975 139.366 -199.367 141.431C-199.528 141.57 -199.697 141.724 -199.878 141.871L-212.951 126.963C-212.781 126.802 -212.599 126.648 -212.432 126.501ZM-185.206 108.62L-187.284 105.893C-184.73 103.948 -181.688 101.68 -178.232 99.1765C-177.295 98.4834 -176.323 97.8045 -175.343 97.1204L-173.336 99.9465L-163.894 113.316C-164.83 113.98 -165.754 114.624 -166.621 115.276C-169.923 117.654 -172.819 119.815 -175.245 121.662L-185.206 108.62ZM-140.615 79.4956L-142.244 76.4528C-140.475 75.4803 -138.684 74.5435 -136.879 73.6122C-134.229 72.2135 -131.536 70.9115 -128.85 69.6453L-120.443 87.6175C-122.912 88.7655 -125.389 89.9889 -127.865 91.2766C-129.516 92.1309 -131.174 93.0047 -132.818 93.8931L-140.615 79.4956ZM-90.6582 59.5425L-91.4838 56.1915C-91.2671 56.1359 -91.0145 56.0591 -90.7979 56.0161C-89.9508 55.7994 -89.1468 55.597 -88.3643 55.4C-87.5674 55.2388 -86.7689 55.0632 -86.0204 54.9038C-84.4893 54.6029 -83.0335 54.3092 -81.6833 54.0155C-79.7386 53.6788 -77.9694 53.3923 -76.4168 53.1559L-73.43 72.7867C-74.8088 72.9891 -76.3472 73.2201 -78.0609 73.5353C-79.2427 73.7663 -80.523 74.0457 -81.8588 74.3197C-82.5447 74.4594 -83.2162 74.5919 -83.9289 74.7316C-84.629 74.9196 -85.356 75.0951 -86.0831 75.2921C-86.2997 75.3405 -86.4752 75.3906 -86.6919 75.4318L-90.6582 59.5425ZM-72.7996 56.1145L-73.2473 52.6867C-71.8756 52.5183 -70.7368 52.4216 -69.9042 52.3231C-68.8333 52.2049 -68.2676 52.1548 -68.2676 52.1548C-68.2676 52.1548 -67.6945 52.0993 -66.638 51.9668C-65.5743 51.8683 -63.9234 51.8342 -61.8605 51.7429C-61.3072 51.7214 -60.7342 51.6944 -60.154 51.6657L-60.0554 55.1366L-59.6632 71.5008C-60.1521 71.5294 -60.614 71.549 -61.0474 71.5705C-62.7324 71.6547 -64.0415 71.6548 -64.9511 71.7533C-65.8948 71.8446 -66.3855 71.9144 -66.3855 71.9144C-66.3855 71.9144 -66.8886 71.9628 -67.8055 72.0613C-68.5397 72.1527 -69.5119 72.2082 -70.7009 72.3766L-72.7996 56.1145ZM-54.4381 51.6874C-52.9822 51.7429 -51.4727 51.7929 -49.87 51.8413C-48.2888 51.9881 -46.6181 52.1708 -44.8901 52.3446C-44.0162 52.4216 -43.121 52.5201 -42.2185 52.5971C-41.8406 52.6383 -41.511 52.7098 -41.1349 52.7582L-41.6311 56.1934L-43.8695 72.4177C-44.1703 72.3693 -44.4783 72.3264 -44.7935 72.2852C-45.5348 72.2082 -46.276 72.1312 -47.0102 72.0685C-48.4857 71.9145 -49.8718 71.7676 -51.1933 71.6494C-52.5077 71.6011 -53.7683 71.5509 -54.9627 71.5312C-55.6557 71.5097 -56.32 71.4827 -56.97 71.4612L-56.8716 51.6281C-56.0819 51.6442 -55.2779 51.6659 -54.4381 51.6874ZM-33.7824 53.9744C-30.2637 54.8 -26.5428 55.527 -22.8289 56.6195L-23.7529 59.9561L-28.0969 75.7453C-31.356 74.7872 -34.5738 74.171 -37.5822 73.4439C-38.8142 73.2487 -39.9961 73.0517 -41.178 72.8565L-37.9743 53.2884C-36.6009 53.5122 -35.2025 53.729 -33.7824 53.9744ZM-9.24466 60.9216C-7.95715 61.432 -6.64276 61.9227 -5.34808 62.4259L-6.59274 65.6515L-12.4966 80.9302C-13.6928 80.4753 -14.8603 80.0274 -16.0225 79.5653C-19.2117 78.5015 -22.3255 77.3894 -25.4019 76.5011L-20.7713 60.8016H-20.7641L-19.7918 57.4791C-16.2946 58.4928 -12.8117 59.7109 -9.24466 60.9216ZM-1.42484 63.9572L0.0937195 64.6143L3.17911 65.9506L6.2645 67.2652C7.28519 67.7129 8.27908 68.2161 9.2926 68.6781C9.97845 69.0148 10.6428 69.3355 11.3554 69.6722L2.78696 87.5674C2.12976 87.2665 1.52811 86.9727 0.883484 86.6647C-0.0405273 86.2313 -0.984192 85.7477 -1.91534 85.3501L-4.73386 84.118L-7.55255 82.9002L-8.9581 82.3056L-9.87506 81.9492L-3.74734 66.7619L-2.43997 63.5505L-1.42484 63.9572ZM15.2448 71.5491C19.1127 73.5424 22.9607 75.4604 26.5546 77.495C26.8143 77.6418 27.0651 77.7887 27.3247 77.9141L17.7767 95.299C17.5171 95.1665 17.2665 95.0268 17.0069 94.8871C13.6082 92.9565 10.0321 91.1869 6.40244 89.3118C6.06039 89.1291 5.70221 88.975 5.3602 88.8013L12.6071 74.11L14.1256 70.9975C14.5035 71.1838 14.867 71.3592 15.2448 71.5491ZM31.8784 80.4394C33.5706 81.4477 35.2719 82.4327 36.9086 83.3784C37.6983 83.8476 38.504 84.315 39.308 84.7771C40.0923 85.2535 40.839 85.7352 41.6234 86.1973C42.0083 86.4426 42.3933 86.6738 42.7908 86.9102L40.9931 89.8562L32.4657 103.849C32.0879 103.625 31.7029 103.394 31.3179 103.163C30.6052 102.715 29.8764 102.268 29.1279 101.813C28.3651 101.372 27.5969 100.917 26.8126 100.477C25.26 99.5525 23.6646 98.6445 22.0565 97.6988C21.4906 97.3568 20.8819 97.0201 20.3071 96.6978L30.0304 79.4042C30.6411 79.7481 31.2696 80.0973 31.8784 80.4394ZM57.7736 96.4039L46.9113 113.006C43.9459 111.061 40.0905 108.57 35.517 105.717C35.329 105.604 35.1393 105.479 34.9441 105.375L45.3802 88.5077C45.5754 88.6205 45.7724 88.753 45.9676 88.8568C50.7093 91.837 54.7456 94.4034 57.7736 96.4039ZM64.2721 100.708C64.2721 100.708 66.0626 101.926 69.2035 104.051C69.5956 104.338 70.0505 104.632 70.4982 104.94L68.5392 107.795L59.2705 121.304C58.83 121.003 58.4112 120.702 58.0047 120.444C54.9408 118.367 53.2055 117.177 53.2055 117.177C53.2055 117.177 51.8213 116.253 49.3645 114.624L60.3252 98.0858C62.8376 99.7496 64.2721 100.708 64.2721 100.708ZM74.8334 107.941C76.9805 109.446 79.457 111.138 82.0804 113.021C83.0115 113.664 83.9767 114.342 84.9419 115.035L82.913 117.854L73.4063 131.202C72.4823 130.538 71.5386 129.874 70.6361 129.223C68.0414 127.363 65.649 125.726 63.5092 124.243C62.9004 123.802 62.277 123.376 61.6969 122.977L72.9728 106.655C73.5673 107.053 74.1906 107.494 74.8334 107.941ZM120.399 140.843C122.708 142.55 125.016 144.25 127.331 145.944L115.586 161.937C113.278 160.238 110.948 158.538 108.625 156.829C107.059 155.669 105.492 154.521 103.911 153.366L113.627 140.172L115.663 137.372C117.244 138.527 118.825 139.683 120.399 140.843ZM169.6 176.229L167.641 179.07L158.365 192.572C155.371 190.521 151.468 187.822 146.95 184.623C146.774 184.491 146.572 184.358 146.404 184.224L157.833 168.014C158.029 168.139 158.218 168.279 158.394 168.399C162.837 171.562 166.656 174.214 169.6 176.229ZM175.841 180.468C175.841 180.468 177.61 181.65 180.681 183.721C181.073 183.986 181.506 184.274 181.968 184.553L171.029 201.12C170.567 200.812 170.134 200.532 169.715 200.253C166.581 198.14 164.754 196.924 164.754 196.924C164.754 196.924 163.342 195.973 160.844 194.286L170.076 180.755L172.021 177.886C174.476 179.559 175.841 180.468 175.841 180.468ZM193.529 192.032C194.193 192.444 194.894 192.887 195.58 193.327C195.859 193.496 196.133 193.677 196.419 193.852L194.573 196.791H194.595L185.928 210.693C185.634 210.51 185.347 210.343 185.068 210.146C184.341 209.706 183.648 209.258 182.962 208.81C179.345 206.564 176.206 204.508 173.554 202.78L182.522 189.068L184.418 186.172C186.99 187.856 190.053 189.849 193.529 192.032ZM199.637 195.733C200.316 196.139 200.995 196.551 201.7 196.873C203.149 197.552 204.569 198.349 206.121 198.917C206.891 199.225 207.674 199.547 208.458 199.875C208.983 200.036 209.479 200.205 210.003 200.386L208.913 203.652L203.688 219.183C203.002 218.945 202.289 218.714 201.632 218.497C200.575 218.064 199.526 217.643 198.498 217.231C196.421 216.442 194.532 215.419 192.63 214.509C191.686 214.076 190.804 213.558 189.915 213.048C189.523 212.817 189.131 212.586 188.719 212.355L196.98 198.202L198.708 195.215C199.028 195.39 199.344 195.573 199.637 195.733ZM232.31 203.436C234.842 203.317 237.396 203.058 239.928 202.723L242.642 222.382C239.494 222.794 236.334 223.102 233.094 223.27C230.933 223.34 228.729 223.319 226.555 223.256L227.198 203.43C228.89 203.478 230.596 203.498 232.31 203.436ZM242.563 202.309C246.705 201.63 250.754 200.679 254.643 199.497C254.916 199.427 255.175 199.343 255.428 199.273L256.429 202.583L261.144 218.276C260.85 218.36 260.556 218.437 260.241 218.54C255.743 219.905 250.888 221.044 245.874 221.877L242.563 202.309ZM273.97 192.278C277.111 190.894 279.923 189.521 282.378 188.311V210.236C282.259 210.291 282.161 210.341 282.041 210.383C281.824 210.488 281.615 210.592 281.398 210.691L274.774 195.72L273.383 192.537C273.58 192.444 273.775 192.367 273.97 192.278ZM285.107 186.932C285.345 186.799 285.638 186.667 285.877 186.533L287.465 189.604L294.97 204.177C292.325 205.52 289.018 207.206 285.107 209.004V186.932ZM290.06 188.268L288.423 185.204C290.984 183.832 292.416 183.063 292.416 183.063C292.416 183.063 294.243 182.05 297.403 180.271C297.829 180.04 298.27 179.782 298.739 179.508L300.453 182.51L308.624 196.705C308.135 196.992 307.658 197.258 307.232 197.516C303.868 199.399 301.944 200.468 301.944 200.468C301.944 200.468 300.413 201.286 297.684 202.742L290.038 188.268H290.06ZM302.985 181.049L301.235 178.047C303.866 176.508 306.992 174.653 310.468 172.506C311.412 171.925 312.372 171.324 313.378 170.707L315.19 173.654L323.864 187.541C322.843 188.184 321.864 188.8 320.892 189.387C317.269 191.626 314.001 193.578 311.245 195.172L302.985 181.049ZM344.695 150.133C346.284 149.062 347.913 147.971 349.521 146.866C351.899 145.251 354.277 143.641 356.635 142.032L358.595 144.887L367.793 158.425C365.437 160.04 363.057 161.672 360.679 163.288C359.057 164.378 357.439 165.49 355.817 166.583L344.695 150.133ZM407.215 108.885C407.215 108.885 409.083 107.78 412.342 105.799C412.775 105.554 413.223 105.268 413.706 105.01L423.793 122.079C423.324 122.352 422.891 122.618 422.479 122.864C419.317 124.76 417.526 125.851 417.526 125.851C417.526 125.851 416.106 126.718 413.608 128.258L403.165 111.384C405.761 109.788 407.215 108.885 407.215 108.885ZM564.447 71.7012C565.587 72.0021 566.783 72.303 567.965 72.6254L567.098 75.9762L562.951 91.8227C561.873 91.5361 560.811 91.2569 559.782 90.9972C555.941 90.1017 552.501 89.4085 549.618 88.8837L553.052 69.3443C556.311 69.9389 560.167 70.7019 564.447 71.7012ZM610.605 88.506C613.298 89.7722 615.963 91.0938 618.586 92.4442L609.549 110.101C607.094 108.835 604.588 107.61 602.085 106.407C600.371 105.602 598.672 104.818 596.958 104.042L603.673 89.0986L603.681 89.1203L605.108 85.9572C606.934 86.7847 608.78 87.632 610.605 88.506ZM660.207 117.322C661.774 118.406 663.173 119.366 664.412 120.233L653.087 136.52C651.905 135.694 650.548 134.77 649.051 133.742C646.952 132.293 644.533 130.713 641.924 128.985C641.729 128.867 641.553 128.74 641.371 128.622L652.178 111.985C652.353 112.098 652.562 112.231 652.743 112.356C655.485 114.181 658.01 115.832 660.207 117.322ZM688.242 137.834C689.144 138.527 690.088 139.247 691.012 139.996L678.716 155.576C677.835 154.849 676.911 154.141 676.051 153.477C672.819 150.959 669.916 148.747 667.461 146.9L679.346 131.027C681.897 132.924 684.906 135.225 688.242 137.834ZM724.874 168.617C726.21 169.835 727.56 171.051 728.896 172.276V177.11L717.899 189.093C715.829 187.177 713.702 185.266 711.596 183.371C710.183 182.069 708.708 180.796 707.288 179.517L720.446 164.665C721.923 165.972 723.384 167.289 724.874 168.617ZM769.152 211.432L766.661 213.832L754.897 225.235C752.42 222.674 749.188 219.345 745.349 215.503C745.181 215.356 745.007 215.174 744.86 215.041L758.899 201C759.067 201.168 759.236 201.337 759.409 201.489C763.319 205.424 766.619 208.83 769.152 211.432ZM774.51 216.993C774.51 216.993 775.993 218.567 778.602 221.317C778.939 221.666 779.295 222.051 779.666 222.457L765.227 236.051C764.842 235.658 764.5 235.288 764.163 234.931C761.631 232.238 760.134 230.699 760.134 230.699C760.134 230.699 758.987 229.503 756.953 227.356L771.237 213.608C773.341 215.77 774.51 216.993 774.51 216.993ZM789.269 232.813C790.039 233.638 790.821 234.493 791.64 235.374L776.951 248.743C776.188 247.869 775.398 247.029 774.677 246.211C771.865 243.168 769.353 240.474 767.249 238.214L779.189 227.028L781.75 224.649C783.89 226.942 786.443 229.705 789.269 232.813ZM799.859 274.648C796.677 270.953 793.536 267.308 790.451 263.811L802.762 253.009L805.357 250.722C808.483 254.276 811.679 257.97 814.912 261.74L799.859 274.648ZM783.233 263.565V293.824C770.488 278.335 757.624 263.707 747.328 252.596C741.9 246.739 737.214 241.864 733.736 238.282V211.382C736.562 214.153 739.199 216.776 741.611 219.203C746.088 223.681 749.775 227.472 752.334 230.124C754.895 232.789 756.342 234.315 756.342 234.315C756.342 234.315 757.798 235.854 760.349 238.528C762.889 241.221 766.498 245.09 770.785 249.757C774.51 253.814 778.727 258.5 783.233 263.565ZM671.601 182.05C666.754 178.28 661.724 174.529 656.633 170.904C647.106 164.133 637.265 157.788 627.737 152.309C625.862 151.218 623.973 150.176 622.119 149.153V122.953C628.379 126.576 634.129 130.18 639.054 133.364C641.648 135.085 644.019 136.659 646.105 138.08C648.176 139.514 650.016 140.773 651.506 141.794C654.457 143.915 656.165 145.117 656.165 145.117C656.165 145.117 656.565 145.417 657.355 145.976C658.159 146.549 659.306 147.396 660.768 148.48C663.475 150.446 667.203 153.244 671.603 156.657L671.601 182.05ZM615.782 145.797C610.571 143.111 605.577 140.739 600.973 138.71C598.93 137.851 597.035 136.975 595.139 136.233C593.264 135.492 591.495 134.82 589.844 134.156C588.171 133.484 586.563 132.988 585.102 132.456C583.641 131.946 582.318 131.421 581.066 131.057C578.597 130.294 576.666 129.693 575.345 129.281C574.009 128.903 573.301 128.715 573.301 128.715C573.301 128.715 572.594 128.527 571.251 128.161C570.084 127.861 568.404 127.377 566.291 126.902V98.1986C569.985 99.2768 573.908 100.521 578 101.99C585.03 104.558 592.487 107.664 599.804 111.161C605.267 113.73 610.646 116.52 615.78 119.36L615.782 145.797ZM559.984 125.507C558.795 125.29 557.592 125.088 556.311 124.828C555.409 124.682 554.506 124.492 553.563 124.345C552.598 124.22 551.618 124.092 550.617 123.953C548.624 123.666 546.489 123.372 544.287 123.204C535.452 122.344 524.919 122.273 513.894 123.77C512.76 123.917 511.6 124.092 510.481 124.259V93.2179C514.055 92.7344 517.405 92.3994 520.483 92.2311C523.331 92.0287 525.925 92.0627 528.219 92.0358C530.499 92.1057 532.494 92.1828 534.152 92.2741C537.495 92.5535 539.413 92.7361 539.413 92.7361C539.413 92.7361 539.882 92.7577 540.777 92.8902C541.68 93.0084 542.994 93.1838 544.688 93.4005C548.024 93.8769 552.83 94.7581 558.552 96.0941C559.006 96.2195 559.476 96.3396 559.986 96.4649L559.984 125.507ZM504.136 125.355C503.919 125.391 503.667 125.432 503.429 125.48C502.743 125.634 502.037 125.774 501.309 125.928C499.91 126.258 498.497 126.559 497.084 126.872C491.426 128.285 485.767 129.907 480.191 131.804C474.631 133.742 469.11 135.805 463.81 138.094C461.138 139.192 458.563 140.41 455.969 141.57C455.535 141.773 455.109 141.989 454.674 142.172V111.384C462.179 107.76 470.427 104.184 478.778 101.218C486.263 98.5318 493.867 96.3628 501.001 94.8799C502.057 94.6417 503.114 94.4392 504.134 94.2494L504.136 125.355ZM448.331 145.215C438.545 150.085 429.647 155.065 422.157 159.487C414.63 163.916 408.462 167.792 404.151 170.519C401.781 172.045 399.99 173.199 398.849 173.926V143.899C400.101 143.08 401.319 142.276 402.5 141.527C407.803 138.078 412.244 135.273 415.35 133.35C418.47 131.419 420.239 130.321 420.239 130.321C420.239 130.321 422.023 129.25 425.171 127.375C426.723 126.439 428.626 125.332 430.829 124.053C433.026 122.828 435.481 121.366 438.216 119.898C441.279 118.191 444.693 116.386 448.33 114.539L448.331 145.215ZM392.519 178.061C391.973 178.417 391.379 178.803 390.757 179.202C386.519 182.001 380.482 186.031 373.291 190.906C364.575 196.789 354.195 203.946 343.037 211.396V181.453C349.697 177.06 356.67 172.344 363.601 167.629C373.722 160.73 383.761 153.917 392.517 148.089V178.061H392.519ZM336.714 215.587C331.371 219.106 325.886 222.633 320.367 226.068C315.498 229.104 310.547 232.064 305.656 234.862C300.746 237.647 295.87 240.326 291.1 242.704C289.793 243.362 288.505 243.999 287.211 244.621V213.825C292.113 211.565 296.101 209.502 299.018 207.997C302.474 206.136 304.46 205.065 304.46 205.065C304.46 205.065 306.419 203.982 309.847 202.064C313.197 200.119 318.03 197.348 323.633 193.857C327.634 191.416 332.033 188.61 336.714 185.589V215.587ZM169.251 229.705C165.174 226.879 161.06 224.01 156.961 221.107C143.972 211.873 131.115 202.408 119.776 194.054V171.521C128.59 177.964 136.956 183.995 143.929 188.92C154.555 196.426 161.836 201.274 161.836 201.274C161.836 201.274 163.633 202.499 166.816 204.639C167.543 205.108 168.368 205.647 169.249 206.228V229.705H169.251ZM113.439 189.402C110.69 187.387 108.038 185.449 105.542 183.622C98.5333 178.488 92.658 174.255 88.5305 171.281C84.3689 168.349 82.0104 166.678 82.0104 166.678C82.0104 166.678 79.6325 165.005 75.4494 162.088C72.4841 160.017 68.5732 157.345 63.9568 154.259V130.941C65.1172 131.767 66.3564 132.599 67.6224 133.509C77.9815 140.813 91.734 150.88 105.535 161.06C108.158 162.99 110.808 164.957 113.439 166.88V189.402ZM57.6123 150.077C50.3654 145.347 41.8813 140.01 32.507 134.693C24.8823 130.384 16.6773 126.087 8.13037 122.233V96.0959C10.2917 97.2152 12.453 98.3276 14.5034 99.4953C16.1687 100.439 17.8467 101.315 19.4494 102.244C21.0574 103.176 22.6314 104.098 24.1786 104.986C24.9271 105.448 25.697 105.867 26.4312 106.308C27.1653 106.763 27.8924 107.218 28.6212 107.658C30.034 108.532 31.42 109.372 32.7344 110.184C38.0294 113.479 42.4148 116.312 45.4572 118.341C48.5211 120.371 50.2705 121.524 50.2705 121.524C50.2705 121.524 52.0201 122.706 55.0624 124.776C55.8325 125.308 56.692 125.889 57.616 126.539V150.077H57.6123ZM1.80746 119.484C1.76627 119.47 1.70901 119.436 1.64636 119.407C-9.19626 114.881 -20.5617 111.285 -31.51 109.27C-32.9085 109.054 -34.2732 108.83 -35.6162 108.592C-36.2877 108.493 -36.9735 108.375 -37.6235 108.255C-38.2878 108.156 -38.9879 108.122 -39.6522 108.052C-40.9809 107.913 -42.3383 107.78 -43.633 107.66C-44.2973 107.576 -44.9277 107.513 -45.5992 107.451C-46.2295 107.429 -46.8724 107.415 -47.5295 107.381C-47.5779 107.381 -47.6423 107.381 -47.6906 107.381V77.2766C-47.6495 77.2766 -47.6137 77.2766 -47.5779 77.2766C-46.8705 77.3536 -46.1794 77.4091 -45.4578 77.4932C-44.7307 77.5703 -44.0019 77.7243 -43.248 77.8354C-41.7439 78.0807 -40.1842 78.3315 -38.603 78.5984C-35.4138 79.3685 -32.0419 79.9827 -28.559 81.0537C-25.0618 81.9707 -21.4518 83.2781 -17.8221 84.496C-16.0099 85.2034 -14.1638 85.9162 -12.3373 86.6236L-10.9529 87.1555L-9.5885 87.7572L-6.83975 88.9465L-4.09097 90.1356C-3.16699 90.5278 -2.24481 90.9952 -1.35663 91.4233C-0.278656 91.9194 0.742035 92.4316 1.80569 92.9134L1.80746 119.484ZM-54.0118 107.256C-54.3413 107.27 -54.6691 107.277 -55.0254 107.284C-56.2216 107.333 -57.4177 107.383 -58.5996 107.445C-59.7599 107.494 -60.8933 107.515 -62.0269 107.662C-70.9176 108.403 -78.1647 110.006 -83.2001 111.16C-85.7035 111.803 -87.691 112.315 -89.0268 112.65C-90.3412 113.042 -91.07 113.259 -91.07 113.259C-91.07 113.259 -91.7773 113.483 -93.0917 113.882C-93.7632 114.077 -94.5887 114.33 -95.5467 114.616C-96.4904 114.939 -97.5829 115.317 -98.7934 115.743C-100.011 116.169 -101.368 116.631 -102.837 117.163C-103.075 117.226 -103.27 117.324 -103.508 117.408V86.199C-96.7519 83.6595 -90.3431 81.6858 -84.8242 80.3784C-84.1384 80.2101 -83.4329 80.0292 -82.7542 79.8537C-82.0755 79.7212 -81.4039 79.5888 -80.7808 79.4473C-79.4735 79.1876 -78.2344 78.9297 -77.0866 78.6915C-74.7856 78.2796 -72.7639 78.0056 -71.0985 77.7405C-69.4404 77.4539 -68.1475 77.3912 -67.2575 77.2783C-66.3765 77.187 -65.8858 77.1314 -65.8858 77.1314C-65.8858 77.1314 -65.4024 77.0688 -64.5214 76.9775C-63.6476 76.8933 -62.4299 76.8934 -60.8344 76.8164C-60.0501 76.7752 -59.1762 76.732 -58.2254 76.6837C-57.2602 76.6765 -56.1966 76.7321 -55.0989 76.7751C-54.7425 76.7751 -54.3862 76.7965 -54.0083 76.8037V107.256H-54.0118ZM-109.824 119.918C-110.803 120.324 -111.776 120.765 -112.796 121.198C-114.664 121.988 -116.587 122.835 -118.575 123.808C-126.571 127.565 -135.622 132.476 -144.896 138.381C-149.688 141.375 -154.5 144.628 -159.292 148.091V116.511C-155.304 113.712 -150.87 110.76 -146.155 107.744C-139.671 103.708 -132.627 99.6224 -125.45 95.942C-120.26 93.2484 -114.985 90.8144 -109.822 88.6795L-109.824 119.918ZM-165.643 152.73C-168.098 154.569 -170.505 156.425 -172.89 158.327C-188.867 170.955 -203.64 184.953 -215.125 196.721V163.064C-208.186 156.383 -201.548 150.296 -195.904 145.385C-193.548 143.341 -191.392 141.454 -189.468 139.83C-187.516 138.214 -185.817 136.779 -184.438 135.617C-181.591 133.35 -179.997 132.05 -179.997 132.05C-179.997 132.05 -179.578 131.713 -178.842 131.106C-178.072 130.49 -176.975 129.623 -175.521 128.504C-173.073 126.594 -169.694 124.019 -165.643 121.039V152.73ZM-278.175 223.829C-278.175 223.829 -279.239 225.11 -281.126 227.397L-296.46 214.831C-294.544 212.494 -293.459 211.18 -293.459 211.18C-293.459 211.18 -292.068 209.507 -289.661 206.589C-289.339 206.204 -289.004 205.827 -288.647 205.393L-273.455 218.161C-273.797 218.587 -274.134 218.979 -274.449 219.343C-276.827 222.199 -278.175 223.829 -278.175 223.829ZM-282.981 229.678C-285.234 232.428 -288.158 236.072 -291.529 240.326C-291.675 240.501 -291.808 240.675 -291.928 240.858L-307.505 228.545C-307.358 228.369 -307.211 228.196 -307.093 228.006C-303.637 223.654 -300.65 219.961 -298.385 217.154L-295.685 219.33L-282.981 229.678ZM-293.754 243.166C-296.489 246.643 -299.442 250.455 -302.54 254.492L-318.292 242.459C-315.151 238.316 -312.143 234.441 -309.374 230.916L-293.754 243.166ZM-304.323 256.837C-307.108 260.524 -310.003 264.371 -312.913 268.302L-326.071 258.577L-328.87 256.522C-325.897 252.52 -322.966 248.588 -320.119 244.844L-317.348 246.936L-304.323 256.837ZM-314.668 270.702C-316.347 272.97 -318.018 275.271 -319.684 277.58C-320.817 279.161 -321.943 280.721 -323.062 282.295L-336.382 272.78V272.758L-339.214 270.751C-338.074 269.155 -336.913 267.568 -335.773 265.972C-334.066 263.615 -332.36 261.278 -330.646 258.941L-314.668 270.702ZM-346.46 287.122L-349.307 285.162C-346.635 281.265 -343.829 277.243 -340.941 273.213L-324.776 284.701C-327.575 288.625 -330.295 292.529 -332.926 296.32C-332.988 296.334 -333.044 296.356 -333.087 296.356L-346.46 287.122ZM423.955 57.5277L382.475 80.545L380.93 77.753L422.388 54.7302L423.955 57.5277ZM384.545 84.2811L383.007 81.496L424.465 58.466L426.017 61.2707L384.545 84.2811ZM378.853 74.0241L420.318 50.9941L421.849 53.7988L380.403 76.8164L378.853 74.0241ZM436.846 86.3298C433.656 87.9524 430.62 89.5124 427.779 91.0383L434.117 86.0362C434.992 86.3245 435.916 86.4211 436.846 86.3298ZM466.616 71.5491L473.533 70.9472C471.882 71.4935 470.231 72.0594 468.602 72.6271C467.244 73.1304 465.887 73.6213 464.551 74.1317C465.441 73.444 466.148 72.5484 466.616 71.5491ZM502.745 31.8738L456.796 43.6208L456.011 40.5153L501.939 28.7684L502.745 31.8738ZM454.943 36.3728L500.899 24.6187L501.683 27.7313L455.72 39.4711L454.943 36.3728ZM457.86 47.7543L457.075 44.6488L502.997 32.9019L503.787 36.0075L457.86 47.7543ZM507.753 62.9703C505.474 63.264 503.13 63.6205 500.759 64.0199L505.341 62.0193C506.061 62.4885 506.879 62.8181 507.753 62.9703ZM-352.118 325.158L-368.843 314.504C-367.144 311.832 -365.101 308.676 -362.785 305.15C-362.176 304.199 -361.526 303.226 -360.862 302.232L-357.974 304.149L-344.32 313.173C-344.991 314.16 -345.6 315.097 -346.209 316.042C-348.481 319.492 -350.469 322.57 -352.118 325.158Z" fill="url(#paint0_linear_32_3731)"/>
<defs>
<linearGradient id="paint0_linear_32_3731" x1="244.5" y1="0" x2="244.5" y2="340" gradientUnits="userSpaceOnUse">
<stop stop-color="#047C88"/>
<stop offset="1" stop-color="#2AA7D8"/>
</linearGradient>
</defs>
</svg>
