<svg width="477" height="548" viewBox="0 0 477 548" fill="none" xmlns="http://www.w3.org/2000/svg">
<g clip-path="url(#clip0_32_2858)">
<g style="mix-blend-mode:multiply" opacity="0.3">
<path d="M-102.477 394.015V379.928H-61.6698V360.854H-33.8009V357.324H-14.534V320.082H-15.5481V316.617H35.1894V320.082H34.5949V406.126H43.8612V271.215H96.5219V235.787H93.4098V232.192H160.512V235.787H158.484V251.59H195.479V188.798H315.766V271.215H346.363V253.76H396.925V230.152H431.438V225.813H455.285C455.285 225.813 475.392 225.813 477 225.813V547.968H-121.708V393.982H-102.477V394.015Z" fill="#06AEBD" fill-opacity="0.6"/>
<path d="M10.8872 418.885H14.209V423.128H10.8872V418.885Z" fill="white"/>
<path d="M16.1673 418.626H19.4891V422.869H16.1673V418.626Z" fill="white"/>
<path d="M42.5675 459.203H45.8893V463.446H42.5675V459.203Z" fill="white"/>
<path d="M32.3571 467.591H35.3293V471.671H32.3571V467.591Z" fill="white"/>
<path d="M66.4851 285.917H70.7511V290.321H66.4851V285.917Z" fill="white"/>
<path d="M73.1638 285.917H76.6605V289.479H73.1638V285.917Z" fill="white"/>
<path d="M79.9825 285.658H84.2834V290.062H79.9825V285.658Z" fill="white"/>
<path d="M68.0586 294.629H71.7651V298.417H68.0586V294.629Z" fill="white"/>
<path d="M134.182 245.891H138.483V250.295H134.182V245.891Z" fill="white"/>
<path d="M140.93 245.891H144.392V249.453H140.93V245.891Z" fill="white"/>
<path d="M134.706 252.562H138.413V256.351H134.706V252.562Z" fill="white"/>
<path d="M75.052 294.24H78.7585V298.029H75.052V294.24Z" fill="white"/>
<path d="M80.9615 293.981H84.6681V297.77H80.9615V293.981Z" fill="white"/>
<path d="M228.313 198.546H232.614V202.95H228.313V198.546Z" fill="white"/>
<path d="M235.027 198.546H238.524V202.14H235.027V198.546Z" fill="white"/>
<path d="M241.846 198.286H246.147V202.691H241.846V198.286Z" fill="white"/>
<path d="M401.471 240.386H404.968V243.948H401.471V240.386Z" fill="white"/>
<path d="M408.324 240.126H412.59V244.531H408.324V240.126Z" fill="white"/>
<path d="M400.632 275.619H404.128V279.214H400.632V275.619Z" fill="white"/>
<path d="M407.485 275.328H411.786V279.732H407.485V275.328Z" fill="white"/>
<path d="M229.957 207.257H233.663V211.078H229.957V207.257Z" fill="white"/>
<path d="M354.755 273.126H359.056V277.53H354.755V273.126Z" fill="white"/>
<path d="M361.468 273.126H364.93V276.688H361.468V273.126Z" fill="white"/>
<path d="M356.363 281.837H360.07V285.658H356.363V281.837Z" fill="white"/>
<path d="M236.95 206.868H240.657V210.657H236.95V206.868Z" fill="white"/>
<path d="M205.025 328.891H208.732V332.68H205.025V328.891Z" fill="white"/>
<path d="M212.019 328.47H215.725V332.291H212.019V328.47Z" fill="white"/>
<path d="M242.86 206.609H246.566V210.398H242.86V206.609Z" fill="white"/>
<path d="M434.2 272.413H438.466V277.757H434.2V272.413Z" fill="white"/>
<path d="M444.725 273.028H447.977V276.85H444.725V273.028Z" fill="white"/>
<path d="M466.265 313.994H471.23V318.949H466.265V313.994Z" fill="white"/>
<path d="M442.802 281.027H447.837V286.176H442.802V281.027Z" fill="white"/>
<path d="M396.191 317.751H399.967V321.637H396.191V317.751Z" fill="white"/>
<path d="M403.604 317.427H408.255V322.22H403.604V317.427Z" fill="white"/>
<path d="M398.254 326.753H402.275V330.898H398.254V326.753Z" fill="white"/>
<path d="M404.688 326.494H408.709V330.639H404.688V326.494Z" fill="white"/>
<path d="M129.881 306.546H133.587V310.367H129.881V306.546Z" fill="white"/>
<path d="M136.874 306.125H140.581V309.914H136.874V306.125Z" fill="white"/>
<path d="M142.749 305.898H146.455V309.719H142.749V305.898Z" fill="white"/>
<path d="M157.015 319.014H160.722V322.835H157.015V319.014Z" fill="white"/>
<path d="M164.009 318.593H167.715V322.414H164.009V318.593Z" fill="white"/>
<path d="M169.918 318.366H173.625V322.155H169.918V318.366Z" fill="white"/>
<path d="M67.2544 302.174H72.0798V307.129H67.2544V302.174Z" fill="white"/>
<path d="M75.7164 303.113H79.423V306.934H75.7164V303.113Z" fill="white"/>
<path d="M49.1414 338.768H52.8479V342.589H49.1414V338.768Z" fill="white"/>
<path d="M57.044 346.119H60.7505V349.908H57.044V346.119Z" fill="white"/>
<path d="M81.6259 302.886H85.3324V306.675H81.6259V302.886Z" fill="white"/>
<path d="M45.3649 285.917H49.6309V290.321H45.3649V285.917Z" fill="white"/>
<path d="M52.0087 285.917H55.5054V289.512H52.0087V285.917Z" fill="white"/>
<path d="M58.8622 285.658H63.1632V290.062H58.8622V285.658Z" fill="white"/>
<path d="M121.523 245.697H125.789V250.101H121.523V245.697Z" fill="white"/>
<path d="M128.202 245.697H131.699V249.259H128.202V245.697Z" fill="white"/>
<path d="M113.901 245.437H118.202V249.842H113.901V245.437Z" fill="white"/>
<path d="M73.5834 310.95H77.29V314.739H73.5834V310.95Z" fill="white"/>
<path d="M63.7926 353.826H67.4991V357.648H63.7926V353.826Z" fill="white"/>
<path d="M73.0939 342.071H76.8004V345.86H73.0939V342.071Z" fill="white"/>
<path d="M75.5765 382.421H79.2831V386.243H75.5765V382.421Z" fill="white"/>
<path d="M80.5769 310.529H84.2834V314.35H80.5769V310.529Z" fill="white"/>
<path d="M228.803 214.381H233.104V218.753H228.803V214.381Z" fill="white"/>
<path d="M235.517 214.381H239.013V217.944H235.517V214.381Z" fill="white"/>
<path d="M242.335 214.122H246.636V218.526H242.335V214.122Z" fill="white"/>
<path d="M230.446 223.093H234.153V226.914H230.446V223.093Z" fill="white"/>
<path d="M237.44 222.672H241.146V226.493H237.44V222.672Z" fill="white"/>
<path d="M243.349 222.445H247.056V226.234H243.349V222.445Z" fill="white"/>
<path d="M207.403 244.142H211.109V247.931H207.403V244.142Z" fill="white"/>
<path d="M229.642 230.638H234.433V235.56H229.642V230.638Z" fill="white"/>
<path d="M238.069 231.577H241.776V235.366H238.069V231.577Z" fill="white"/>
<path d="M243.979 231.318H247.685V235.139H243.979V231.318Z" fill="white"/>
<path d="M235.971 239.414H239.678V243.203H235.971V239.414Z" fill="white"/>
<path d="M242.965 238.993H246.671V242.782H242.965V238.993Z" fill="white"/>
<path d="M206.214 197.801H211.005V202.755H206.214V197.801Z" fill="white"/>
<path d="M214.641 198.707H218.348V202.529H214.641V198.707Z" fill="white"/>
<path d="M220.551 198.481H224.257V202.27H220.551V198.481Z" fill="white"/>
<path d="M212.963 206.577H215.76V210.366H212.963V206.577Z" fill="white"/>
<path d="M207.927 212.6H210.69V216.389H207.927V212.6Z" fill="white"/>
<path d="M216.18 216.324H218.977V220.146H216.18V216.324Z" fill="white"/>
<path d="M221.844 223.19H224.607V227.011H221.844V223.19Z" fill="white"/>
<path d="M244.049 246.862H246.846V250.651H244.049V246.862Z" fill="white"/>
<path d="M243.769 260.075H246.566V263.896H243.769V260.075Z" fill="white"/>
<path d="M219.537 206.156H223.243V209.977H219.537V206.156Z" fill="white"/>
<path d="M59.8413 293.981H63.5479V297.77H59.8413V293.981Z" fill="white"/>
<path d="M52.708 301.332H56.4146V305.121H52.708V301.332Z" fill="white"/>
<path d="M73.5135 329.474H78.304V334.396H73.5135V329.474Z" fill="white"/>
<path d="M156.421 291.39H160.127V295.179H156.421V291.39Z" fill="white"/>
<path d="M163.239 299.065H166.946V302.886H163.239V299.065Z" fill="white"/>
<path d="M172.506 287.342H176.212V291.163H172.506V287.342Z" fill="white"/>
<path d="M172.925 274.745H177.716V279.7H172.925V274.745Z" fill="white"/>
<path d="M321.256 315.225H324.963V319.046H321.256V315.225Z" fill="white"/>
<path d="M328.04 322.932H331.746V326.721H328.04V322.932Z" fill="white"/>
<path d="M337.341 311.177H341.048V314.966H337.341V311.177Z" fill="white"/>
<path d="M337.761 298.579H342.551V303.502H337.761V298.579Z" fill="white"/>
<path d="M206.004 271.085H209.711V274.874H206.004V271.085Z" fill="white"/>
<path d="M206.424 258.488H211.214V263.443H206.424V258.488Z" fill="white"/>
<path d="M81.2412 319.402H84.9478V323.223H81.2412V319.402Z" fill="white"/>
<path d="M134.881 273.482H138.588V277.303H134.881V273.482Z" fill="white"/>
<path d="M129.636 282.582H133.342V286.371H129.636V282.582Z" fill="white"/>
<path d="M140.371 276.72H144.077V280.542H140.371V276.72Z" fill="white"/>
<path d="M140.616 286.306H144.322V290.127H140.616V286.306Z" fill="white"/>
<path d="M124.251 258.002H127.957V261.824H124.251V258.002Z" fill="white"/>
<path d="M135.545 282.355H139.252V286.176H135.545V282.355Z" fill="white"/>
<path d="M134.531 289.998H138.238V293.819H134.531V289.998Z" fill="white"/>
<path d="M135.161 298.903H138.867V302.724H135.161V298.903Z" fill="white"/>
<path d="M59.1769 311.986H62.8834V315.775H59.1769V311.986Z" fill="white"/>
<path d="M206.948 235.949H211.739V240.871H206.948V235.949Z" fill="white"/>
<path d="M215.375 236.888H219.082V240.709H215.375V236.888Z" fill="white"/>
<path d="M221.32 236.661H225.026V240.45H221.32V236.661Z" fill="white"/>
<path d="M225.376 253.177H230.167V258.1H225.376V253.177Z" fill="white"/>
<path d="M231.775 275.49H235.482V279.279H231.775V275.49Z" fill="white"/>
<path d="M220.026 287.601H223.733V291.39H220.026V287.601Z" fill="white"/>
<path d="M212.788 295.309H216.494V299.13H212.788V295.309Z" fill="white"/>
<path d="M203.941 321.993H207.648V325.814H203.941V321.993Z" fill="white"/>
<path d="M203.137 311.533H206.843V315.354H203.137V311.533Z" fill="white"/>
<path d="M217.019 265.515H220.725V269.304H217.019V265.515Z" fill="white"/>
<path d="M220.62 300.36H225.411V305.283H220.62V300.36Z" fill="white"/>
<path d="M229.048 301.267H232.754V305.056H229.048V301.267Z" fill="white"/>
<path d="M234.957 301.041H238.664V304.829H234.957V301.041Z" fill="white"/>
<path d="M322.97 381.029H326.956V385.141H322.97V381.029Z" fill="white"/>
<path d="M329.998 381.774H333.075V384.947H329.998V381.774Z" fill="white"/>
<path d="M334.928 381.579H338.005V384.753H334.928V381.579Z" fill="white"/>
<path d="M356.853 299.939H360.559V303.761H356.853V299.939Z" fill="white"/>
<path d="M362.762 299.713H366.469V303.502H362.762V299.713Z" fill="white"/>
<path d="M358.741 372.868H362.448V376.689H358.741V372.868Z" fill="white"/>
<path d="M364.65 372.641H368.357V376.43H364.65V372.641Z" fill="white"/>
<path d="M401.611 368.723H404.583V372.544H401.611V368.723Z" fill="white"/>
<path d="M406.331 368.496H409.339V372.317H406.331V368.496Z" fill="white"/>
<path d="M441.683 353.341H444.69V357.129H441.683V353.341Z" fill="white"/>
<path d="M446.474 353.081H449.446V356.87H446.474V353.081Z" fill="white"/>
<path d="M457.803 370.277H461.195V374.584H457.803V370.277Z" fill="white"/>
<path d="M463.363 370.115H467.524V376.268H463.363V370.115Z" fill="white"/>
<path d="M318.424 288.022H323.214V292.945H318.424V288.022Z" fill="white"/>
<path d="M326.851 288.929H330.557V292.718H326.851V288.929Z" fill="white"/>
<path d="M332.76 288.702H336.467V292.524H332.76V288.702Z" fill="white"/>
<path d="M316.955 349.228H321.746V354.15H316.955V349.228Z" fill="white"/>
<path d="M325.417 350.135H329.124V353.956H325.417V350.135Z" fill="white"/>
<path d="M331.292 349.908H334.998V353.697H331.292V349.908Z" fill="white"/>
<path d="M456.859 241.875H461.824V246.959H456.859V241.875Z" fill="white"/>
<path d="M464.762 241.551H469.727V246.636H464.762V241.551Z" fill="white"/>
<path d="M47.8825 353.47H52.1835V357.874H47.8825V353.47Z" fill="white"/>
<path d="M48.8616 361.793H52.5682V365.614H48.8616V361.793Z" fill="white"/>
<path d="M48.442 369.953H52.1486V373.775H48.442V369.953Z" fill="white"/>
<path d="M451.824 251.623H456.09V256.027H451.824V251.623Z" fill="white"/>
<path d="M458.467 251.623H461.964V255.217H458.467V251.623Z" fill="white"/>
<path d="M465.321 251.364H469.587V255.768H465.321V251.364Z" fill="white"/>
<path d="M453.397 260.334H457.104V264.123H453.397V260.334Z" fill="white"/>
<path d="M460.391 259.913H464.097V263.702H460.391V259.913Z" fill="white"/>
<path d="M466.3 259.686H470.007V263.508H466.3V259.686Z" fill="white"/>
<path d="M452.593 267.879H457.383V272.802H452.593V267.879Z" fill="white"/>
<path d="M451.019 294.564H455.81V299.486H451.019V294.564Z" fill="white"/>
<path d="M456.719 329.765H461.51V334.687H456.719V329.765Z" fill="white"/>
<path d="M432.767 368.658H437.592V373.58H432.767V368.658Z" fill="white"/>
<path d="M441.718 380.77H446.509V385.692H441.718V380.77Z" fill="white"/>
<path d="M461.055 268.819H464.761V272.607H461.055V268.819Z" fill="white"/>
<path d="M434.48 304.473H438.186V308.295H434.48V304.473Z" fill="white"/>
<path d="M442.348 311.824H446.054V315.646H442.348V311.824Z" fill="white"/>
<path d="M466.964 268.56H470.671V272.381H466.964V268.56Z" fill="white"/>
<path d="M452.348 282.355H456.614V286.759H452.348V282.355Z" fill="white"/>
<path d="M437.347 251.623H440.844V255.217H437.347V251.623Z" fill="white"/>
<path d="M444.166 251.364H448.467V255.768H444.166V251.364Z" fill="white"/>
<path d="M438.082 243.171H441.578V246.733H438.082V243.171Z" fill="white"/>
<path d="M444.9 242.911H449.201V247.316H444.9V242.911Z" fill="white"/>
<path d="M452.838 234.006H457.139V238.41H452.838V234.006Z" fill="white"/>
<path d="M459.586 234.006H463.048V237.601H459.586V234.006Z" fill="white"/>
<path d="M466.37 233.747H470.671V238.151H466.37V233.747Z" fill="white"/>
<path d="M431.753 234.006H436.019V238.41H431.753V234.006Z" fill="white"/>
<path d="M438.431 234.006H441.928V237.601H438.431V234.006Z" fill="white"/>
<path d="M445.25 233.747H449.551V238.151H445.25V233.747Z" fill="white"/>
<path d="M458.922 276.655H462.629V280.444H458.922V276.655Z" fill="white"/>
<path d="M449.131 319.532H452.838V323.321H449.131V319.532Z" fill="white"/>
<path d="M458.433 307.776H462.139V311.565H458.433V307.776Z" fill="white"/>
<path d="M460.915 348.127H464.622V351.948H460.915V348.127Z" fill="white"/>
<path d="M465.915 276.234H469.622V280.023H465.915V276.234Z" fill="white"/>
<path d="M445.18 259.686H448.886V263.508H445.18V259.686Z" fill="white"/>
<path d="M444.026 265.774H447.733V269.596H444.026V265.774Z" fill="white"/>
<path d="M458.852 295.179H463.643V300.101H458.852V295.179Z" fill="white"/>
<path d="M466.58 285.108H470.286V288.929H466.58V285.108Z" fill="white"/>
<path d="M466.195 302.465H469.902V306.254H466.195V302.465Z" fill="white"/>
<path d="M433.221 319.176H437.522V323.58H433.221V319.176Z" fill="white"/>
<path d="M434.2 327.498H437.907V331.319H434.2V327.498Z" fill="white"/>
<path d="M433.781 335.659H437.487V339.48H433.781V335.659Z" fill="white"/>
<path d="M98.0955 363.38H101.802V367.168H98.0955V363.38Z" fill="white"/>
<path d="M105.963 370.698H109.67V374.52H105.963V370.698Z" fill="white"/>
<path d="M112.747 378.406H116.453V382.195H112.747V378.406Z" fill="white"/>
<path d="M122.048 366.683H125.755V370.472H122.048V366.683Z" fill="white"/>
<path d="M122.468 354.085H127.258V359.008H122.468V354.085Z" fill="white"/>
<path d="M129.321 273.514H133.622V277.918H129.321V273.514Z" fill="white"/>
<path d="M140.301 253.728H144.602V258.132H140.301V253.728Z" fill="white"/>
<path d="M140.686 260.334H144.952V264.738H140.686V260.334Z" fill="white"/>
<path d="M140.686 267.297H144.952V271.701H140.686V267.297Z" fill="white"/>
<path d="M121.034 251.558H125.3V255.962H121.034V251.558Z" fill="white"/>
<path d="M115.649 258.877H119.95V263.281H115.649V258.877Z" fill="white"/>
<path d="M133.098 360.789H136.804V364.61H133.098V360.789Z" fill="white"/>
<path d="M97.3961 394.533H101.103V398.322H97.3961V394.533Z" fill="white"/>
<path d="M108.061 275.198H111.768V279.02H108.061V275.198Z" fill="white"/>
<path d="M115.09 274.777H118.796V278.598H115.09V274.777Z" fill="white"/>
<path d="M101.837 282.064H106.103V286.468H101.837V282.064Z" fill="white"/>
<path d="M107.851 288.994H111.348V292.588H107.851V288.994Z" fill="white"/>
<path d="M113.901 282.161H118.202V286.565H113.901V282.161Z" fill="white"/>
<path d="M113.096 289.156H116.803V292.945H113.096V289.156Z" fill="white"/>
<path d="M119.181 295.114H122.887V298.903H119.181V295.114Z" fill="white"/>
<path d="M111.103 312.893H115.404V317.297H111.103V312.893Z" fill="white"/>
<path d="M118.202 318.334H121.698V321.928H118.202V318.334Z" fill="white"/>
<path d="M124.671 312.602H128.937V317.006H124.671V312.602Z" fill="white"/>
<path d="M140.266 315.678H143.972V319.467H140.266V315.678Z" fill="white"/>
<path d="M129.356 319.532H133.063V323.353H129.356V319.532Z" fill="white"/>
<path d="M116.104 326.818H120.405V331.222H116.104V326.818Z" fill="white"/>
<path d="M122.118 333.748H125.615V337.31H122.118V333.748Z" fill="white"/>
<path d="M129.636 326.559H133.937V330.963H129.636V326.559Z" fill="white"/>
<path d="M110.963 341.358H114.67V345.18H110.963V341.358Z" fill="white"/>
<path d="M133.447 339.869H137.154V343.658H133.447V339.869Z" fill="white"/>
<path d="M129.881 258.618H133.587V262.439H129.881V258.618Z" fill="white"/>
<path d="M96.7668 333.554H101.557V338.476H96.7668V333.554Z" fill="white"/>
<path d="M105.194 334.493H108.9V338.314H105.194V334.493Z" fill="white"/>
<path d="M111.103 334.234H114.81V338.055H111.103V334.234Z" fill="white"/>
<path d="M161.526 357.291H166.317V362.214H161.526V357.291Z" fill="white"/>
<path d="M169.953 358.23H173.66V362.019H169.953V358.23Z" fill="white"/>
<path d="M175.862 357.971H179.569V361.793H175.862V357.971Z" fill="white"/>
<path d="M173.24 260.431H178.031V265.354H173.24V260.431Z" fill="white"/>
<path d="M181.702 261.37H185.409V265.159H181.702V261.37Z" fill="white"/>
<path d="M187.577 261.111H191.283V264.933H187.577V261.111Z" fill="white"/>
</g>
</g>
<defs>
<clipPath id="clip0_32_2858">
<rect width="1466" height="548" fill="white" transform="matrix(-1 0 0 1 477 0)"/>
</clipPath>
</defs>
</svg>
