<svg width="778" height="312" viewBox="0 0 778 312" fill="none" xmlns="http://www.w3.org/2000/svg">
<path d="M0 320.828L4.49836 323.543C4.49836 323.543 4.79185 323.059 5.34517 322.158C5.88417 321.292 6.68117 319.997 7.68933 318.381C7.95435 317.962 8.24269 317.507 8.53636 317.038L11.4604 318.884L25.3096 327.637C25.0159 328.099 24.749 328.533 24.484 328.932C22.5805 332.03 21.483 333.802 21.483 333.802L23.4831 335.005V335.019L25.9811 336.509C25.9811 336.509 27.052 334.774 28.9465 331.738C30.8697 328.633 33.717 324.211 37.1873 318.929C39.7677 314.977 42.7062 310.555 45.9169 305.861V338.979H48.2733H52.2469V296.646C55.8766 291.413 59.7104 286.026 63.5783 280.674C73.4629 266.963 83.7164 253.502 91.5937 243.589C95.5171 238.622 98.8621 234.502 101.17 231.654C101.373 231.43 101.548 231.22 101.731 230.997V270.537C95.5045 278.933 89.0564 287.964 82.8033 297.108C72.6394 311.884 62.9731 326.981 54.9991 340H58.7274H63.3438C70.8002 327.959 79.5299 314.416 88.6444 301.124C92.9672 294.819 97.3668 288.594 101.732 282.557V338.979H104.111H108.055V273.917C114.617 265.095 120.855 256.98 126.354 250.146C131.727 243.388 136.372 237.861 139.616 234.005C142.925 230.178 144.779 228.002 144.779 228.002C144.779 228.002 145.241 227.456 146.136 226.435C147.017 225.434 148.339 223.931 149.997 222.049C151.648 220.152 153.725 217.914 156.082 215.311C156.544 214.787 157.047 214.255 157.55 213.716V338.977H159.935H163.88V206.957C163.964 206.865 164.041 206.788 164.118 206.711C176.003 194.189 192.524 178.111 210.515 163.904C211.48 163.141 212.424 162.406 213.362 161.672V338.977H215.74H219.714V156.88C225.772 152.388 231.892 148.163 237.88 144.371C246.939 138.635 255.717 133.878 263.46 130.232C265.364 129.295 267.251 128.489 269.027 127.714C269.076 127.699 269.133 127.678 269.181 127.651V338.977H271.559H275.497V125.027C276.602 124.608 277.651 124.201 278.624 123.809C280.044 123.313 281.351 122.866 282.513 122.452C283.674 122.052 284.73 121.667 285.632 121.368C286.556 121.109 287.361 120.865 287.977 120.668C289.271 120.29 289.928 120.081 289.928 120.081C289.928 120.081 290.629 119.893 291.866 119.486C293.161 119.156 295.062 118.682 297.462 118.066C302.254 116.961 309.192 115.428 317.614 114.743C318.671 114.597 319.747 114.59 320.839 114.541C321.917 114.493 323.029 114.45 324.156 114.38C324.421 114.38 324.721 114.373 324.995 114.358V338.977H327.38H331.318V114.498C331.857 114.505 332.409 114.52 332.962 114.539C333.571 114.602 334.165 114.665 334.789 114.735C336.013 114.84 337.265 114.98 338.517 115.098C339.14 115.161 339.776 115.204 340.426 115.315C341.056 115.413 341.677 115.517 342.329 115.623C343.595 115.832 344.883 116.049 346.183 116.266C356.57 118.162 367.426 121.59 377.926 125.991C378.906 126.383 379.871 126.795 380.815 127.209V338.976H383.178H387.138V130.056C394.399 133.436 401.422 137.129 407.995 140.865C417.361 146.175 425.874 151.555 433.101 156.249C434.326 157.039 435.479 157.809 436.62 158.572V338.976H438.998H442.964V162.811C445.852 164.778 448.372 166.506 450.428 167.939C454.555 170.82 456.933 172.464 456.933 172.464C456.933 172.464 459.284 174.144 463.396 177.081C467.502 179.999 473.363 184.231 480.366 189.353C484.087 192.075 488.145 195.048 492.446 198.224V338.976H494.824H498.783V202.891C509.065 210.44 520.384 218.738 531.856 226.908C537.326 230.784 542.823 234.611 548.258 238.311V338.976H550.636H554.595V242.586C556.408 243.804 558.239 245.02 560.016 246.189C564.562 249.205 569.017 252.017 573.263 254.696C574.327 255.368 575.48 255.984 576.565 256.62C577.111 256.928 577.663 257.25 578.195 257.557C578.761 257.85 579.3 258.096 579.853 258.382C580.965 258.921 582.043 259.473 583.105 259.971C584.224 260.412 585.288 260.859 586.364 261.278C587.406 261.74 588.477 262.082 589.498 262.419C590.547 262.756 591.568 263.105 592.554 263.399C593.563 263.658 594.555 263.909 595.5 264.147C595.969 264.266 596.465 264.386 596.913 264.504C597.375 264.61 597.837 264.665 598.292 264.756C600.138 265.093 601.837 265.464 603.419 265.589C603.635 265.625 603.866 265.637 604.083 265.673V338.977H606.454H610.406V266.164C610.707 266.186 611.056 266.193 611.33 266.212C612.35 266.22 613.238 266.205 613.946 266.205C615.359 266.191 616.114 266.184 616.114 266.184C616.114 266.184 616.302 266.191 616.653 266.148C617.031 266.134 617.59 266.092 618.297 266.049C618.997 266.001 619.857 265.951 620.872 265.888C621.9 265.804 623.062 265.636 624.355 265.482C629.595 264.851 636.967 263.418 645.444 260.696C646.493 260.395 647.557 259.989 648.655 259.605C649.76 259.228 650.865 258.864 651.984 258.438C654.215 257.583 656.53 256.717 658.86 255.715C659.202 255.583 659.56 255.422 659.895 255.275V338.974H662.251H666.218V252.461C668.555 251.383 670.911 250.244 673.275 249.048C678.221 246.6 683.165 243.858 688.181 241.03C693.168 238.168 698.198 235.173 703.129 232.103C707.368 229.453 711.572 226.766 715.72 224.073V338.974H718.076H722.043V219.916C734.773 211.493 746.58 203.314 756.275 196.787C762.29 192.702 767.515 189.217 771.524 186.559V338.974H773.902H777.855V182.397C779.443 181.355 780.324 180.782 780.324 180.782C780.324 180.782 782.75 179.222 786.984 176.507C791.251 173.799 797.35 169.986 804.765 165.593C811.347 161.724 818.985 157.42 827.337 153.181V338.972H829.715H833.681V150.047C835.094 149.354 836.507 148.689 837.982 148.011C840.48 146.891 842.991 145.702 845.607 144.624C850.769 142.4 856.113 140.399 861.485 138.531C866.857 136.704 872.342 135.125 877.762 133.774C879.12 133.473 880.463 133.187 881.806 132.886C882.261 132.773 882.694 132.676 883.142 132.599V338.972H885.527H889.486V131.416C889.604 131.408 889.724 131.38 889.842 131.367C891.2 131.172 892.493 130.975 893.809 130.821C895.137 130.59 896.446 130.492 897.712 130.359C899.034 130.246 900.3 130.08 901.566 130.017C904.112 129.899 906.596 129.68 909.001 129.702C910.211 129.702 911.393 129.687 912.568 129.687C913.75 129.716 914.905 129.764 916.038 129.8C918.305 129.87 920.508 130.122 922.628 130.289C924.727 130.429 926.734 130.723 928.657 130.975C929.622 131.115 930.546 131.254 931.442 131.367C932.351 131.507 933.24 131.682 934.08 131.829C935.772 132.144 937.36 132.41 938.836 132.703C938.871 132.718 938.912 132.739 938.99 132.752V338.972H941.333H945.3V134.186C946.559 134.516 947.63 134.817 948.434 135.026C949.7 135.368 950.385 135.544 950.385 135.544C950.385 135.544 951.071 135.712 952.359 136.104C953.632 136.496 955.492 137.077 957.849 137.811C959.052 138.16 960.347 138.671 961.78 139.147C963.171 139.658 964.725 140.155 966.326 140.791C967.948 141.427 969.655 142.099 971.474 142.806C973.272 143.533 975.154 144.373 977.119 145.199C982.553 147.599 988.534 150.473 994.787 153.804V338.974H997.138H1001.13V157.291C1001.8 157.684 1002.52 158.076 1003.21 158.459C1012.5 163.818 1022.17 170.038 1031.5 176.691C1038.08 181.344 1044.48 186.219 1050.61 191.081V338.976H1052.99H1056.92V196.209C1065.74 203.471 1073.75 210.53 1080.42 216.694C1086.77 222.543 1091.94 227.538 1095.56 231.07C1097.34 232.847 1098.75 234.226 1099.71 235.177C1100.66 236.142 1101.17 236.653 1101.17 236.653C1101.17 236.653 1101.68 237.149 1102.63 238.114C1103.53 239.016 1104.83 240.317 1106.42 241.956V338.976H1108.8H1112.74V248.518C1115.25 251.141 1118.08 254.114 1121.13 257.431C1132.8 270.023 1147.88 287.235 1162.24 305.08V338.976H1164.6H1168.57V313.007C1175.88 322.269 1182.89 331.477 1189.18 339.996H1194.06H1197.99C1189.39 328.208 1179.18 314.798 1168.57 301.63V270.765C1172.48 275.271 1176.51 279.972 1180.51 284.701C1191.45 297.615 1202.04 310.831 1209.78 320.835C1213.65 325.852 1216.83 330.055 1219.01 332.979C1221.15 335.875 1222.35 337.52 1222.35 337.52L1224.71 335.827L1226.64 334.455C1226.64 334.455 1225.65 333.148 1223.94 330.811L1239.86 318.987C1241.69 321.478 1242.71 322.884 1242.71 322.884L1247 319.827C1247 319.827 1245.67 318 1243.36 314.853C1241.06 311.782 1237.75 307.417 1233.75 302.261C1225.79 291.934 1214.91 278.391 1203.7 265.127C1192.5 251.849 1180.98 238.85 1172.16 229.252C1167.74 224.438 1164.05 220.493 1161.42 217.717C1158.81 214.953 1157.29 213.372 1157.29 213.372C1157.29 213.372 1155.82 211.812 1153.17 209.056C1150.51 206.328 1146.72 202.416 1142.11 197.799C1133.68 189.314 1122.46 178.421 1110.64 167.661V42.1611V18.0047V11.2331H1111.63V7.29459C1111.97 7.24623 1112.21 6.97943 1112.21 6.63019C1112.21 6.27379 1111.92 5.97301 1111.55 5.97301H1111.41C1111.45 5.94435 1111.48 5.91038 1111.52 5.89605C1111.57 5.85486 1111.63 5.78312 1111.68 5.74192C1111.72 5.69357 1111.78 5.65779 1111.82 5.60944C1111.86 5.56825 1111.89 5.53949 1111.92 5.51084C1111.97 5.43383 1112.03 5.36393 1112.09 5.27975C1112.13 5.2314 1112.18 5.19562 1112.18 5.14727C1112.21 5.11861 1112.23 5.09897 1112.23 5.07031C1112.29 4.97897 1112.35 4.88773 1112.39 4.80534C1112.41 4.75699 1112.43 4.70668 1112.47 4.644C1112.49 4.61534 1112.5 4.56706 1112.5 4.5384C1112.55 4.4399 1112.57 4.36288 1112.6 4.259C1112.62 4.22318 1112.64 4.18201 1112.64 4.14619C1112.64 4.16052 1112.64 4.1605 1112.64 4.17483V4.1604C1112.65 4.08339 1112.69 4.01354 1112.7 3.93653C1112.7 3.92937 1112.7 3.90075 1112.7 3.88822V3.90265C1112.72 3.71459 1112.74 3.51763 1112.74 3.32242C1112.74 1.49026 1111.27 0 1109.41 0C1108.34 0 1107.4 0.531932 1106.81 1.31458C1106.81 1.31458 1106.81 1.29311 1106.81 1.28594C1106.79 1.32713 1106.77 1.34151 1106.74 1.37733C1106.71 1.45434 1106.64 1.50986 1106.6 1.6012C1106.55 1.69254 1106.52 1.78921 1106.46 1.87338V1.84474C1106.44 1.8734 1106.44 1.89321 1106.44 1.9147C1106.42 1.98455 1106.36 2.03992 1106.34 2.11693C1106.31 2.21543 1106.27 2.33362 1106.24 2.45361C1106.2 2.4948 1106.2 2.55212 1106.2 2.59331C1106.2 2.62913 1106.18 2.67042 1106.18 2.69191C1106.13 2.89429 1106.11 3.11109 1106.11 3.32242C1106.11 4.40058 1106.64 5.36587 1107.45 5.97301H1107.32C1106.95 5.97301 1106.64 6.27379 1106.64 6.63019C1106.64 6.97943 1106.89 7.24623 1107.23 7.29459V11.2331H1107.9V17.4315C1104.67 17.0393 1098.75 17.1862 1091.51 21.189C1080.94 27.0168 1079.19 27.8065 1077.6 27.8065V31.5712C1074.98 32.6422 1071.04 33.6416 1065.16 33.9568C1051.96 34.6642 1047.75 40.6102 1047.75 40.6102C1054.68 42.7432 1060.34 47.8027 1060.34 47.8027C1055.77 53.6376 1051.91 63.2856 1051.91 63.2856C1057.53 60.1227 1076.41 57.4021 1082.33 54.3163H1082.36C1082.39 54.2751 1082.43 54.2681 1082.47 54.2252C1082.69 54.1069 1082.87 54.0084 1083.04 53.9027C1083.1 53.8543 1083.17 53.8042 1083.24 53.7343C1083.44 53.609 1083.6 53.4693 1083.75 53.3225C1083.94 53.1058 1084.1 52.9105 1084.26 52.6723C1084.31 52.5953 1084.36 52.504 1084.41 52.427C1084.5 52.2873 1084.6 52.1405 1084.65 52.0151C1084.71 51.8897 1084.75 51.7983 1084.79 51.6926C1084.84 51.5529 1084.89 51.4473 1084.94 51.3363C1084.98 51.2037 1085.02 51.0712 1085.03 50.9368C1085.04 50.8383 1085.06 50.7489 1085.1 50.6719C1085.13 50.5035 1085.14 50.3566 1085.18 50.2097C1085.18 50.1327 1085.2 50.0773 1085.2 50.0003C1085.2 49.8534 1085.2 49.6993 1085.2 49.5667C1086.79 48.7339 1088.63 47.6147 1090.7 46.1103C1090.7 46.1103 1099.5 38.47 1107.9 40.9613V165.181C1107.71 165.027 1107.54 164.88 1107.38 164.711C1094.41 153 1080.88 141.8 1070.48 133.699C1065.3 129.641 1060.88 126.318 1057.77 124.058C1056.21 122.91 1054.99 121.995 1054.15 121.408C1053.32 120.806 1052.86 120.484 1052.86 120.484C1052.86 120.484 1051.06 119.196 1047.92 116.957C1046.31 115.859 1044.4 114.523 1042.16 112.99C1039.94 111.479 1037.38 109.808 1034.63 107.959C1023.48 100.711 1008.15 91.4843 991.86 83.7599C983.717 79.8842 975.332 76.3649 967.273 73.4474C959.215 70.5299 951.422 68.2984 944.687 66.6185C944.449 66.5701 944.233 66.5003 943.995 66.4501L945.59 66.7367L958.979 66.9248C959.973 68.4435 961.559 69.5755 963.484 69.905C966.199 70.4011 968.808 69.2118 970.283 67.0931L977.299 67.1917L977.572 65.6174L977.844 64.12L979.201 64.3852L982.265 47.1258L906.993 33.7705L904.734 46.5598L903.922 51.03L905.28 51.2538L905.027 52.7368L904.741 54.3111L908.602 55.6615C909.112 58.3838 911.232 60.6421 914.121 61.1669C916.234 61.5161 918.268 60.8874 919.779 59.5926L932.643 64.1183C930.958 63.8389 929.404 63.5793 928.061 63.4056C926.005 63.119 924.417 62.9023 923.332 62.7554C922.22 62.6085 921.625 62.5602 921.625 62.5602C921.625 62.5602 919.269 62.365 915.148 61.9996C913.057 61.8814 910.503 61.7615 907.579 61.6988C904.648 61.7346 901.353 61.6844 897.772 61.9513C895.526 62.0695 893.162 62.2664 890.72 62.5243C892.847 61.6002 894.28 59.6912 894.693 57.508L901.136 54.6819L900.73 53.129L900.366 51.6874L901.716 51.3505L897.358 34.3776L837.37 49.7261L837.132 48.7895L883.059 37.0355L883.304 37.972L897.358 34.3776L895.909 28.6394V28.6464L893.719 20.0338L893.44 18.9986C893.782 18.9216 893.979 18.5652 893.902 18.2214L893.846 18.0262C893.769 17.6841 893.413 17.4655 893.076 17.5426L878.996 21.1603C878.66 21.2373 878.443 21.6008 878.541 21.9375L878.582 22.14C878.681 22.4892 879.03 22.6933 879.367 22.6019L879.626 23.5888L833.685 35.3359L833.42 34.3562C833.776 34.2649 833.993 33.9227 833.903 33.5788L833.833 33.3694C833.756 33.0273 833.414 32.8086 833.056 32.9L819.003 36.4963C818.654 36.5877 818.437 36.9512 818.534 37.2808L818.589 37.4904C818.666 37.8325 819.022 38.0365 819.366 37.9524L819.631 38.9803L823.304 53.3152L827.627 70.2883L828.97 69.9586L829.725 72.9531L833.824 72.5895C835.189 74.5632 837.56 75.7094 840.022 75.4784C833.02 78.249 826.269 81.2506 820.086 84.2577C821.415 82.8518 822.108 80.9551 821.968 79.0531L827.487 74.6815L826.703 73.2898L825.983 71.9824L827.193 71.3038L818.709 55.9892L815.821 50.8116L811.52 43.0603L810.988 42.1165C811.317 41.9481 811.421 41.5629 811.247 41.2566L811.134 41.0686C810.959 40.7606 810.574 40.6423 810.275 40.8089L797.593 47.8671C797.278 48.0427 797.153 48.4332 797.328 48.7412L797.441 48.9238C797.595 49.239 797.987 49.3501 798.308 49.1889L798.804 50.07L757.34 73.0803L756.837 72.1993C757.145 72.0381 757.256 71.6459 757.083 71.3324L756.984 71.1569C756.83 70.8273 756.438 70.7306 756.125 70.8971L743.414 77.9427C743.121 78.1182 742.981 78.5231 743.176 78.8168L743.275 79.0048C743.429 79.32 743.841 79.4238 744.156 79.2501L751.836 93.1231L764.546 86.0504L764.077 85.2249L805.528 62.1948L805.997 63.042L751.836 93.1231L758.145 104.479L760.342 108.439L761.552 107.761L762.279 109.062H762.286L763.056 110.468L766.924 109.084C769.037 110.861 772.094 111.274 774.647 109.861C776.515 108.833 777.67 107.042 778.034 105.112L788.667 101.299C785.372 103.272 783.49 104.411 783.49 104.411C783.49 104.411 781.622 105.559 778.342 107.574C775.083 109.589 770.466 112.528 764.974 116.081C753.999 123.183 739.702 132.907 725.579 142.534C719.389 146.739 713.239 150.887 707.364 154.777C708.784 153.58 709.603 151.915 709.742 150.16L723.851 143.521L733.197 137.098L742.863 127.828C744.632 128.213 746.557 127.92 748.143 126.807C750.423 125.262 751.424 122.575 750.998 120.043L756.062 115.166L755.181 113.852L754.334 112.614L755.474 111.83L745.542 97.3963L682.545 140.743L689.91 151.426C689.91 151.426 689.903 151.426 689.903 151.44L692.478 155.162L693.597 154.377L694.451 155.603L695.383 156.931L699.077 155.182C701.084 156.573 703.715 156.797 705.953 155.699C698.923 160.345 692.34 164.577 686.732 168.019C681.401 171.329 676.939 173.895 673.826 175.708C670.693 177.47 668.909 178.464 668.909 178.464C668.909 178.464 667.147 179.395 664.11 181.025V42.163V18.0065V11.2348H665.097V7.29655C665.434 7.2482 665.663 6.98118 665.663 6.63194C665.663 6.27554 665.39 5.97476 664.998 5.97476H664.88C664.909 5.9461 664.936 5.93362 664.979 5.8978C665.034 5.85661 665.097 5.79914 665.154 5.73646C665.217 5.6881 665.272 5.64511 665.315 5.59676C665.337 5.5681 665.351 5.54839 665.371 5.54123C665.433 5.44989 665.489 5.3659 665.566 5.28172C665.629 5.21904 665.664 5.14917 665.713 5.08649C665.761 4.98082 665.826 4.89111 665.881 4.78545C665.922 4.69411 665.958 4.61719 665.98 4.52048C666.001 4.44346 666.042 4.36657 666.057 4.28239C666.092 4.23404 666.098 4.18372 666.119 4.14969C666.119 4.16402 666.098 4.164 666.098 4.17833C666.119 4.08699 666.153 4.003 666.153 3.91882C666.153 3.9045 666.175 3.88997 666.175 3.88997H666.153C666.194 3.71445 666.216 3.51938 666.216 3.32417C666.216 1.49201 664.719 0.00196761 662.887 0.00196761C661.845 0.00196761 660.873 0.533899 660.264 1.31655C660.264 1.31655 660.264 1.29486 660.264 1.28769C660.257 1.32888 660.257 1.34337 660.223 1.36487C660.187 1.4562 660.11 1.52599 660.076 1.61016C660.006 1.69434 659.97 1.79275 659.929 1.87513V1.84649C659.929 1.87515 659.929 1.87516 659.908 1.90202C659.893 1.97187 659.845 2.04177 659.809 2.13311C659.773 2.23878 659.754 2.33547 659.703 2.46979C659.703 2.49844 659.675 2.55409 659.675 2.59528C659.66 2.6311 659.66 2.67217 659.633 2.69366C659.592 2.91036 659.578 3.11283 659.578 3.32417C659.578 4.40233 660.11 5.36762 660.921 5.97476H660.774C660.418 5.97476 660.11 6.27554 660.11 6.63194C660.11 6.98118 660.362 7.2482 660.697 7.29655V11.2348H661.383V17.4332C658.124 17.041 652.227 17.1879 644.98 21.1907C634.412 27.0185 632.662 27.8085 631.054 27.8085V31.5729C628.438 32.6565 624.493 33.6433 618.637 33.9585C605.417 34.666 601.214 40.6119 601.214 40.6119C608.139 42.7449 613.804 47.8044 613.804 47.8044C609.251 53.6394 605.361 63.2873 605.361 63.2873C611.006 60.1245 629.865 57.4041 635.789 54.3183H635.81C635.846 54.2825 635.866 54.2698 635.866 54.2698C636.138 54.1372 636.335 54.0245 636.516 53.892C636.571 53.8562 636.634 53.8077 636.698 53.7665C636.894 53.6125 637.083 53.4728 637.223 53.326C637.418 53.1092 637.594 52.9142 637.733 52.676C637.789 52.599 637.818 52.529 637.88 52.4591C637.957 52.3051 638.056 52.1654 638.125 52.0114C638.181 51.9129 638.203 51.8163 638.244 51.7178C638.299 51.5852 638.362 51.4581 638.398 51.3328C638.46 51.2146 638.482 51.0873 638.496 50.9906C638.518 50.8724 638.559 50.7596 638.588 50.6539C638.595 50.5142 638.616 50.3816 638.636 50.2473C638.636 50.1631 638.657 50.079 638.665 49.9948C638.665 49.8479 638.693 49.701 638.693 49.5685C640.289 48.7357 642.113 47.6164 644.157 46.112C644.157 46.112 652.977 38.4718 661.385 40.963V182.442C658.511 183.903 654.942 185.689 650.836 187.485C645.394 189.907 639.008 192.452 632.181 194.466C625.36 196.53 618.12 197.853 611.118 198.209C604.124 198.412 597.402 197.649 591.491 195.663C590.721 195.432 590.001 195.179 589.274 194.95C588.566 194.642 587.847 194.355 587.141 194.076C585.735 193.587 584.419 192.824 583.105 192.215C582.433 191.914 581.846 191.536 581.216 191.187C580.585 190.824 579.991 190.48 579.389 190.138L578.934 189.873L578.417 189.543C578.053 189.319 577.704 189.095 577.367 188.886C576.682 188.445 575.989 188.012 575.346 187.598C570.022 184.288 565.68 181.351 562.587 179.356C559.531 177.293 557.803 176.123 557.803 176.123C557.803 176.123 550.801 171.458 540.435 164.119C530.047 156.822 516.296 146.782 502.501 136.638C488.714 126.446 474.767 116.259 464.119 108.745C461.482 106.849 458.992 105.149 456.831 103.638C454.648 102.106 452.766 100.797 451.187 99.7406C447.99 97.5789 446.207 96.3467 446.207 96.3467C446.207 96.3467 444.361 95.136 441.177 93.0245C437.995 90.8968 433.357 87.9113 427.74 84.4046C426.334 83.5449 424.851 82.6351 423.34 81.7109C422.563 81.2345 421.787 80.7671 421.01 80.2835C420.192 79.8143 419.388 79.3397 418.541 78.8633C416.897 77.898 415.205 76.904 413.498 75.8975C411.736 74.8892 409.924 73.9185 408.078 72.9102C404.455 70.8327 400.53 68.8877 396.585 66.8371C394.578 65.8646 392.535 64.9135 390.513 63.941C389.492 63.4789 388.47 62.947 387.428 62.485L384.287 61.1275L381.132 59.7627L379.572 59.0841L377.942 58.4678C375.803 57.6278 373.668 56.8166 371.557 55.991C367.198 54.5295 362.981 53.0036 358.68 51.8699C354.497 50.5751 350.222 49.7423 346.236 48.8271C344.215 48.4904 342.229 48.1698 340.304 47.8475C339.339 47.7006 338.4 47.5108 337.457 47.4069C336.533 47.3156 335.589 47.2188 334.694 47.1203C332.874 46.9448 331.127 46.764 329.483 46.5956C327.81 46.5473 326.217 46.497 324.72 46.4415C323.215 46.4128 321.817 46.3358 320.522 46.3501C319.228 46.4128 318.024 46.463 316.927 46.497C314.765 46.5955 313.059 46.6367 311.939 46.7423C310.82 46.8749 310.226 46.9251 310.226 46.9251C310.226 46.9251 309.638 46.995 308.541 47.1079C307.443 47.2404 305.799 47.3603 303.727 47.6809C301.706 48.0176 299.188 48.3454 296.369 48.8702C294.964 49.1496 293.481 49.4575 291.9 49.7799C291.116 49.9482 290.292 50.1166 289.473 50.2832C288.669 50.4855 287.837 50.6952 286.983 50.9137C273.287 54.1661 255.848 60.5616 239.725 68.9361C231.652 73.084 223.818 77.6115 216.698 82.0817C209.612 86.6003 203.121 90.9809 197.708 94.9193C192.288 98.8236 187.866 102.196 184.824 104.582C183.286 105.778 182.075 106.702 181.284 107.374C180.473 108.009 180.052 108.375 180.052 108.375C180.052 108.375 178.331 109.759 175.303 112.195C173.82 113.432 172.015 114.944 169.952 116.665C167.889 118.394 165.622 120.394 163.098 122.556C162.686 122.941 162.217 123.345 161.762 123.759V42.1648V18.0082V11.2366H162.775V7.2983C163.076 7.24995 163.348 6.98314 163.348 6.63391C163.348 6.27751 163.04 5.97651 162.684 5.97651H162.544C162.58 5.94785 162.607 5.91388 162.643 5.89955C162.705 5.85836 162.741 5.80094 162.804 5.74542C162.859 5.69707 162.922 5.66129 162.958 5.61294C162.994 5.57174 163.042 5.54311 163.042 5.50013C163.098 5.45177 163.141 5.36758 163.203 5.3049C163.252 5.24938 163.273 5.19934 163.336 5.15099C163.35 5.12233 163.35 5.08826 163.372 5.0596C163.42 4.98259 163.47 4.89132 163.518 4.8143C163.554 4.76595 163.567 4.70853 163.588 4.66018C163.61 4.61898 163.651 4.56883 163.651 4.52048C163.687 4.44346 163.706 4.35209 163.728 4.26075C163.735 4.22493 163.749 4.18376 163.764 4.14794C163.764 4.16227 163.749 4.16225 163.749 4.17658C163.785 4.09957 163.798 4.0083 163.826 3.93129C163.826 3.91696 163.834 3.90265 163.834 3.90265L163.826 3.88822C163.868 3.7127 163.882 3.51763 163.882 3.32242C163.882 1.49026 162.392 0 160.565 0C159.475 0 158.53 0.531932 157.928 1.31458C157.928 1.31458 157.928 1.29311 157.928 1.28594C157.914 1.3343 157.892 1.34151 157.879 1.37733C157.817 1.45434 157.774 1.52424 157.711 1.60841C157.675 1.69259 157.613 1.76948 157.598 1.84649C157.577 1.84649 157.577 1.84649 157.577 1.84649C157.577 1.87515 157.577 1.87513 157.555 1.87513C157.534 1.96647 157.5 2.04352 157.457 2.13486C157.416 2.25306 157.401 2.35871 157.358 2.47154C157.358 2.50736 157.33 2.55569 157.317 2.58435C157.317 2.62554 157.303 2.67588 157.303 2.69738C157.262 2.91408 157.219 3.11633 157.219 3.32767C157.219 4.40583 157.772 5.37112 158.555 5.97826H158.422C158.066 5.97826 157.779 6.27925 157.779 6.63566C157.779 6.98489 158.025 7.2517 158.34 7.30005V11.2383H159.033V17.437C155.786 17.0447 149.877 17.1916 142.63 21.1944C132.068 27.0222 130.312 27.812 128.716 27.812V31.5766C126.086 32.6476 122.177 33.6468 116.287 33.962C103.088 34.6695 98.8836 40.6156 98.8836 40.6156C105.794 42.7487 111.474 47.8081 111.474 47.8081C106.892 53.6431 103.024 63.291 103.024 63.291C108.661 60.1282 127.534 57.4076 133.472 54.3218C133.494 54.3003 133.514 54.2735 133.55 54.2735C133.766 54.1409 133.961 54.028 134.158 53.8955C134.228 53.8596 134.298 53.8114 134.354 53.7702C134.563 53.6162 134.739 53.4765 134.864 53.3297C135.059 53.113 135.249 52.8962 135.389 52.6795C135.437 52.6437 135.444 52.5954 135.458 52.547C135.591 52.3643 135.704 52.1905 135.788 52.0007C135.809 51.9308 135.85 51.8681 135.879 51.8054C135.935 51.6514 135.985 51.483 136.055 51.3218C136.09 51.2233 136.117 51.1267 136.146 51.0496C136.167 50.9243 136.223 50.7631 136.245 50.6305C136.266 50.5177 136.266 50.4211 136.3 50.3011C136.3 50.1883 136.321 50.0844 136.321 49.9716C136.343 49.8319 136.343 49.7065 136.343 49.5722C137.938 48.7394 139.778 47.6199 141.84 46.1155C141.84 46.1155 150.647 38.4753 159.034 40.9665V126.177C149.78 134.46 138.694 144.941 128.097 155.846C121.976 162.093 115.961 168.46 110.442 174.519C104.924 180.549 99.8595 186.278 95.5851 191.218C91.3036 196.157 87.7651 200.326 85.3298 203.244C82.8747 206.169 81.4959 207.84 81.4959 207.84C81.4959 207.84 80.1046 209.52 77.6979 212.464C75.2912 215.415 71.8495 219.635 67.8133 224.777C59.714 234.991 49.1437 248.815 38.9798 262.919C28.8015 276.994 18.9884 291.336 11.8257 302.272C8.22284 307.729 5.29881 312.331 3.25742 315.605C2.22241 317.242 1.42538 318.53 0.886381 319.411C0.300827 320.325 0 320.828 0 320.828ZM36.3097 310.732L22.6774 301.645L19.7889 299.728C22.321 295.937 25.0553 291.879 27.9795 287.632L44.3267 298.862C41.4652 303.017 38.7647 307.003 36.3097 310.732ZM139.414 223.338C139.414 223.338 137.518 225.548 134.189 229.419C130.915 233.309 126.229 238.884 120.78 245.699C116.891 250.583 112.575 256.122 108.05 262.082V223.338C108.226 223.136 108.406 222.927 108.568 222.708C110.96 219.889 114.339 215.852 118.479 211.088C122.614 206.317 127.495 200.783 132.819 194.977C138.143 189.142 143.9 183.035 149.775 177.039C152.355 174.4 154.959 171.784 157.547 169.225V203.316C156.553 204.351 155.568 205.372 154.685 206.351C153.328 207.82 152.054 209.213 150.838 210.487C148.482 213.144 146.355 215.412 144.689 217.335C143.004 219.232 141.661 220.742 140.766 221.757C139.883 222.794 139.414 223.338 139.414 223.338ZM580.057 250.421C579.049 249.848 578.05 249.324 577.008 248.659C572.825 246.009 568.425 243.245 563.907 240.25C560.865 238.243 557.716 236.165 554.59 234.031V210.356C556.01 211.28 557.541 212.238 559.158 213.259C559.844 213.692 560.571 214.147 561.298 214.609C561.64 214.833 562.005 215.071 562.376 215.295L562.936 215.637L563.615 216.03C564.51 216.554 565.434 217.093 566.364 217.633C567.3 218.164 568.231 218.716 569.259 219.2C571.267 220.158 573.281 221.243 575.491 222.081C576.574 222.515 577.701 222.97 578.8 223.417C579.96 223.802 581.094 224.187 582.276 224.573C589.109 226.833 596.566 228.077 604.079 228.448V258.517C602.688 258.391 601.239 258.076 599.68 257.804C599.268 257.712 598.854 257.657 598.435 257.566C598.009 257.46 597.581 257.349 597.147 257.25C596.3 257.019 595.419 256.803 594.497 256.564C593.609 256.319 592.685 255.977 591.763 255.669C590.839 255.389 589.859 255.074 588.916 254.648C587.972 254.277 586.992 253.871 585.999 253.48C585.026 253.033 584.061 252.522 583.053 252.039C582.564 251.8 582.039 251.562 581.549 251.297C581.056 251.016 580.553 250.728 580.057 250.421ZM611.505 259.109C611.149 259.088 610.778 259.074 610.4 259.061V228.545C611.05 228.538 611.681 228.538 612.316 228.509C622.445 228.033 632.146 226.152 640.729 223.577C647.863 221.456 654.285 218.986 659.888 216.622V247.545C658.607 248.111 657.363 248.643 656.111 249.153C653.887 250.14 651.656 250.952 649.514 251.777C648.443 252.189 647.394 252.526 646.332 252.897C645.312 253.26 644.276 253.645 643.268 253.939C635.203 256.52 628.32 257.843 623.465 258.438C622.269 258.577 621.186 258.746 620.24 258.801C619.316 258.864 618.491 258.919 617.848 258.97C617.198 259.011 616.707 259.04 616.372 259.061C616.057 259.09 615.862 259.075 615.862 259.075C615.862 259.075 615.176 259.075 613.883 259.097C613.233 259.095 612.429 259.131 611.505 259.109ZM1100.52 225.991C1096.89 222.431 1091.65 217.385 1085.22 211.468C1077.36 204.191 1067.65 195.679 1056.91 187.052V161.649C1065.95 168.861 1076.65 177.844 1087.08 187.276C1093.78 193.291 1100.36 199.449 1106.41 205.248V231.847C1106.3 231.722 1106.2 231.645 1106.2 231.645C1106.2 231.645 1105.67 231.12 1104.72 230.148C1103.74 229.195 1102.33 227.789 1100.52 225.991ZM1213.93 317.624C1213.78 317.448 1213.65 317.282 1213.51 317.092L1229.2 304.947C1229.32 305.108 1229.47 305.297 1229.62 305.494C1233 309.865 1235.87 313.659 1238.06 316.569L1222.17 328.463C1220.06 325.62 1217.27 321.918 1213.93 317.624ZM1191.89 290.129L1207.18 277.486C1210.35 281.321 1213.44 285.12 1216.4 288.786L1200.95 301.231C1198.05 297.644 1195.02 293.915 1191.89 290.129ZM1202.82 303.527L1215.58 293.292L1218.28 291.109C1221.53 295.167 1224.55 299.007 1227.34 302.567L1211.7 314.769C1208.98 311.293 1205.98 307.508 1202.82 303.527ZM1184.52 281.308C1183.27 279.833 1182.03 278.362 1180.78 276.879L1193.23 266.266L1195.87 264.006C1197.14 265.51 1198.42 267.008 1199.68 268.519C1201.54 270.736 1203.41 272.961 1205.26 275.18L1202.59 277.39L1190 287.849C1188.2 285.687 1186.36 283.49 1184.52 281.308ZM1054.65 128.271C1055.05 128.572 1055.48 128.887 1055.94 129.207L1044.12 145.15C1043.69 144.835 1043.28 144.534 1042.9 144.248C1041.41 143.157 1040.25 142.296 1039.42 141.737C1038.64 141.157 1038.22 140.849 1038.22 140.849C1038.22 140.849 1036.87 139.89 1034.48 138.191L1043.92 124.8L1045.91 121.981C1048.38 123.75 1049.78 124.751 1049.78 124.751C1049.78 124.751 1050.23 125.052 1051.08 125.668C1051.92 126.256 1053.12 127.151 1054.65 128.271ZM922.714 67.9724C923.77 68.1193 925.316 68.3145 927.316 68.5885C927.805 68.6583 928.38 68.7355 928.924 68.834L925.882 88.436C925.371 88.3447 924.881 88.2892 924.426 88.2193C922.698 87.9955 921.328 87.793 920.411 87.6802C919.48 87.5405 918.97 87.5119 918.97 87.5119C918.97 87.5119 917.396 87.3722 914.625 87.1269L916.101 67.3421C919.283 67.6143 921.081 67.7826 921.081 67.7826C921.081 67.7826 921.643 67.813 922.714 67.9724ZM907.508 66.9517C909.493 67 911.291 67.0698 912.921 67.1397L911.878 86.9585C910.5 86.8887 908.99 86.8331 907.284 86.783C904.863 86.8313 902.157 86.7829 899.17 86.9996C898.975 87.0068 898.763 87.0355 898.561 87.0355L897.541 70.6787L897.345 67.2365C897.576 67.2222 897.834 67.1952 898.087 67.188C901.505 66.9516 904.689 66.9875 907.508 66.9517ZM184.545 111.475C185.349 110.811 186.523 109.901 188.042 108.719C188.454 108.418 188.867 108.088 189.294 107.746L191.421 110.488L201.458 123.424C201.032 123.761 200.632 124.067 200.254 124.382C198.806 125.488 197.667 126.383 196.897 126.992C196.134 127.615 195.722 127.936 195.722 127.936C195.722 127.936 194.435 128.985 192.162 130.832L179.613 115.469C181.991 113.531 183.327 112.46 183.327 112.46C183.327 112.46 183.741 112.111 184.545 111.475ZM92.2975 203.093C94.3264 200.686 96.7742 197.832 99.5444 194.635C100.279 193.788 101.056 192.906 101.845 192.004L104.433 194.291L116.765 205.065C116.003 205.939 115.24 206.815 114.513 207.634C111.819 210.768 109.456 213.56 107.441 215.917L92.2975 203.093ZM1167.51 261.615C1164.16 257.831 1160.93 254.234 1157.94 250.925L1172.67 237.598C1175.7 240.963 1178.98 244.622 1182.38 248.469L1167.51 261.615ZM1133.34 201.337L1121.77 212.949C1118.67 209.829 1115.21 206.45 1111.56 202.923L1122.94 191.135L1125.35 188.651C1129.09 192.255 1132.6 195.716 1135.78 198.879L1133.34 201.337ZM1099.06 191.081L1107.9 181.539V199.4C1105.03 196.678 1102.07 193.879 1099.06 191.081ZM1123.19 186.568L1110.64 199.666V178.573L1112.52 176.523C1116.19 179.922 1119.77 183.301 1123.19 186.568ZM1084.09 177.587C1080.44 174.39 1076.81 171.277 1073.27 168.29L1083.84 155.753L1086.06 153.122C1089.72 156.186 1093.44 159.383 1097.18 162.679L1084.09 177.587ZM1083.76 151.175L1071.05 166.406C1067.18 163.18 1063.47 160.166 1060.01 157.395L1072.39 141.885C1075.96 144.74 1079.78 147.86 1083.76 151.175ZM1026.73 113.259L1017.91 127.033C1014.25 124.703 1010.2 122.219 1005.91 119.667L1015.97 102.583C1020.52 105.262 1024.77 107.879 1028.61 110.341L1026.73 113.259ZM1013.34 101.035L1011.59 104.044L1003.4 118.218C999.468 115.931 995.362 113.649 991.102 111.432L1000.31 93.8375C1004.81 96.2016 1009.19 98.6427 1013.34 101.035ZM979.905 87.863L973.344 102.903C968.985 101 964.684 99.2588 960.479 97.6774L967.341 79.0748C971.931 80.7887 976.581 82.6782 981.282 84.727L979.905 87.863ZM964.424 78.0055L957.808 96.6995C953.213 95.0769 948.792 93.6979 944.686 92.557L949.988 73.4439C954.561 74.7244 959.416 76.2217 964.424 78.0055ZM895.813 87.2325C891.685 87.5817 887.208 88.1691 882.474 89.0449L879.487 72.9334L878.857 69.527C884.229 68.5259 889.377 67.8615 894.14 67.4711L894.434 70.8989L895.813 87.2325ZM795.33 103.464C795.96 103.1 796.617 102.715 797.316 102.323C799.631 101.001 802.212 99.4826 805.121 97.9155C806.135 97.3621 807.172 96.8034 808.214 96.2231L817.644 113.692C816.623 114.238 815.622 114.77 814.678 115.3C811.922 116.798 809.446 118.259 807.207 119.506C806.55 119.898 805.92 120.276 805.325 120.618L795.33 103.464ZM810.909 94.7813C814.993 92.6196 819.47 90.3523 824.207 88.1011L832.734 105.996C828.279 108.13 824.074 110.264 820.199 112.313L810.909 94.7813ZM826.996 86.7847C831.396 84.7484 836.012 82.7337 840.756 80.8388L842.043 84.05L848.116 99.2587C843.757 101.008 839.47 102.882 835.35 104.793L826.996 86.7847ZM843.637 79.6978C845.534 78.9779 847.435 78.2633 849.351 77.5702C852.198 76.5565 855.065 75.6325 857.934 74.7585L863.79 93.6961C861.195 94.493 858.606 95.3401 856.011 96.2715C854.261 96.8947 852.514 97.552 850.786 98.2308L843.637 79.6978ZM860.943 73.8361C865.595 72.4642 870.274 71.2607 874.849 70.3097C875.121 70.2614 875.436 70.1844 875.744 70.1217L876.43 73.5012L879.725 89.5571C879.46 89.6269 879.193 89.6628 878.914 89.7254C874.892 90.5797 870.709 91.6491 866.504 92.8885L860.943 73.8361ZM790.112 129.804C787.118 131.679 783.187 134.163 778.633 137.129C778.458 137.241 778.263 137.367 778.068 137.492L769.136 123.759L767.261 120.849C767.436 120.724 767.653 120.603 767.827 120.478C772.486 117.462 776.501 114.91 779.599 112.985L790.112 129.804ZM738.105 140.354C742.197 137.569 746.218 134.842 750.122 132.232L752.045 135.087L761.201 148.695C757.34 151.275 753.331 153.991 749.268 156.783L738.105 140.354ZM752.606 130.559C756.907 127.678 760.986 124.956 764.741 122.486L766.638 125.389L775.606 139.093C771.919 141.508 767.889 144.18 763.658 147.02L752.606 130.559ZM732.355 168.254C728.249 171.024 724.179 173.732 720.232 176.335L711.195 162.679L709.291 159.797C713.159 157.229 717.188 154.549 721.239 151.807L732.355 168.254ZM696.681 172.079L694.835 169.155C698.584 166.784 702.633 164.174 706.838 161.404L717.736 177.999C713.413 180.818 709.293 183.497 705.418 185.94L696.681 172.079ZM657.517 211.921C653.216 213.741 648.417 215.616 643.191 217.308L638.127 201.756L637.071 198.439C641.617 196.956 645.877 195.29 649.781 193.653L657.517 211.921ZM602.181 223.066C596.614 222.66 591.115 221.716 585.947 220.197L590.465 204.49L591.444 201.125C595.298 202.28 599.404 202.965 603.615 203.28L602.181 223.066ZM522.95 182.497C519.292 179.895 515.304 177.033 511.123 174.005L520.726 160.734L522.734 157.949C526.876 160.943 530.828 163.748 534.422 166.316L522.95 182.497ZM520.356 156.199L518.312 158.998V159.005L508.709 172.255C504.904 169.499 500.986 166.63 496.978 163.699L508.73 147.699C512.695 150.616 516.606 153.478 520.356 156.199ZM490.222 138.388L490.229 138.416L480.527 151.603C476.568 148.693 472.657 145.831 468.888 143.082L480.576 127.033C484.388 129.832 488.277 132.7 492.278 135.617L490.222 138.388ZM478.162 125.29L476.126 128.09L466.493 141.327C462.387 138.347 458.477 135.52 454.818 132.918L466.374 116.764C470.07 119.407 474.029 122.276 478.162 125.29ZM289.581 76.1231C285.552 77.1941 281.152 78.5714 276.557 80.2083L269.898 61.5143C274.983 59.7018 279.893 58.1849 284.454 56.9599L289.581 76.1231ZM252.983 68.3432C257.655 66.2227 262.37 64.2993 266.966 62.5853L268.17 65.8323C268.17 65.8323 268.17 65.8179 268.191 65.8179L273.905 81.1738C269.758 82.7265 265.455 84.4833 261.175 86.4212L252.983 68.3432ZM235.714 80.9302L243.673 95.2793C239.546 97.5879 235.483 99.959 231.627 102.345L222.989 88.436L221.157 85.497C225.263 82.9431 229.6 80.4107 234.048 77.941L235.714 80.9302ZM206.174 95.3491C209.965 92.7182 214.127 89.9547 218.555 87.1214L220.416 90.0462L229.174 103.878C225.032 106.55 221.08 109.166 217.479 111.651L206.174 95.3491ZM159.027 149.784V160.418C157.398 162.014 155.732 163.622 154.074 165.267L140.127 151.156C143.701 147.622 147.241 144.201 150.695 140.949L153.059 143.467H153.073L159.027 149.784ZM161.756 152.68L164.331 155.38C163.465 156.185 162.603 156.989 161.756 157.807V152.68ZM128.138 168.317L139.987 179.628C136.629 183.14 133.37 186.631 130.23 190.044L115.61 176.627C118.814 173.129 122.186 169.54 125.642 165.922L128.14 168.336V168.317H128.138ZM103.804 189.745C106.827 186.339 110.093 182.673 113.591 178.853L116.137 181.19L128.238 192.229C124.845 195.937 121.641 199.512 118.697 202.857L103.804 189.745ZM130.21 166.148L127.706 163.748C129.091 162.335 130.455 160.915 131.861 159.494C133.861 157.417 135.926 155.346 137.989 153.281L151.972 167.337C150.013 169.33 147.998 171.345 146.027 173.381C144.691 174.753 143.355 176.116 142.019 177.502L130.21 166.148ZM152.914 138.877C154.998 136.925 157.041 135.035 159.027 133.239V145.434L152.914 138.877ZM161.756 130.762C162.442 130.153 163.114 129.558 163.778 128.964L176.943 143.809C173.684 146.719 170.137 149.916 166.451 153.38L161.758 148.356L161.756 130.762ZM166.568 126.501C169.066 124.381 171.31 122.373 173.324 120.652C174.78 119.456 176.116 118.365 177.262 117.392L189.902 132.678C188.805 133.602 187.539 134.645 186.16 135.812C184.201 137.464 182.025 139.366 179.633 141.431C179.472 141.57 179.303 141.724 179.122 141.871L166.049 126.963C166.219 126.802 166.401 126.648 166.568 126.501ZM193.794 108.62L191.716 105.893C194.27 103.948 197.312 101.68 200.768 99.1765C201.705 98.4834 202.677 97.8045 203.657 97.1204L205.664 99.9465L215.106 113.316C214.17 113.98 213.246 114.624 212.379 115.276C209.077 117.654 206.181 119.815 203.755 121.662L193.794 108.62ZM238.385 79.4956L236.756 76.4528C238.525 75.4803 240.316 74.5435 242.121 73.6122C244.771 72.2135 247.464 70.9115 250.15 69.6453L258.557 87.6175C256.088 88.7655 253.611 89.9889 251.135 91.2766C249.484 92.1309 247.826 93.0047 246.182 93.8931L238.385 79.4956ZM288.342 59.5425L287.516 56.1915C287.733 56.1359 287.985 56.0591 288.202 56.0161C289.049 55.7994 289.853 55.597 290.636 55.4C291.433 55.2388 292.231 55.0632 292.98 54.9038C294.511 54.6029 295.967 54.3092 297.317 54.0155C299.261 53.6788 301.031 53.3923 302.583 53.1559L305.57 72.7867C304.191 72.9891 302.653 73.2201 300.939 73.5353C299.757 73.7663 298.477 74.0457 297.141 74.3197C296.455 74.4594 295.784 74.5919 295.071 74.7316C294.371 74.9196 293.644 75.0951 292.917 75.2921C292.7 75.3405 292.525 75.3906 292.308 75.4318L288.342 59.5425ZM306.2 56.1145L305.753 52.6867C307.124 52.5183 308.263 52.4216 309.096 52.3231C310.167 52.2049 310.732 52.1548 310.732 52.1548C310.732 52.1548 311.305 52.0993 312.362 51.9668C313.426 51.8683 315.077 51.8342 317.139 51.7429C317.693 51.7214 318.266 51.6944 318.846 51.6657L318.945 55.1366L319.337 71.5008C318.848 71.5294 318.386 71.549 317.953 71.5705C316.268 71.6547 314.959 71.6548 314.049 71.7533C313.105 71.8446 312.614 71.9144 312.614 71.9144C312.614 71.9144 312.111 71.9628 311.195 72.0613C310.46 72.1527 309.488 72.2082 308.299 72.3766L306.2 56.1145ZM324.562 51.6874C326.018 51.7429 327.527 51.7929 329.13 51.8413C330.711 51.9881 332.382 52.1708 334.11 52.3446C334.984 52.4216 335.879 52.5201 336.782 52.5971C337.159 52.6383 337.489 52.7098 337.865 52.7582L337.369 56.1934L335.131 72.4177C334.83 72.3693 334.522 72.3264 334.207 72.2852C333.465 72.2082 332.724 72.1312 331.99 72.0685C330.514 71.9145 329.128 71.7676 327.807 71.6494C326.492 71.6011 325.232 71.5509 324.037 71.5312C323.344 71.5097 322.68 71.4827 322.03 71.4612L322.128 51.6281C322.918 51.6442 323.722 51.6659 324.562 51.6874ZM345.218 53.9744C348.736 54.8 352.457 55.527 356.171 56.6195L355.247 59.9561L350.903 75.7453C347.644 74.7872 344.426 74.171 341.418 73.4439C340.186 73.2487 339.004 73.0517 337.822 72.8565L341.026 53.2884C342.399 53.5122 343.798 53.729 345.218 53.9744ZM369.755 60.9216C371.043 61.432 372.357 61.9227 373.652 62.4259L372.407 65.6515L366.503 80.9302C365.307 80.4753 364.14 80.0274 362.978 79.5653C359.788 78.5015 356.674 77.3894 353.598 76.5011L358.229 60.8016H358.236L359.208 57.4791C362.705 58.4928 366.188 59.7109 369.755 60.9216ZM377.575 63.9572L379.094 64.6143L382.179 65.9506L385.264 67.2652C386.285 67.7129 387.279 68.2161 388.293 68.6781C388.978 69.0148 389.643 69.3355 390.355 69.6722L381.787 87.5674C381.13 87.2665 380.528 86.9727 379.883 86.6647C378.959 86.2313 378.016 85.7477 377.085 85.3501L374.266 84.118L371.447 82.9002L370.042 82.3056L369.125 81.9492L375.253 66.7619L376.56 63.5505L377.575 63.9572ZM394.245 71.5491C398.113 73.5424 401.961 75.4604 405.555 77.495C405.814 77.6418 406.065 77.7887 406.325 77.9141L396.777 95.299C396.517 95.1665 396.267 95.0268 396.007 94.8871C392.608 92.9565 389.032 91.1869 385.402 89.3118C385.06 89.1291 384.702 88.975 384.36 88.8013L391.607 74.11L393.126 70.9975C393.503 71.1838 393.867 71.3592 394.245 71.5491ZM410.878 80.4394C412.571 81.4477 414.272 82.4327 415.909 83.3784C416.698 83.8476 417.504 84.315 418.308 84.7771C419.092 85.2535 419.839 85.7352 420.623 86.1973C421.008 86.4426 421.393 86.6738 421.791 86.9102L419.993 89.8562L411.466 103.849C411.088 103.625 410.703 103.394 410.318 103.163C409.605 102.715 408.876 102.268 408.128 101.813C407.365 101.372 406.597 100.917 405.813 100.477C404.26 99.5525 402.665 98.6445 401.056 97.6988C400.491 97.3568 399.882 97.0201 399.307 96.6978L409.03 79.4042C409.641 79.7481 410.27 80.0973 410.878 80.4394ZM436.774 96.4039L425.911 113.006C422.946 111.061 419.09 108.57 414.517 105.717C414.329 105.604 414.139 105.479 413.944 105.375L424.38 88.5077C424.575 88.6205 424.772 88.753 424.968 88.8568C429.709 91.837 433.746 94.4034 436.774 96.4039ZM443.272 100.708C443.272 100.708 445.063 101.926 448.203 104.051C448.596 104.338 449.05 104.632 449.498 104.94L447.539 107.795L438.271 121.304C437.83 121.003 437.411 120.702 437.005 120.444C433.941 118.367 432.206 117.177 432.206 117.177C432.206 117.177 430.821 116.253 428.364 114.624L439.325 98.0858C441.838 99.7496 443.272 100.708 443.272 100.708ZM453.833 107.941C455.98 109.446 458.457 111.138 461.08 113.021C462.012 113.664 462.977 114.342 463.942 115.035L461.913 117.854L452.406 131.202C451.482 130.538 450.539 129.874 449.636 129.223C447.041 127.363 444.649 125.726 442.509 124.243C441.9 123.802 441.277 123.376 440.697 122.977L451.973 106.655C452.567 107.053 453.191 107.494 453.833 107.941ZM499.399 140.843C501.708 142.55 504.016 144.25 506.331 145.944L494.586 161.937C492.278 160.238 489.948 158.538 487.625 156.829C486.059 155.669 484.492 154.521 482.911 153.366L492.627 140.172L494.663 137.372C496.244 138.527 497.825 139.683 499.399 140.843ZM548.6 176.229L546.641 179.07L537.365 192.572C534.371 190.521 530.468 187.822 525.95 184.623C525.774 184.491 525.572 184.358 525.404 184.224L536.833 168.014C537.029 168.139 537.218 168.279 537.394 168.399C541.837 171.562 545.656 174.214 548.6 176.229ZM554.841 180.468C554.841 180.468 556.61 181.65 559.681 183.721C560.073 183.986 560.506 184.274 560.968 184.553L550.029 201.12C549.567 200.812 549.134 200.532 548.715 200.253C545.581 198.14 543.754 196.924 543.754 196.924C543.754 196.924 542.342 195.973 539.844 194.286L549.076 180.755L551.021 177.886C553.476 179.559 554.841 180.468 554.841 180.468ZM572.529 192.032C573.193 192.444 573.894 192.887 574.58 193.327C574.859 193.496 575.133 193.677 575.419 193.852L573.573 196.791H573.595L564.928 210.693C564.634 210.51 564.347 210.343 564.068 210.146C563.341 209.706 562.648 209.258 561.962 208.81C558.345 206.564 555.206 204.508 552.554 202.78L561.522 189.068L563.418 186.172C565.99 187.856 569.053 189.849 572.529 192.032ZM578.637 195.733C579.316 196.139 579.995 196.551 580.7 196.873C582.149 197.552 583.569 198.349 585.121 198.917C585.891 199.225 586.674 199.547 587.458 199.875C587.983 200.036 588.479 200.205 589.003 200.386L587.913 203.652L582.688 219.183C582.002 218.945 581.289 218.714 580.632 218.497C579.575 218.064 578.526 217.643 577.498 217.231C575.421 216.442 573.532 215.419 571.63 214.509C570.686 214.076 569.804 213.558 568.915 213.048C568.523 212.817 568.131 212.586 567.719 212.355L575.98 198.202L577.708 195.215C578.028 195.39 578.344 195.573 578.637 195.733ZM611.31 203.436C613.842 203.317 616.396 203.058 618.928 202.723L621.642 222.382C618.494 222.794 615.334 223.102 612.094 223.27C609.933 223.34 607.729 223.319 605.555 223.256L606.198 203.43C607.89 203.478 609.596 203.498 611.31 203.436ZM621.563 202.309C625.705 201.63 629.754 200.679 633.643 199.497C633.916 199.427 634.175 199.343 634.428 199.273L635.429 202.583L640.144 218.276C639.85 218.36 639.556 218.437 639.241 218.54C634.743 219.905 629.888 221.044 624.874 221.877L621.563 202.309ZM652.97 192.278C656.111 190.894 658.923 189.521 661.378 188.311V210.236C661.259 210.291 661.161 210.341 661.041 210.383C660.824 210.488 660.615 210.592 660.398 210.691L653.774 195.72L652.383 192.537C652.58 192.444 652.775 192.367 652.97 192.278ZM664.107 186.932C664.345 186.799 664.638 186.667 664.877 186.533L666.465 189.604L673.97 204.177C671.325 205.52 668.018 207.206 664.107 209.004V186.932ZM669.06 188.268L667.423 185.204C669.984 183.832 671.416 183.063 671.416 183.063C671.416 183.063 673.243 182.05 676.403 180.271C676.829 180.04 677.27 179.782 677.739 179.508L679.453 182.51L687.624 196.705C687.135 196.992 686.658 197.258 686.232 197.516C682.868 199.399 680.944 200.468 680.944 200.468C680.944 200.468 679.413 201.286 676.684 202.742L669.038 188.268H669.06ZM681.985 181.049L680.235 178.047C682.866 176.508 685.992 174.653 689.468 172.506C690.412 171.925 691.372 171.324 692.378 170.707L694.19 173.654L702.864 187.541C701.843 188.184 700.864 188.8 699.892 189.387C696.269 191.626 693.001 193.578 690.245 195.172L681.985 181.049ZM723.695 150.133C725.284 149.062 726.913 147.971 728.521 146.866C730.899 145.251 733.277 143.641 735.635 142.032L737.595 144.887L746.793 158.425C744.437 160.04 742.057 161.672 739.679 163.288C738.057 164.378 736.439 165.49 734.817 166.583L723.695 150.133ZM786.215 108.885C786.215 108.885 788.083 107.78 791.342 105.799C791.775 105.554 792.223 105.268 792.706 105.01L802.793 122.079C802.324 122.352 801.891 122.618 801.479 122.864C798.317 124.76 796.526 125.851 796.526 125.851C796.526 125.851 795.106 126.718 792.608 128.258L782.165 111.384C784.761 109.788 786.215 108.885 786.215 108.885ZM943.447 71.7012C944.587 72.0021 945.783 72.303 946.965 72.6254L946.098 75.9762L941.951 91.8227C940.873 91.5361 939.811 91.2569 938.782 90.9972C934.941 90.1017 931.501 89.4085 928.618 88.8837L932.052 69.3443C935.311 69.9389 939.167 70.7019 943.447 71.7012ZM989.605 88.506C992.298 89.7722 994.963 91.0938 997.586 92.4442L988.549 110.101C986.094 108.835 983.588 107.61 981.085 106.407C979.371 105.602 977.672 104.818 975.958 104.042L982.673 89.0986L982.681 89.1203L984.108 85.9572C985.934 86.7847 987.78 87.632 989.605 88.506ZM1039.21 117.322C1040.77 118.406 1042.17 119.366 1043.41 120.233L1032.09 136.52C1030.91 135.694 1029.55 134.77 1028.05 133.742C1025.95 132.293 1023.53 130.713 1020.92 128.985C1020.73 128.867 1020.55 128.74 1020.37 128.622L1031.18 111.985C1031.35 112.098 1031.56 112.231 1031.74 112.356C1034.48 114.181 1037.01 115.832 1039.21 117.322ZM1067.24 137.834C1068.14 138.527 1069.09 139.247 1070.01 139.996L1057.72 155.576C1056.83 154.849 1055.91 154.141 1055.05 153.477C1051.82 150.959 1048.92 148.747 1046.46 146.9L1058.35 131.027C1060.9 132.924 1063.91 135.225 1067.24 137.834ZM1103.87 168.617C1105.21 169.835 1106.56 171.051 1107.9 172.276V177.11L1096.9 189.093C1094.83 187.177 1092.7 185.266 1090.6 183.371C1089.18 182.069 1087.71 180.796 1086.29 179.517L1099.45 164.665C1100.92 165.972 1102.38 167.289 1103.87 168.617ZM1148.15 211.432L1145.66 213.832L1133.9 225.235C1131.42 222.674 1128.19 219.345 1124.35 215.503C1124.18 215.356 1124.01 215.174 1123.86 215.041L1137.9 201C1138.07 201.168 1138.24 201.337 1138.41 201.489C1142.32 205.424 1145.62 208.83 1148.15 211.432ZM1153.51 216.993C1153.51 216.993 1154.99 218.567 1157.6 221.317C1157.94 221.666 1158.3 222.051 1158.67 222.457L1144.23 236.051C1143.84 235.658 1143.5 235.288 1143.16 234.931C1140.63 232.238 1139.13 230.699 1139.13 230.699C1139.13 230.699 1137.99 229.503 1135.95 227.356L1150.24 213.608C1152.34 215.77 1153.51 216.993 1153.51 216.993ZM1168.27 232.813C1169.04 233.638 1169.82 234.493 1170.64 235.374L1155.95 248.743C1155.19 247.869 1154.4 247.029 1153.68 246.211C1150.87 243.168 1148.35 240.474 1146.25 238.214L1158.19 227.028L1160.75 224.649C1162.89 226.942 1165.44 229.705 1168.27 232.813ZM1178.86 274.648C1175.68 270.953 1172.54 267.308 1169.45 263.811L1181.76 253.009L1184.36 250.722C1187.48 254.276 1190.68 257.97 1193.91 261.74L1178.86 274.648ZM1162.23 263.565V293.824C1149.49 278.335 1136.62 263.707 1126.33 252.596C1120.9 246.739 1116.21 241.864 1112.74 238.282V211.382C1115.56 214.153 1118.2 216.776 1120.61 219.203C1125.09 223.681 1128.78 227.472 1131.33 230.124C1133.89 232.789 1135.34 234.315 1135.34 234.315C1135.34 234.315 1136.8 235.854 1139.35 238.528C1141.89 241.221 1145.5 245.09 1149.79 249.757C1153.51 253.814 1157.73 258.5 1162.23 263.565ZM1050.6 182.05C1045.75 178.28 1040.72 174.529 1035.63 170.904C1026.11 164.133 1016.26 157.788 1006.74 152.309C1004.86 151.218 1002.97 150.176 1001.12 149.153V122.953C1007.38 126.576 1013.13 130.18 1018.05 133.364C1020.65 135.085 1023.02 136.659 1025.11 138.08C1027.18 139.514 1029.02 140.773 1030.51 141.794C1033.46 143.915 1035.17 145.117 1035.17 145.117C1035.17 145.117 1035.56 145.417 1036.35 145.976C1037.16 146.549 1038.31 147.396 1039.77 148.48C1042.48 150.446 1046.2 153.244 1050.6 156.657L1050.6 182.05ZM994.782 145.797C989.571 143.111 984.577 140.739 979.973 138.71C977.93 137.851 976.035 136.975 974.139 136.233C972.264 135.492 970.495 134.82 968.844 134.156C967.171 133.484 965.563 132.988 964.102 132.456C962.641 131.946 961.318 131.421 960.066 131.057C957.597 130.294 955.666 129.693 954.345 129.281C953.009 128.903 952.301 128.715 952.301 128.715C952.301 128.715 951.594 128.527 950.251 128.161C949.084 127.861 947.404 127.377 945.291 126.902V98.1986C948.985 99.2768 952.908 100.521 957 101.99C964.03 104.558 971.487 107.664 978.804 111.161C984.267 113.73 989.646 116.52 994.78 119.36L994.782 145.797ZM938.984 125.507C937.795 125.29 936.592 125.088 935.311 124.828C934.409 124.682 933.506 124.492 932.563 124.345C931.598 124.22 930.618 124.092 929.617 123.953C927.624 123.666 925.489 123.372 923.287 123.204C914.452 122.344 903.919 122.273 892.894 123.77C891.76 123.917 890.6 124.092 889.481 124.259V93.2179C893.055 92.7344 896.405 92.3994 899.483 92.2311C902.331 92.0287 904.925 92.0627 907.219 92.0358C909.499 92.1057 911.494 92.1828 913.152 92.2741C916.495 92.5535 918.413 92.7361 918.413 92.7361C918.413 92.7361 918.882 92.7577 919.777 92.8902C920.68 93.0084 921.994 93.1838 923.688 93.4005C927.024 93.8769 931.83 94.7581 937.552 96.0941C938.006 96.2195 938.476 96.3396 938.986 96.4649L938.984 125.507ZM883.136 125.355C882.919 125.391 882.667 125.432 882.429 125.48C881.743 125.634 881.037 125.774 880.309 125.928C878.91 126.258 877.497 126.559 876.084 126.872C870.426 128.285 864.767 129.907 859.191 131.804C853.631 133.742 848.11 135.805 842.81 138.094C840.138 139.192 837.563 140.41 834.969 141.57C834.535 141.773 834.109 141.989 833.674 142.172V111.384C841.179 107.76 849.427 104.184 857.778 101.218C865.263 98.5318 872.867 96.3628 880.001 94.8799C881.057 94.6417 882.114 94.4392 883.134 94.2494L883.136 125.355ZM827.331 145.215C817.545 150.085 808.647 155.065 801.157 159.487C793.63 163.916 787.462 167.792 783.151 170.519C780.781 172.045 778.99 173.199 777.849 173.926V143.899C779.101 143.08 780.319 142.276 781.5 141.527C786.803 138.078 791.244 135.273 794.35 133.35C797.47 131.419 799.239 130.321 799.239 130.321C799.239 130.321 801.023 129.25 804.171 127.375C805.723 126.439 807.626 125.332 809.829 124.053C812.026 122.828 814.481 121.366 817.216 119.898C820.279 118.191 823.693 116.386 827.33 114.539L827.331 145.215ZM771.519 178.061C770.973 178.417 770.379 178.803 769.757 179.202C765.519 182.001 759.482 186.031 752.291 190.906C743.575 196.789 733.195 203.946 722.037 211.396V181.453C728.697 177.06 735.67 172.344 742.601 167.629C752.722 160.73 762.761 153.917 771.517 148.089V178.061H771.519ZM715.714 215.587C710.371 219.106 704.886 222.633 699.367 226.068C694.498 229.104 689.547 232.064 684.656 234.862C679.746 237.647 674.87 240.326 670.1 242.704C668.793 243.362 667.505 243.999 666.211 244.621V213.825C671.113 211.565 675.101 209.502 678.018 207.997C681.474 206.136 683.46 205.065 683.46 205.065C683.46 205.065 685.419 203.982 688.847 202.064C692.197 200.119 697.03 197.348 702.633 193.857C706.634 191.416 711.033 188.61 715.714 185.589V215.587ZM548.251 229.705C544.174 226.879 540.06 224.01 535.961 221.107C522.972 211.873 510.115 202.408 498.776 194.054V171.521C507.59 177.964 515.956 183.995 522.929 188.92C533.555 196.426 540.836 201.274 540.836 201.274C540.836 201.274 542.633 202.499 545.816 204.639C546.543 205.108 547.368 205.647 548.249 206.228V229.705H548.251ZM492.439 189.402C489.69 187.387 487.038 185.449 484.542 183.622C477.533 178.488 471.658 174.255 467.53 171.281C463.369 168.349 461.01 166.678 461.01 166.678C461.01 166.678 458.632 165.005 454.449 162.088C451.484 160.017 447.573 157.345 442.957 154.259V130.941C444.117 131.767 445.356 132.599 446.622 133.509C456.982 140.813 470.734 150.88 484.535 161.06C487.158 162.99 489.808 164.957 492.439 166.88V189.402ZM436.612 150.077C429.365 145.347 420.881 140.01 411.507 134.693C403.882 130.384 395.677 126.087 387.13 122.233V96.0959C389.292 97.2152 391.453 98.3276 393.503 99.4953C395.169 100.439 396.847 101.315 398.449 102.244C400.057 103.176 401.631 104.098 403.179 104.986C403.927 105.448 404.697 105.867 405.431 106.308C406.165 106.763 406.892 107.218 407.621 107.658C409.034 108.532 410.42 109.372 411.734 110.184C417.029 113.479 421.415 116.312 424.457 118.341C427.521 120.371 429.271 121.524 429.271 121.524C429.271 121.524 431.02 122.706 434.062 124.776C434.832 125.308 435.692 125.889 436.616 126.539V150.077H436.612ZM380.807 119.484C380.766 119.47 380.709 119.436 380.646 119.407C369.804 114.881 358.438 111.285 347.49 109.27C346.091 109.054 344.727 108.83 343.384 108.592C342.712 108.493 342.027 108.375 341.376 108.255C340.712 108.156 340.012 108.122 339.348 108.052C338.019 107.913 336.662 107.78 335.367 107.66C334.703 107.576 334.072 107.513 333.401 107.451C332.771 107.429 332.128 107.415 331.47 107.381C331.422 107.381 331.358 107.381 331.309 107.381V77.2766C331.351 77.2766 331.386 77.2766 331.422 77.2766C332.129 77.3536 332.821 77.4091 333.542 77.4932C334.269 77.5703 334.998 77.7243 335.752 77.8354C337.256 78.0807 338.816 78.3315 340.397 78.5984C343.586 79.3685 346.958 79.9827 350.441 81.0537C353.938 81.9707 357.548 83.2781 361.178 84.496C362.99 85.2034 364.836 85.9162 366.663 86.6236L368.047 87.1555L369.411 87.7572L372.16 88.9465L374.909 90.1356C375.833 90.5278 376.755 90.9952 377.643 91.4233C378.721 91.9194 379.742 92.4316 380.806 92.9134L380.807 119.484ZM324.988 107.256C324.659 107.27 324.331 107.277 323.975 107.284C322.778 107.333 321.582 107.383 320.4 107.445C319.24 107.494 318.107 107.515 316.973 107.662C308.082 108.403 300.835 110.006 295.8 111.16C293.297 111.803 291.309 112.315 289.973 112.65C288.659 113.042 287.93 113.259 287.93 113.259C287.93 113.259 287.223 113.483 285.908 113.882C285.237 114.077 284.411 114.33 283.453 114.616C282.51 114.939 281.417 115.317 280.207 115.743C278.989 116.169 277.632 116.631 276.163 117.163C275.925 117.226 275.73 117.324 275.492 117.408V86.199C282.248 83.6595 288.657 81.6858 294.176 80.3784C294.862 80.2101 295.567 80.0292 296.246 79.8537C296.924 79.7212 297.596 79.5888 298.219 79.4473C299.526 79.1876 300.766 78.9297 301.913 78.6915C304.214 78.2796 306.236 78.0056 307.901 77.7405C309.56 77.4539 310.853 77.3912 311.743 77.2783C312.624 77.187 313.114 77.1314 313.114 77.1314C313.114 77.1314 313.598 77.0688 314.479 76.9775C315.352 76.8933 316.57 76.8934 318.166 76.8164C318.95 76.7752 319.824 76.732 320.775 76.6837C321.74 76.6765 322.803 76.7321 323.901 76.7751C324.257 76.7751 324.614 76.7965 324.992 76.8037V107.256H324.988ZM269.176 119.918C268.197 120.324 267.224 120.765 266.204 121.198C264.336 121.988 262.413 122.835 260.425 123.808C252.429 127.565 243.378 132.476 234.104 138.381C229.312 141.375 224.5 144.628 219.708 148.091V116.511C223.696 113.712 228.13 110.76 232.845 107.744C239.329 103.708 246.373 99.6224 253.55 95.942C258.74 93.2484 264.015 90.8144 269.178 88.6795L269.176 119.918ZM213.357 152.73C210.902 154.569 208.495 156.425 206.11 158.327C190.133 170.955 175.36 184.953 163.875 196.721V163.064C170.814 156.383 177.452 150.296 183.096 145.385C185.452 143.341 187.608 141.454 189.532 139.83C191.484 138.214 193.183 136.779 194.562 135.617C197.409 133.35 199.003 132.05 199.003 132.05C199.003 132.05 199.422 131.713 200.158 131.106C200.928 130.49 202.025 129.623 203.479 128.504C205.927 126.594 209.306 124.019 213.357 121.039V152.73ZM100.825 223.829C100.825 223.829 99.7609 225.11 97.8735 227.397L82.5399 214.831C84.4559 212.494 85.5411 211.18 85.5411 211.18C85.5411 211.18 86.9324 209.507 89.3391 206.589C89.6614 206.204 89.9964 205.827 90.3527 205.393L105.545 218.161C105.203 218.587 104.866 218.979 104.551 219.343C102.173 222.199 100.825 223.829 100.825 223.829ZM96.0186 229.678C93.7659 232.428 90.8416 236.072 87.4715 240.326C87.3247 240.501 87.1921 240.675 87.0721 240.858L71.495 228.545C71.6418 228.369 71.7886 228.196 71.9068 228.006C75.3628 223.654 78.3498 219.961 80.615 217.154L83.3152 219.33L96.0186 229.678ZM85.2456 243.166C82.5112 246.643 79.5584 250.455 76.4605 254.492L60.7078 242.459C63.8487 238.316 66.8572 234.441 69.6256 230.916L85.2456 243.166ZM74.677 256.837C71.8925 260.524 68.9969 264.371 66.0871 268.302L52.9291 258.577L50.1303 256.522C53.1028 252.52 56.0343 248.588 58.8815 244.844L61.6517 246.936L74.677 256.837ZM64.3322 270.702C62.6526 272.97 60.9818 275.271 59.3165 277.58C58.183 279.161 57.0567 280.721 55.9375 282.295L42.6184 272.78V272.758L39.7855 270.751C40.9262 269.155 42.0865 267.568 43.2272 265.972C44.9337 263.615 46.6403 261.278 48.354 258.941L64.3322 270.702ZM32.5403 287.122L29.6932 285.162C32.3649 281.265 35.1709 277.243 38.0593 273.213L54.2238 284.701C51.4249 288.625 48.7048 292.529 46.0743 296.32C46.0117 296.334 45.9562 296.356 45.9132 296.356L32.5403 287.122ZM802.955 57.5277L761.475 80.545L759.93 77.753L801.388 54.7302L802.955 57.5277ZM763.545 84.2811L762.007 81.496L803.465 58.466L805.017 61.2707L763.545 84.2811ZM757.853 74.0241L799.318 50.9941L800.849 53.7988L759.403 76.8164L757.853 74.0241ZM815.846 86.3298C812.656 87.9524 809.62 89.5124 806.779 91.0383L813.117 86.0362C813.992 86.3245 814.916 86.4211 815.846 86.3298ZM845.616 71.5491L852.533 70.9472C850.882 71.4935 849.231 72.0594 847.602 72.6271C846.244 73.1304 844.887 73.6213 843.551 74.1317C844.441 73.444 845.148 72.5484 845.616 71.5491ZM881.745 31.8738L835.796 43.6208L835.011 40.5153L880.939 28.7684L881.745 31.8738ZM833.943 36.3728L879.899 24.6187L880.683 27.7313L834.72 39.4711L833.943 36.3728ZM836.86 47.7543L836.075 44.6488L881.997 32.9019L882.787 36.0075L836.86 47.7543ZM886.753 62.9703C884.474 63.264 882.13 63.6205 879.759 64.0199L884.341 62.0193C885.061 62.4885 885.879 62.8181 886.753 62.9703ZM26.8819 325.158L10.1568 314.504C11.8561 311.832 13.8994 308.676 16.2148 305.15C16.8236 304.199 17.4736 303.226 18.1379 302.232L21.0264 304.149L34.6803 313.173C34.0088 314.16 33.3999 315.097 32.7911 316.042C30.5187 319.492 28.5312 322.57 26.8819 325.158Z" fill="url(#paint0_linear_47_29180)"/>
<defs>
<linearGradient id="paint0_linear_47_29180" x1="623.5" y1="0" x2="623.5" y2="340" gradientUnits="userSpaceOnUse">
<stop stop-color="#047C88"/>
<stop offset="1" stop-color="#2AA7D8"/>
</linearGradient>
</defs>
</svg>
