<svg width="388" height="637" viewBox="0 0 388 637" fill="none" xmlns="http://www.w3.org/2000/svg">
<path d="M95.0795 333.701C95.6467 333.808 96.2446 333.463 96.4362 332.888L136.615 210.513C136.83 209.884 136.485 209.202 135.856 208.987C135.228 208.773 134.522 209.118 134.316 209.746L94.1445 332.13C93.9222 332.766 94.2671 333.456 94.9033 333.663C94.9569 333.67 95.0182 333.693 95.0795 333.701Z" fill="#571983"/>
<path d="M137.995 197.766C134.469 197.766 131.587 200.633 131.587 204.174C131.587 207.715 134.469 210.574 137.995 210.574C141.552 210.574 144.403 207.715 144.403 204.174C144.403 200.641 141.544 197.766 137.995 197.766ZM137.995 207.777C136.018 207.777 134.4 206.159 134.4 204.174C134.4 202.189 136.018 200.572 137.995 200.572C139.988 200.572 141.59 202.189 141.59 204.174C141.59 206.159 139.988 207.777 137.995 207.777Z" fill="#8A4EAD"/>
<g opacity="0.5">
<path d="M119.6 345.275C118.642 344.983 117.523 344.715 116.626 344.501V346.524C116.626 346.524 118.741 346.072 118.895 347.75C119.017 349.015 118.948 350.74 119.301 355.737C119.393 357.247 119.531 359.079 119.722 361.309C119.707 361.386 119.684 361.447 119.669 361.539C120.236 361.631 120.872 361.708 121.493 361.708C121.47 360.459 121.447 358.941 121.447 357.078C121.455 348.456 121.631 345.896 119.6 345.275Z" fill="#D68C5B"/>
</g>
<path d="M110.095 348.632L112.011 349.023C112.027 348.9 112.609 345.98 112.701 342.876C112.824 338.292 111.774 335.663 109.597 335.058C105.458 333.916 94.2138 333.877 93.7539 333.87L93.731 335.832C93.8613 335.832 105.19 335.885 109.076 336.951C111.245 337.572 110.961 344.278 110.095 348.632Z" fill="#54D2DC"/>
<path d="M91.3319 345.328C91.2706 346.034 91.7765 346.654 92.474 346.708C93.1638 346.769 93.7693 346.256 93.8383 345.551L95.333 328.527C95.3943 327.822 94.9037 327.217 94.2062 327.132C93.5164 327.086 92.9032 327.607 92.8342 328.305L91.3319 345.328Z" fill="#FF93D0"/>
<path d="M93.0027 345.244C92.1366 345.152 91.3931 345.65 91.3165 346.34C91.2475 347.03 91.876 347.651 92.7421 347.75L113.437 349.912C114.311 350.004 115.062 349.521 115.131 348.839C115.2 348.141 114.571 347.513 113.713 347.428L93.0027 345.244Z" fill="#DD54A9"/>
<path d="M103.703 334.866C104.201 334.835 104.653 334.483 104.784 333.954L138.057 209.624C138.21 208.98 137.842 208.313 137.183 208.144C136.523 207.983 135.872 208.367 135.711 209.018L102.438 333.356C102.277 334.008 102.661 334.659 103.297 334.835C103.442 334.866 103.565 334.881 103.703 334.866Z" fill="#8A4EAD"/>
<path d="M340.054 336.43C339.502 336.606 338.873 336.338 338.605 335.793L277.662 209.095C277.371 208.497 277.624 207.769 278.237 207.47C278.827 207.179 279.563 207.439 279.855 208.052L340.79 334.751C341.088 335.349 340.843 336.077 340.23 336.368C340.169 336.391 340.107 336.414 340.054 336.43Z" fill="#8025C1"/>
<path d="M366.237 319.184C365.769 319.36 365.209 319.215 364.88 318.785L278.521 208.045C278.115 207.508 278.207 206.757 278.72 206.343C279.249 205.929 280.031 206.021 280.43 206.558L366.781 317.298C367.195 317.82 367.11 318.594 366.574 319C366.482 319.077 366.352 319.146 366.237 319.184Z" fill="#CB73FF"/>
<path d="M275.37 197.766C271.845 197.766 268.97 200.633 268.97 204.174C268.97 207.715 271.845 210.574 275.37 210.574C278.927 210.574 281.786 207.715 281.786 204.174C281.786 200.641 278.927 197.766 275.37 197.766ZM275.37 207.777C273.393 207.777 271.776 206.159 271.776 204.174C271.776 202.189 273.385 200.572 275.37 200.572C277.363 200.572 278.973 202.189 278.973 204.174C278.973 206.159 277.363 207.777 275.37 207.777Z" fill="#CB73FF"/>
<path d="M344.369 342.577C344.024 342.577 343.733 342.401 343.564 342.102L339.241 334.192C339.126 333.977 339.088 333.732 339.164 333.502C339.226 333.256 339.387 333.065 339.609 332.95L368.16 317.62C368.612 317.383 369.164 317.544 369.402 317.996C369.624 318.44 369.456 319 369.034 319.23L372.468 327.83L345.174 341.235C345.396 341.68 345.25 342.232 344.806 342.47C344.66 342.546 344.499 342.577 344.369 342.577Z" fill="#FF93D0"/>
<path d="M373.15 326.205L343.886 340.323L341.602 348.709L375.902 333.049L373.15 326.205Z" fill="#DD54A9"/>
<path d="M375.902 333.049L341.602 348.709L342.844 351.192L376.975 335.748L375.902 333.049Z" fill="#B52D88"/>
<path d="M344.76 339.795C344.484 339.856 344.185 339.795 343.947 339.611C343.534 339.266 343.457 338.668 343.794 338.254C344.185 337.763 353.574 326.259 371.173 325.4C371.709 325.37 372.154 325.776 372.177 326.312C372.2 326.849 371.778 327.178 371.272 327.324C355.123 331.862 345.396 339.35 345.304 339.465C345.143 339.641 344.967 339.749 344.76 339.795Z" fill="black"/>
<path d="M345.542 338.185C345.542 338.185 354.111 329.286 370.268 326.481C362.12 326.826 352.187 329.731 345.542 338.185Z" fill="#515149"/>
<path d="M341.602 349.613C341.288 349.613 340.966 349.437 340.797 349.138C340.659 348.9 337.731 343.328 336.512 340.707C335.117 337.71 340.406 331.294 341.479 330.037C341.816 329.654 342.376 329.608 342.775 329.938C343.158 330.267 343.196 330.842 342.89 331.218C340.153 334.422 337.57 338.653 338.168 339.94C339.348 342.516 342.368 348.226 342.407 348.279C342.629 348.724 342.46 349.276 342.008 349.506C341.893 349.583 341.74 349.613 341.602 349.613Z" fill="#54D2DC"/>
<path d="M375.901 333.954C375.549 333.954 375.227 333.762 375.066 333.44L368.221 318.701C368.006 318.241 368.213 317.705 368.666 317.49C369.118 317.275 369.67 317.482 369.884 317.942L376.714 332.674C376.944 333.134 376.744 333.663 376.269 333.87C376.162 333.931 376.008 333.954 375.901 333.954Z" fill="#54D2DC"/>
<path d="M265.852 349.713C265.269 349.713 264.748 349.284 264.664 348.686L243.746 209.647C243.662 208.98 244.107 208.367 244.773 208.259C245.425 208.16 246.046 208.635 246.145 209.279L267.04 348.325C267.155 348.985 266.687 349.613 266.02 349.697C265.974 349.713 265.913 349.713 265.852 349.713Z" fill="#571983"/>
<path d="M291.604 343.052C291.099 343.052 290.616 342.73 290.447 342.232L246.229 208.934C246.014 208.313 246.367 207.608 246.996 207.393C247.632 207.194 248.322 207.547 248.529 208.167L292.747 341.45C292.961 342.094 292.616 342.776 291.98 342.983C291.85 343.029 291.719 343.052 291.604 343.052Z" fill="#8A4EAD"/>
<path d="M269.193 353.162L267.307 347.62C267.307 347.62 283.281 341.036 291.628 341.159C293.291 342.193 295.767 347.306 295.767 347.306L269.193 353.162Z" fill="#FF93D0"/>
<path d="M292.9 355.461L265.399 361.103L265.851 362.72L293.797 356.841L297.039 349.613L296.342 348.333L292.9 355.461Z" fill="#B52D88"/>
<path d="M296.342 348.333L295.767 347.306L269.193 353.162L265.399 361.103L292.9 355.461L296.342 348.333Z" fill="#DD54A9"/>
<path d="M265.514 361.9C265.215 361.9 264.908 361.754 264.747 361.47C263.958 360.198 260.156 353.752 262.279 351.115C264.326 348.548 266.456 347.137 270.695 345.528C271.155 345.359 271.676 345.581 271.86 346.057C272.036 346.524 271.799 347.053 271.339 347.245C266.932 348.9 265.314 350.234 263.682 352.265C262.716 353.468 264.686 357.899 266.288 360.512C266.556 360.942 266.418 361.509 265.997 361.769C265.836 361.854 265.682 361.9 265.514 361.9Z" fill="#54D2DC"/>
<path d="M269.492 354.358C269.492 354.358 279.249 347.965 294.701 348.785C287.144 347.39 277.371 347.965 269.492 354.358Z" fill="#515149"/>
<path d="M292.663 355.914C292.364 355.914 292.05 355.753 291.873 355.454C286.569 346.064 286.707 344.915 289.927 341.979L290.348 341.588C290.915 341.067 291.613 340.883 292.31 341.044C294.794 341.642 296.909 347.153 297.308 348.249C297.507 348.732 297.246 349.238 296.779 349.414C296.296 349.582 295.783 349.352 295.614 348.877C294.61 346.149 292.916 343.052 291.889 342.799C291.835 342.784 291.743 342.768 291.59 342.922L291.168 343.305C288.854 345.413 288.486 345.735 293.475 354.557C293.713 354.986 293.56 355.546 293.115 355.791C292.977 355.883 292.816 355.914 292.663 355.914Z" fill="#54D2DC"/>
<path d="M244.972 197.766C241.446 197.766 238.58 200.633 238.58 204.174C238.58 207.715 241.446 210.574 244.972 210.574C248.521 210.574 251.403 207.715 251.403 204.174C251.403 200.641 248.521 197.766 244.972 197.766ZM244.972 207.777C243.002 207.777 241.393 206.159 241.393 204.174C241.393 202.189 243.002 200.572 244.972 200.572C246.98 200.572 248.582 202.189 248.582 204.174C248.582 206.159 246.98 207.777 244.972 207.777Z" fill="#8A4EAD"/>
<path d="M10.1463 350.272C9.99303 350.272 9.82436 350.234 9.69406 350.142C9.24951 349.897 9.11926 349.337 9.3722 348.9C9.49484 348.67 12.806 343.182 14.5919 340.553C15.665 338.959 16.3701 337.986 17.3665 338.062C18.2327 338.124 18.6542 338.959 18.9838 339.618C19.735 341.09 20.8463 343.152 20.8616 343.175C21.0916 343.611 20.9383 344.163 20.4937 344.401C20.0645 344.646 19.505 344.485 19.2674 344.033C19.2521 344.025 18.1176 341.933 17.3588 340.423C17.2975 340.285 17.2362 340.178 17.1979 340.086C16.9756 340.331 16.6307 340.776 16.1018 341.565C14.3466 344.156 10.9741 349.774 10.9358 349.828C10.7595 350.119 10.4529 350.272 10.1463 350.272Z" fill="#54D2DC"/>
<path d="M36.0072 370.622C35.6469 370.622 35.2791 370.469 35.0568 370.178C34.6353 369.664 34.7119 368.89 35.2331 368.468C35.2331 368.468 36.4978 367.334 38.7589 363.272C41.3189 358.688 40.8974 358.381 39.1038 357.078L38.9274 356.956C36.3214 355.055 33.0793 352.702 26.8248 348.624C25.928 348.034 25.1462 347.513 24.4794 347.053C22.7855 345.926 21.5591 345.098 21.0226 345.045C20.7696 345.045 20.2332 345.696 19.666 346.417C17.4126 349.352 14.063 354.787 14.0324 354.848C13.6951 355.415 12.944 355.584 12.3768 355.239C11.7942 354.879 11.6256 354.135 11.9782 353.568C12.1008 353.346 15.4274 347.965 17.7498 344.93C20.4555 341.427 21.7047 342.27 25.8284 345.045C26.4952 345.489 27.2464 345.995 28.1431 346.593C34.4436 350.709 37.7242 353.085 40.3455 354.994L40.5218 355.132C44.0782 357.73 43.3654 359.96 40.8744 364.452C38.368 368.959 36.9193 370.216 36.766 370.339C36.5437 370.53 36.2755 370.622 36.0072 370.622Z" fill="#FF93D0"/>
<path d="M36.6434 370.53C36.4211 370.53 36.2065 370.477 36.0149 370.346L10.4453 354.503C10.177 354.327 9.98537 354.059 9.91638 353.752L8.96589 349.897C8.81259 349.245 9.2112 348.594 9.8627 348.425C10.4989 348.264 11.1733 348.67 11.3266 349.322L12.1391 352.694L37.2873 368.284C37.8468 368.652 38.046 369.396 37.6781 369.971C37.4405 370.331 37.042 370.53 36.6434 370.53Z" fill="#DD54A9"/>
<path d="M41.748 357.615C41.2728 357.285 41.0811 356.626 41.357 356.09L113.337 209.593C113.636 208.988 114.356 208.75 114.977 209.041C115.567 209.348 115.805 210.068 115.521 210.666L43.5262 357.163C43.2349 357.761 42.5145 358.014 41.9167 357.722C41.8477 357.676 41.794 357.653 41.748 357.615Z" fill="#8025C1"/>
<path d="M20.6781 343.42C20.3562 343.021 20.3257 342.446 20.6246 342.01L111.36 207.999C111.728 207.455 112.464 207.301 113.023 207.669C113.583 208.052 113.744 208.804 113.368 209.363L22.6403 343.359C22.2724 343.918 21.5213 344.071 20.9695 343.696C20.8468 343.611 20.7471 343.527 20.6781 343.42Z" fill="#CB73FF"/>
<path d="M115.997 197.766C112.463 197.766 109.604 200.633 109.604 204.174C109.604 207.715 112.463 210.574 115.997 210.574C119.538 210.574 122.42 207.715 122.42 204.174C122.42 200.641 119.538 197.766 115.997 197.766ZM115.997 207.777C114.011 207.777 112.402 206.159 112.402 204.174C112.402 202.189 114.011 200.572 115.997 200.572C117.99 200.572 119.607 202.189 119.607 204.174C119.607 206.159 117.997 207.777 115.997 207.777Z" fill="#CB73FF"/>
<path d="M229.658 200.794H158.644V638.283H229.658V200.794Z" fill="#FFA402"/>
<path d="M217.387 201.775H170.9V638.283H217.387V201.775Z" fill="#FFC502"/>
<path d="M206.695 201.775H181.6V637.509H206.695V201.775Z" fill="#FFEC02"/>
<path d="M191.97 265.239L192.093 265.216H191.955L191.97 265.239Z" fill="#FF93D0"/>
<path d="M192.024 237.439L192.016 237.453H192.093L192.024 237.439Z" fill="#FF93D0"/>
<path d="M166.822 251.496L174.97 264.948L183.478 251.221L175.322 237.776L166.822 251.496Z" fill="#FF93D0"/>
<path d="M209.101 237.776L208.902 237.454H192.093L200.593 251.496L209.101 237.776Z" fill="#54D2DC"/>
<path d="M183.478 251.22L192.016 237.454H175.537L175.323 237.776L183.478 251.22Z" fill="#54D2DC"/>
<path d="M175.537 237.454H175.146L175.323 237.776L175.537 237.454Z" fill="#FF93D0"/>
<path d="M225.795 237.454H225.565L225.673 237.638L225.795 237.454Z" fill="#FF93D0"/>
<path d="M229.658 244.23V237.454H225.795L225.672 237.638L229.658 244.23Z" fill="#3C979E"/>
<path d="M209.308 237.454H208.902L209.101 237.776L209.308 237.454Z" fill="#FF93D0"/>
<path d="M200.593 251.496L208.733 264.948L217.249 251.228L209.101 237.776L200.593 251.496Z" fill="#FF93D0"/>
<path d="M158.307 237.454V265.216L166.822 251.496L158.307 237.454Z" fill="#B86A96"/>
<path d="M225.473 265.216H225.734L225.596 265.025L225.473 265.216Z" fill="#FF93D0"/>
<path d="M225.733 265.216H229.658V258.487L225.595 265.025L225.733 265.216Z" fill="#3C979E"/>
<path d="M225.673 237.638L217.249 251.228L225.596 265.025L229.658 258.487V244.23L225.673 237.638Z" fill="#B86A96"/>
<path d="M208.572 265.216H208.902L208.733 264.948L208.572 265.216Z" fill="#FF93D0"/>
<path d="M174.801 265.216H175.146L174.97 264.948L174.801 265.216Z" fill="#FF93D0"/>
<path d="M192.093 237.454H192.017L183.478 251.22L191.955 265.216H192.093L200.593 251.496L192.093 237.454Z" fill="#FF93D0"/>
<path d="M200.593 251.496L192.093 265.216H208.572L208.733 264.948L200.593 251.496Z" fill="#54D2DC"/>
<path d="M174.97 264.948L175.146 265.216H191.955L183.478 251.22L174.97 264.948Z" fill="#54D2DC"/>
<path d="M194.155 521.289L197.918 528.907L206.319 530.118L200.225 536.051L201.658 544.421L194.155 540.466L186.62 544.421L188.061 536.051L181.991 530.118L190.391 528.907L194.155 521.289Z" fill="#54D2DC"/>
<path d="M174.931 530.118L166.523 528.907L162.76 521.288L159.004 528.907L158.759 528.938V542.581L162.76 540.466L170.279 544.421L168.838 536.051L174.931 530.118Z" fill="#54D2DC"/>
<path d="M213.5 530.118L221.908 528.907L225.641 521.289L229.42 528.907L229.658 528.938V542.581L225.641 540.466L218.13 544.421L219.578 536.051L213.5 530.118Z" fill="#54D2DC"/>
<path d="M170.9 244.904L166.822 251.496L170.9 258.257V244.904Z" fill="#B86A96"/>
<path d="M175.323 237.776L175.146 237.454H170.9V244.905L175.323 237.776Z" fill="#54D2DC"/>
<path d="M170.9 237.454H158.307L166.822 251.496L170.9 244.905V237.454Z" fill="#3C979E"/>
<path d="M166.822 251.496L158.307 265.216H170.9V258.257L166.822 251.496Z" fill="#3C979E"/>
<path d="M170.9 265.216H174.802L174.97 264.948L170.9 258.257V265.216Z" fill="#54D2DC"/>
<path d="M225.673 237.638L225.565 237.454H217.387V251.006L225.673 237.638Z" fill="#3C979E"/>
<path d="M217.386 237.454H209.308L209.101 237.776L217.249 251.228L217.386 251.006V237.454Z" fill="#54D2DC"/>
<path d="M217.249 251.228L208.733 264.948L208.902 265.216H217.387V251.458L217.249 251.228Z" fill="#54D2DC"/>
<path d="M217.387 265.216H225.473L225.596 265.025L217.387 251.458V265.216Z" fill="#3C979E"/>
<path d="M241.73 635.631H146.235V662.198H241.73V635.631Z" fill="#BF6202"/>
<g opacity="0.5">
<path d="M162.392 635.631H146.235V662.198H162.392V635.631Z" fill="#939393"/>
<path d="M241.73 635.631H226.002V662.198H241.73V635.631Z" fill="#939393"/>
</g>
<path d="M188.996 391.309C188.981 391.309 188.973 391.309 188.958 391.309C188.276 391.271 187.755 390.328 187.785 389.186L191.165 209.923C191.188 208.788 191.733 207.899 192.407 207.938C193.074 207.976 193.61 208.934 193.587 210.061L190.2 389.324C190.184 390.451 189.64 391.309 188.996 391.309Z" fill="#8025C1"/>
<path d="M194.338 197.766C190.797 197.766 187.938 200.633 187.938 204.174C187.938 207.715 190.797 210.574 194.338 210.574C197.88 210.574 200.762 207.715 200.762 204.174C200.762 200.641 197.88 197.766 194.338 197.766ZM194.338 207.777C192.361 207.777 190.751 206.159 190.751 204.174C190.751 202.189 192.361 200.572 194.338 200.572C196.331 200.572 197.941 202.189 197.941 204.174C197.941 206.159 196.331 207.777 194.338 207.777Z" fill="#CB73FF"/>
<path d="M198.662 394.245C198.01 394.245 197.45 393.708 197.45 393.049L195.021 208.581C195.021 207.907 195.573 207.355 196.224 207.347C196.239 207.347 196.239 207.347 196.239 207.347C196.914 207.347 197.443 207.869 197.45 208.535L199.88 393.011C199.888 393.678 199.359 394.245 198.677 394.245H198.662Z" fill="#CB73FF"/>
<path d="M175.406 403.144L173.022 402.668C173.053 402.515 173.774 398.913 175.161 395.31C177.184 390.045 179.622 387.546 182.373 387.883C187.639 388.535 200.47 393.8 201.022 394.023L200.094 396.268C199.956 396.207 187.011 390.895 182.067 390.282C179.323 389.983 176.464 397.755 175.406 403.144Z" fill="#54D2DC"/>
<path d="M198.347 408.241C198.079 409.069 197.205 409.536 196.392 409.276C195.572 409.023 195.12 408.141 195.388 407.306L201.712 387.193C201.98 386.358 202.846 385.89 203.666 386.143C204.479 386.412 204.939 387.285 204.67 388.113L198.347 408.241Z" fill="#FF93D0"/>
<path d="M196.485 407.367C197.504 407.666 198.125 408.578 197.887 409.406C197.65 410.226 196.623 410.64 195.603 410.333L170.984 403.021C169.949 402.715 169.328 401.795 169.566 400.982C169.819 400.17 170.838 399.733 171.858 400.055L196.485 407.367Z" fill="#DD54A9"/>
<path d="M187.632 10.516C187.632 10.516 191.787 0 193.726 0C196.224 0 199.674 10.2325 199.674 10.2325C199.674 10.2325 214.873 12.7158 214.873 14.9233C214.873 17.1384 203.951 21.8446 203.951 21.8446C203.951 21.8446 207.913 34.7597 206.587 36.0857C205.277 37.3964 194.27 24.4659 194.27 24.4659C194.27 24.4659 184.459 36.9059 182.114 36.354C179.76 35.8021 183.922 22.6647 183.922 22.6647C183.922 22.6647 172.993 16.9928 173.138 15.4751C173.253 13.9652 187.632 10.516 187.632 10.516Z" fill="#FFEC02"/>
<path d="M193.726 0.00793314C193.779 1.37993 193.81 2.76723 193.856 4.14689C193.902 5.52654 193.91 6.90621 193.933 8.28587C193.956 9.65786 193.986 11.0375 193.986 12.4249L194.002 16.5638V16.6328L193.963 16.7094C193.021 18.3574 192.047 20.0283 191.074 21.6686L188.146 26.6124L185.172 31.5178L183.647 33.9552L182.106 36.3849L183.478 33.8632L184.873 31.3415L187.709 26.3441L190.575 21.3696C191.526 19.7064 192.499 18.0661 193.473 16.4182L193.457 16.5562L193.465 12.4172C193.465 11.0375 193.511 9.65787 193.519 8.27821C193.557 6.89855 193.557 5.51888 193.595 4.13923C193.641 2.76723 193.68 1.37993 193.726 0.00793314Z" fill="#FFC502"/>
<path d="M173.13 15.4905C174.847 15.5211 176.564 15.5671 178.281 15.6131L183.447 15.797C186.881 15.912 190.33 16.1113 193.749 16.2569L193.902 16.2646L193.971 16.3872C195.059 18.0198 196.102 19.6524 197.182 21.285L200.371 26.1905L203.498 31.1266C204.533 32.7822 205.575 34.4301 206.587 36.101C205.476 34.4991 204.357 32.8972 203.245 31.2952L199.965 26.4511L196.715 21.5993C195.642 19.9667 194.538 18.3418 193.48 16.7168L193.71 16.8471C190.276 16.6478 186.843 16.4946 183.424 16.2493L178.266 15.912C176.557 15.7587 174.824 15.6514 173.13 15.4905Z" fill="#FFC502"/>
<path d="M193.726 16.5484C193.726 16.5484 194.055 16.4947 194.638 16.4258C195.213 16.3568 196.033 16.2342 197.022 16.1269C198.01 16.0272 199.16 15.8892 200.394 15.7743C201.636 15.6593 202.962 15.5597 204.272 15.437C205.598 15.3374 206.917 15.2531 208.151 15.1688C209.4 15.0921 210.565 15.0691 211.554 15.0155C212.55 14.9618 213.394 14.9618 213.976 14.9388C214.551 14.9311 214.873 14.9235 214.873 14.9235C214.873 14.9235 214.551 14.9771 213.976 15.0538C213.394 15.1227 212.566 15.2454 211.592 15.345C210.604 15.4523 209.439 15.6057 208.197 15.7053C206.971 15.8356 205.645 15.9352 204.311 16.0502C203 16.1422 201.666 16.2265 200.425 16.3031C199.191 16.3721 198.033 16.4181 197.037 16.4718C196.056 16.5101 195.213 16.5101 194.646 16.5331C194.055 16.5484 193.726 16.5484 193.726 16.5484Z" fill="#FFC502"/>
<path d="M202.824 29.494C199.597 30.3371 193.956 22.3658 193.956 22.3658C193.956 22.3658 187.709 30.6131 185.601 29.494C183.493 28.3749 187.931 19.5068 187.931 19.5068C181.501 18.9933 176.296 16.7858 173.292 15.1992C173.2 15.3065 173.138 15.3908 173.131 15.4905C172.985 17.0081 183.915 22.68 183.915 22.68C183.915 22.68 179.761 35.8174 182.106 36.3693C184.459 36.9212 194.262 24.4812 194.262 24.4812C194.262 24.4812 205.261 37.4117 206.58 36.101C207.906 34.775 203.943 21.8599 203.943 21.8599C203.943 21.8599 214.865 17.1537 214.865 14.9386C214.865 14.8543 214.842 14.7546 214.773 14.6627C207.814 17.7209 199.543 19.1006 199.543 19.1006C199.543 19.1006 206.043 28.6585 202.824 29.494Z" fill="#FFCC02"/>
<path d="M194.492 30.9351C203.912 30.9351 207.668 38.2013 207.668 38.2013C212.98 34.5758 227.742 36.9826 229.068 45.3295C217.586 45.4445 210.565 57.6621 210.565 57.6621H177.43C177.43 57.6621 170.425 45.4445 158.92 45.3295C160.261 36.9902 175.008 34.5758 180.335 38.2013C180.335 38.2013 184.076 30.9351 193.503 30.9351H194.492Z" fill="#FFC502"/>
<path d="M158.927 45.3294C170.432 45.4444 177.438 57.662 177.438 57.662H183.6C176.25 31.8394 158.927 45.3294 158.927 45.3294Z" fill="#FFA402"/>
<path d="M167.903 47.9354C176.58 53.8603 178.488 59.8925 178.488 59.8925L180.925 58.4055C175.491 39.2743 167.903 47.9354 167.903 47.9354Z" fill="#FFA402"/>
<path d="M194.415 36.8598H193.748C183.746 36.8598 185.125 52.7182 185.8 57.6543H202.379C203.03 52.7259 204.418 36.8598 194.415 36.8598Z" fill="#FFA402"/>
<path d="M194.323 41.9415H193.848C186.283 41.9415 187.318 53.9292 187.824 57.6619H200.355C200.854 53.9292 201.904 41.9415 194.323 41.9415Z" fill="#FFA402"/>
<path d="M204.456 57.6621H210.565C210.565 57.6621 217.586 45.4444 229.068 45.3294C229.068 45.3141 229.068 45.3064 229.06 45.2835C227.972 44.4633 211.562 32.7056 204.456 57.6621Z" fill="#FFA402"/>
<path d="M219.985 47.9354C211.332 53.8603 209.423 59.8925 209.423 59.8925L206.986 58.4055C212.435 39.2743 219.985 47.9354 219.985 47.9354Z" fill="#FFA402"/>
<path d="M217.464 64.269C217.464 71.4815 206.948 77.3374 194.002 77.3374C181.041 77.3374 170.555 71.4815 170.555 64.269C170.555 57.0488 181.041 53.3084 194.002 53.3084C206.948 53.3084 217.464 57.0488 217.464 64.269Z" fill="#FFEC02"/>
<path d="M183.693 54.2204C175.913 55.7304 170.555 59.1105 170.555 64.2689C170.555 69.4273 175.913 73.8729 183.693 76.0037V54.2204Z" fill="#FFEC02"/>
<path d="M203.713 54.1056V76.1647C211.814 74.1029 217.463 69.5577 217.463 64.269C217.463 58.988 211.814 55.5465 203.713 54.1056Z" fill="#FFC302"/>
<path d="M223.656 71.083C222.123 62.9966 209.438 58.827 194.001 58.827C178.572 58.827 165.872 62.9966 164.339 71.083H223.656Z" fill="#FFC502"/>
<path d="M223.656 71.0831C222.682 66.0243 217.34 62.4832 209.675 60.5594V71.0831H223.656Z" fill="#FFC502"/>
<path opacity="0.5" d="M178.626 71.083V60.4826C170.8 62.3912 165.343 65.9553 164.369 71.083H178.626Z" fill="#FFC502"/>
<path d="M223.656 71.0829C223.212 68.8678 221.955 66.9286 220.031 65.3113C198.753 59.5244 176.771 63.3185 167.979 65.3113C166.033 66.9286 164.783 68.8678 164.369 71.0829H223.656Z" fill="#FFC502"/>
<path d="M182.159 38.4694C182.159 38.4694 186.007 31.4638 195.764 32.0693C192.415 30.3448 184.191 31.962 182.159 38.4694Z" fill="white"/>
<path d="M160.744 42.9226C160.744 42.9226 168.148 35.3115 178.595 39.1669C173.743 35.3115 165.32 36.5226 160.744 42.9226Z" fill="white"/>
<path d="M180.965 65.3882L180.941 65.3947H180.965V65.3882Z" fill="#FF93D0"/>
<path d="M197.519 64.66C196.515 64.66 195.527 64.6754 194.53 64.683C193.503 79.1081 195.297 98.7683 196.515 109.622C205.23 109.537 213.454 109.146 221.165 108.541C216.336 90.7892 205.759 74.8388 197.841 64.6677C197.742 64.66 197.627 64.66 197.519 64.66Z" fill="#54D2DC"/>
<path d="M180.941 65.3959C127.234 70.1787 96.5825 96.8214 96.5825 96.8214C101.733 98.2164 106.807 99.4735 111.843 100.6C118.029 92.2916 136.432 73.6049 180.941 65.3959Z" fill="#FF93D0"/>
<path d="M207.967 64.9438C227.266 72.1716 251.434 83.9984 267.346 101.673C272.343 100.554 276.589 99.4429 280.038 98.4848C264.119 83.5231 234.625 72.2943 210.688 65.1047C209.799 65.0434 208.886 64.9897 207.967 64.9438Z" fill="#FF93D0"/>
<path d="M210.688 65.1047C234.625 72.2942 264.119 83.5231 280.039 98.4847C286.707 96.6222 291.413 96.4766 291.413 96.4766C291.413 96.4766 265.43 68.8834 210.688 65.1047Z" fill="#54D2DC"/>
<path d="M198.555 64.6755C198.31 64.6755 198.08 64.6755 197.842 64.6755C205.752 74.8389 216.329 90.7893 221.166 108.549C231.72 107.713 241.278 106.487 249.679 105.092C236.649 82.4884 213.923 70.5083 198.555 64.6755Z" fill="#FF93D0"/>
<path d="M207.967 64.9437C204.916 64.7751 201.782 64.6908 198.555 64.6755C213.923 70.516 236.649 82.496 249.679 105.092C256.301 103.996 262.211 102.831 267.346 101.673C251.434 83.9907 227.267 72.1716 207.967 64.9437Z" fill="#54D2DC"/>
<path d="M187.625 64.9283C185.364 65.0356 183.141 65.1966 180.964 65.3959C149.339 76.4945 135.037 93.8781 129.066 104.057C134.891 105.076 140.609 105.95 146.228 106.663C150.834 96.3539 162.201 77.8051 187.625 64.9283Z" fill="#FF93D0"/>
<path d="M180.964 65.3959H180.949C136.439 73.6049 118.029 92.2916 111.851 100.6C117.691 101.926 123.425 103.068 129.074 104.057C135.037 93.8858 149.339 76.4945 180.964 65.3959Z" fill="#54D2DC"/>
<path d="M187.625 64.9283C162.201 77.8051 150.834 96.3539 146.227 106.663C154.988 107.79 163.481 108.548 171.667 109.024C172.356 101.206 175.675 80.5491 191.541 64.7597C190.215 64.8057 188.912 64.8593 187.625 64.9283Z" fill="#54D2DC"/>
<path d="M194.531 64.6829C193.527 64.7059 192.523 64.7212 191.549 64.7596C175.683 80.5567 172.364 101.213 171.674 109.024C180.32 109.529 188.621 109.706 196.524 109.621C195.297 98.7682 193.504 79.108 194.531 64.6829Z" fill="#FF93D0"/>
<g opacity="0.5">
<path d="M246.651 71.6886C248.192 73.873 252.898 84.711 194.515 84.711C138.938 84.711 141.391 75.5516 143.269 72.8996C113.131 82.4346 96.5825 96.829 96.5825 96.829C101.733 98.224 106.807 99.481 111.843 100.608C117.684 101.934 123.417 103.076 129.066 104.065C134.891 105.084 140.609 105.958 146.227 106.671C154.988 107.797 163.481 108.556 171.667 109.031C180.312 109.537 188.613 109.714 196.516 109.629C205.231 109.545 213.455 109.154 221.166 108.548C231.72 107.713 241.278 106.487 249.679 105.092C256.301 103.996 262.211 102.831 267.346 101.673C272.343 100.554 276.59 99.4427 280.039 98.4846C286.707 96.6221 291.413 96.4764 291.413 96.4764C291.413 96.4764 276.896 81.0472 246.651 71.6886Z" fill="#939393"/>
</g>
<path d="M387.591 108.84C381.942 122.169 365.777 168.219 365.777 168.219H294.977L314.484 103.191C339.264 85.8838 393.224 95.5107 387.591 108.84Z" fill="#D37B04"/>
<path d="M0.412448 108.84C6.06138 122.169 22.234 168.219 22.234 168.219H93.0335L73.5344 103.191C48.7312 85.8838 -5.24415 95.5107 0.412448 108.84Z" fill="#D37B04"/>
<path d="M114.717 91.0729C84.4412 91.0729 73.5266 103.183 73.5266 103.183L93.0258 168.211H158.613L149.454 101.566C149.454 101.566 145.008 91.0729 114.717 91.0729Z" fill="#D37B04"/>
<path d="M314.4 103.099C314.331 103.13 314.285 103.153 314.239 103.183C314.239 103.183 303.347 91.0729 273.041 91.0729C245.907 91.0729 239.507 99.4965 238.48 101.236L238.427 101.566L229.275 168.211H294.832L314.331 103.183L314.4 103.099Z" fill="#D37B04"/>
<path d="M238.481 101.244C238.35 101.459 238.312 101.574 238.312 101.574C238.312 101.574 230.08 86.5966 195.321 86.5966H192.446C157.671 86.5966 149.455 101.574 149.455 101.574L158.614 168.219H189.434H198.31H229.275L238.427 101.574L238.481 101.244Z" fill="#D37B04"/>
<path d="M387.591 112.128C381.942 125.457 365.777 171.492 365.777 171.492H294.977L314.484 106.471C339.264 89.172 393.224 98.7912 387.591 112.128Z" fill="#FFA402"/>
<path d="M0.412448 112.128C6.06138 125.457 22.234 171.492 22.234 171.492H93.0335L73.5344 106.471C48.7312 89.172 -5.24415 98.7912 0.412448 112.128Z" fill="#FFA402"/>
<path d="M114.717 94.361C84.4412 94.361 73.5266 106.471 73.5266 106.471L93.0258 171.492H158.613L149.454 104.862C149.454 104.862 145.008 94.361 114.717 94.361Z" fill="#FFC502"/>
<path d="M314.4 106.395C314.331 106.418 314.285 106.441 314.239 106.471C314.239 106.471 303.347 94.361 273.041 94.361C245.907 94.361 239.507 102.777 238.48 104.54L238.427 104.862L229.275 171.492H294.832L314.331 106.471L314.4 106.395Z" fill="#FFC502"/>
<path d="M238.481 104.532C238.35 104.732 238.312 104.854 238.312 104.854C238.312 104.854 230.08 89.8772 195.321 89.8772H192.446C157.671 89.8772 149.455 104.854 149.455 104.854L158.614 171.484H189.434H198.31H229.275L238.427 104.854L238.481 104.532Z" fill="#FFEC02"/>
<path d="M29.0862 164.034H83.0539L67.9314 116.328C67.9314 116.328 40.2155 97.4883 9.38013 113.776L29.0862 164.034Z" fill="#FF8502"/>
<path d="M150.167 164.034H99.058L83.054 111.768C83.054 111.768 111.36 94.9204 141.896 111.768L150.167 164.034Z" fill="#FFA402"/>
<path d="M359.537 164.034H305.554L320.685 116.328C320.685 116.328 348.4 97.4883 379.244 113.776L359.537 164.034Z" fill="#FF8502"/>
<path d="M238.442 164.034H289.543L305.547 111.768C305.547 111.768 277.264 94.9204 246.704 111.768L238.442 164.034Z" fill="#FFA402"/>
<path d="M165.596 164.034H222.722L230.716 110.058C230.716 110.058 196.462 85.7841 157.901 110.058L165.596 164.034Z" fill="#FFC502"/>
<path d="M179.009 124.353C179.009 124.353 178.71 125.871 177.307 125.15C175.89 124.453 176.487 121.517 179.921 121.517C183.363 121.517 185.072 128.998 178.319 130.209C171.536 131.42 167.405 123.142 172.348 116.681C177.308 110.22 188.506 110.618 192.445 117.992C196.385 125.35 188.912 133.137 181.132 138.587C174.272 143.638 174.188 151.51 179.829 154.238C185.486 156.959 189.012 151.923 186.689 149.18C186.39 151.502 180.634 150.896 181.447 145.953C182.244 141.001 190.828 141.308 192.239 146.558C193.664 151.809 189.525 161.581 179.323 157.756C171.751 154.936 169.221 144.036 179.829 137.069C190.338 129.995 193.158 126.768 192.652 120.912C192.146 115.048 181.791 111.04 174.977 117.179C170.838 120.912 173.467 126.668 176.288 127.074C179.116 127.473 180.12 125.557 179.009 124.353Z" fill="#D37B04"/>
<path d="M207.852 124.353C207.852 124.353 208.174 125.871 209.584 125.15C210.987 124.453 210.389 121.517 206.963 121.517C203.521 121.517 201.812 128.998 208.572 130.209C215.333 131.42 219.479 123.142 214.528 116.681C209.592 110.22 198.378 110.618 194.438 117.992C190.499 125.35 197.972 133.137 205.744 138.587C212.604 143.638 212.711 151.51 207.062 154.238C201.406 156.959 197.88 151.923 200.202 149.18C200.494 151.502 206.25 150.896 205.445 145.953C204.625 141.001 196.048 141.308 194.63 146.558C193.22 151.809 197.336 161.581 207.553 157.756C215.133 154.936 217.663 144.036 207.055 137.069C196.539 129.995 193.718 126.768 194.224 120.912C194.737 115.048 205.092 111.04 211.899 117.179C216.03 120.912 213.424 126.668 210.588 127.074C207.767 127.473 206.756 125.557 207.852 124.353Z" fill="#D37B04"/>
<path d="M101.495 124.353C101.495 124.353 101.449 125.871 99.9241 125.15C98.3835 124.453 98.5061 121.517 101.948 121.517C105.374 121.517 108.332 128.998 101.764 130.209C95.2103 131.42 89.6764 123.142 93.5547 116.681C97.4101 110.22 108.693 110.618 113.866 117.992C119.032 125.35 112.862 133.137 105.995 138.587C99.9854 143.638 101.196 151.51 107.298 154.238C113.414 156.959 116.097 151.923 113.322 149.18C113.414 151.502 107.551 150.896 107.535 145.953C107.52 141.001 116.143 141.308 118.427 146.558C120.734 151.809 118.235 161.581 107.39 157.756C99.3492 154.936 95.011 144.036 104.439 137.069C113.751 129.995 116.043 126.768 114.571 120.912C113.084 115.048 102.047 111.04 96.2757 117.179C92.7499 120.912 96.3369 126.668 99.2572 127.074C102.132 127.473 102.814 125.557 101.495 124.353Z" fill="#D37B04"/>
<path d="M130.353 124.353C130.353 124.353 130.898 125.871 132.201 125.15C133.488 124.453 132.4 121.517 128.966 121.517C125.54 121.517 125.065 128.998 132.04 130.209C139.007 131.42 141.751 123.142 135.727 116.681C129.702 110.22 118.557 110.618 115.852 117.992C113.146 125.35 121.93 133.137 130.606 138.587C138.317 143.638 139.735 151.51 134.538 154.238C129.334 156.959 124.957 151.923 126.82 149.18C127.525 151.502 133.166 150.896 131.542 145.953C129.909 141.001 121.37 141.308 120.834 146.558C120.297 151.809 126.054 161.581 135.619 157.756C142.732 154.936 143.437 144.036 131.672 137.069C119.983 129.995 116.618 126.768 116.135 120.912C115.683 115.048 125.348 111.04 133.197 117.179C137.949 120.912 136.294 126.668 133.527 127.074C130.775 127.473 129.434 125.557 130.353 124.353Z" fill="#D37B04"/>
<path d="M26.0512 124.353C26.0512 124.353 26.2734 125.871 24.6255 125.15C22.9546 124.453 22.5638 121.517 25.9746 121.517C29.4161 121.517 33.7159 128.998 27.3848 130.209C21.0231 131.42 14.0252 123.142 16.7308 116.681C19.4595 110.22 30.7881 110.618 37.2878 117.992C43.7722 125.35 38.997 133.137 33.1028 138.587C27.9827 143.638 30.6117 151.51 37.2111 154.238C43.7951 156.959 45.5887 151.923 42.3158 149.18C42.8063 151.502 36.8432 150.896 35.9464 145.953C35.042 141.001 43.7262 141.308 46.9684 146.558C50.1876 151.809 49.4518 161.581 37.9163 157.756C29.3701 154.936 23.0696 144.036 31.2632 137.069C39.3112 129.995 41.0204 126.768 38.4987 120.912C35.977 115.048 24.2193 111.04 19.5361 117.179C16.6848 120.912 21.299 126.668 24.2653 127.074C27.2392 127.473 27.5995 125.557 26.0512 124.353Z" fill="#D37B04"/>
<path d="M54.9085 124.353C54.9085 124.353 55.7439 125.871 56.9013 125.15C58.074 124.453 56.4645 121.517 53.0307 121.517C49.5969 121.517 50.4476 128.998 57.6448 130.209C64.8267 131.42 66.1067 123.142 58.9172 116.681C51.7353 110.22 40.6751 110.618 39.2725 117.992C37.8928 125.35 48.0485 133.137 57.7138 138.587C66.3214 143.638 69.1573 151.51 64.4358 154.238C59.722 156.959 54.4333 151.923 55.8283 149.18C56.932 151.502 62.4737 150.896 59.9673 145.953C57.4456 141.001 48.9606 141.308 49.3515 146.558C49.7654 151.809 57.2692 161.581 66.168 157.756C72.7444 154.936 71.5104 144.036 58.4879 137.069C45.5498 129.995 41.6102 126.768 40.0925 120.912C38.5749 115.048 47.5426 111.04 56.4721 117.179C61.8988 120.912 61.2626 126.668 58.5723 127.074C55.8896 127.473 54.211 125.557 54.9085 124.353Z" fill="#D37B04"/>
<path d="M287.995 124.353C287.995 124.353 288.041 125.871 289.574 125.15C291.114 124.453 290.992 121.517 287.558 121.517C284.132 121.517 281.166 128.998 287.734 130.209C294.288 131.42 299.814 123.142 295.943 116.681C292.072 110.22 280.79 110.618 275.631 117.992C270.458 125.35 276.636 133.137 283.488 138.587C289.528 143.638 288.301 151.51 282.193 154.238C276.076 156.959 273.401 151.923 276.168 149.18C276.091 151.502 281.94 150.896 281.955 145.953C281.97 141.001 273.347 141.308 271.056 146.558C268.771 151.809 271.263 161.581 282.108 157.756C290.141 154.936 294.502 144.036 285.059 137.069C275.747 129.995 273.447 126.768 274.942 120.912C276.413 115.048 287.466 111.04 293.23 117.179C296.748 120.912 293.161 126.668 290.263 127.074C287.374 127.473 286.669 125.557 287.995 124.353Z" fill="#D37B04"/>
<path d="M259.145 124.353C259.145 124.353 258.593 125.871 257.297 125.15C255.987 124.453 257.09 121.517 260.532 121.517C263.958 121.517 264.426 128.998 257.458 130.209C250.491 131.42 247.739 123.142 253.772 116.681C259.804 110.22 270.933 110.618 273.646 117.992C276.337 125.35 267.568 133.137 258.884 138.587C251.181 143.638 249.748 151.51 254.96 154.238C260.156 156.959 264.533 151.923 262.67 149.18C261.973 151.502 256.324 150.896 257.949 145.953C259.589 141.001 268.112 141.308 268.649 146.558C269.193 151.809 263.444 161.581 253.856 157.756C246.766 154.936 246.061 144.036 257.826 137.069C269.507 129.995 272.872 126.768 273.347 120.912C273.823 115.048 264.142 111.04 256.293 117.179C251.541 120.912 253.189 126.668 255.971 127.074C258.723 127.473 260.057 125.557 259.145 124.353Z" fill="#D37B04"/>
<path d="M363.424 124.353C363.424 124.353 363.209 125.871 364.865 125.15C366.52 124.453 366.927 121.517 363.5 121.517C360.059 121.517 355.774 128.998 362.105 130.209C368.452 131.42 375.457 123.142 372.744 116.681C370.038 110.22 358.672 110.618 352.195 117.992C345.71 125.35 350.493 133.137 356.38 138.587C361.508 143.638 358.879 151.51 352.272 154.238C345.687 156.959 343.886 151.923 347.159 149.18C346.669 151.502 352.632 150.896 353.536 145.953C354.433 141.001 345.741 141.308 342.514 146.558C339.28 151.809 340.031 161.581 351.559 157.756C360.105 154.936 366.413 144.036 358.219 137.069C350.171 129.995 348.454 126.768 350.984 120.912C353.521 115.048 365.256 111.04 369.931 117.179C372.79 120.912 368.176 126.668 365.21 127.074C362.243 127.473 361.898 125.557 363.424 124.353Z" fill="#D37B04"/>
<path d="M334.581 124.353C334.581 124.353 333.745 125.871 332.596 125.15C331.415 124.453 333.04 121.517 336.474 121.517C339.916 121.517 339.034 128.998 331.86 130.209C324.67 131.42 323.39 123.142 330.58 116.681C337.762 110.22 348.822 110.618 350.217 117.992C351.612 125.35 341.449 133.137 331.791 138.587C323.168 143.638 320.347 151.51 325.054 154.238C329.775 156.959 335.041 151.923 333.669 149.18C332.557 151.502 327.023 150.896 329.545 145.953C332.067 141.001 340.521 141.308 340.13 146.558C339.724 151.809 332.22 161.581 323.329 157.756C316.737 154.936 317.987 144.036 330.994 137.069C343.924 129.995 347.879 126.768 349.397 120.912C350.922 115.048 341.962 111.04 333.025 117.179C327.591 120.912 328.234 126.668 330.909 127.074C333.6 127.473 335.263 125.557 334.581 124.353Z" fill="#D37B04"/>
<g opacity="0.5">
<path d="M193.902 158.622C175.553 158.622 163.933 129.182 158.292 109.821C158.138 109.905 158.031 109.974 157.901 110.059L165.604 164.034H222.729L230.724 110.059C230.724 110.059 230.701 110.028 230.647 110.005C224.101 131.512 211.868 158.622 193.902 158.622Z" fill="#FFC502"/>
</g>
<g opacity="0.5">
<path d="M142.011 112.488C140.325 135.191 134.538 160.669 118.266 160.324C97.7628 159.902 83.0618 111.768 83.0618 111.768L99.0658 164.034H150.174L142.011 112.488Z" fill="#FFA402"/>
</g>
<g opacity="0.5">
<path d="M246.728 112.488C248.429 135.191 254.201 160.669 270.458 160.324C290.984 159.902 305.67 111.768 305.67 111.768L289.681 164.034H238.549L246.728 112.488Z" fill="#FFA402"/>
</g>
<g opacity="0.5">
<path d="M83.0538 164.034L67.9313 116.328C67.9313 116.328 63.3171 113.201 55.775 110.603C57.5839 129.596 57.9364 155.327 46.9835 157.963C36.3065 160.546 20.7163 135.605 10.116 115.631L29.0862 164.034H83.0538Z" fill="#D36C05"/>
</g>
<g opacity="0.5">
<path d="M305.823 164.034L320.961 116.328C320.961 116.328 325.583 113.201 333.117 110.603C331.301 129.596 330.948 155.327 341.901 157.963C352.601 160.546 368.199 135.605 378.784 115.631L359.814 164.034H305.823Z" fill="#D36C05"/>
</g>
<path d="M164.814 108.901C164.814 108.901 189.602 97.0744 212.581 105.49C203.943 98.8909 181.654 97.0743 164.814 108.901Z" fill="white"/>
<path d="M87.1008 113.876C87.1008 113.876 101.909 105.544 121.109 108.319C115.56 104.624 94.2751 105.774 87.1008 113.876Z" fill="#FFA402"/>
<path d="M302.451 113.876C302.451 113.876 287.65 105.544 268.442 108.319C273.991 104.624 295.276 105.774 302.451 113.876Z" fill="#FFA402"/>
<path d="M13.4502 114.956C13.4502 114.956 23.1461 107.69 43.3427 110.909C31.6156 105.268 18.302 110.511 13.4502 114.956Z" fill="#FF8502"/>
<path d="M376.883 114.956C376.883 114.956 367.187 107.69 346.998 110.909C358.718 105.268 372.039 110.511 376.883 114.956Z" fill="#FF8502"/>
<path d="M194.27 201.047L194.331 200.794H194.231L194.27 201.047Z" fill="#FFEC02"/>
<path d="M111.843 200.794H158.928L93.0261 171.492L111.843 200.794Z" fill="#FF0000"/>
<path d="M158.928 200.794H194.231L158.613 171.492L158.928 200.794Z" fill="#FF0000"/>
<path d="M229.627 200.794H275.478L295.537 171.492L229.627 200.794Z" fill="#FF0000"/>
<path d="M194.331 200.794H195.764H204.042H229.627L229.949 171.492L194.331 200.794Z" fill="#FF0000"/>
<path d="M158.614 171.492L194.232 200.794H194.331V171.492H158.614Z" fill="#BF2C02"/>
<path d="M194.331 171.492V200.794L229.95 171.492H194.331Z" fill="#BF6202"/>
<path d="M58.5344 171.492L111.805 200.748L93.0259 171.492H58.5344Z" fill="#BF6202"/>
<path d="M22.2344 171.492L111.843 200.794L111.805 200.748L58.5348 171.492H22.2344Z" fill="#BF2C02"/>
<path d="M295.537 171.492L275.478 200.794L328.817 171.492H295.537Z" fill="#BF2C02"/>
<path d="M328.817 171.492L275.478 200.794L365.079 171.492H328.817Z" fill="#BF6202"/>
<path d="M93.0261 171.492L158.928 200.794L125.992 171.492H93.0261Z" fill="#BF2C02"/>
<path d="M125.992 171.492L158.927 200.794L158.613 171.492H125.992Z" fill="#BF6202"/>
<path d="M229.949 171.492L229.627 200.794L230.332 200.472L262.938 171.492H229.949Z" fill="#BF2C02"/>
<path d="M262.938 171.492L230.332 200.472L295.536 171.492H262.938Z" fill="#BF6202"/>
<path d="M229.95 203.845H157.893V206.903H229.95V203.845Z" fill="#BF6202"/>
<path d="M275.47 200.794H111.843V203.844H275.47V200.794Z" fill="#934703"/>
</svg>
